<svg version="1.2" xmlns="http://www.w3.org/2000/svg" viewBox="0 0 2531 1626" width="2531" height="1626"><defs><linearGradient id="P" gradientUnits="userSpaceOnUse"/><linearGradient id="g1" x2="1" href="#P" gradientTransform="matrix(-6.793,-9.518,10.115,-7.219,1946.687,769.909)"><stop stop-color="#ff8762"/><stop offset="1" stop-color="#ff624d"/></linearGradient><linearGradient id="g2" x2="1" href="#P" gradientTransform="matrix(-7.523,-8.739,4.863,-4.186,1367.009,727.391)"><stop stop-color="#ff6b3d"/><stop offset="1" stop-color="#ff8762"/></linearGradient><linearGradient id="g3" x2="1" href="#P" gradientTransform="matrix(5.018,-5.882,3.959,3.377,980.897,737.887)"><stop stop-color="#ff8762"/><stop offset="1" stop-color="#ff5c47"/></linearGradient></defs><style>.a{fill:#d5dbfe}.b{fill:#cfd3f9}.c{fill:#b0baf5}.d{fill:#ebeeff}.e{fill:#52baeb}.f{fill:#80d3fa}.g{fill:#f56788}.h{fill:#2b1710}.i{fill:#ff8762}.j{fill:#ff634d}.k{fill:#e0b3a8}.l{fill:#ff7557}.m{fill:url(#g1)}.n{fill:#ff7a52}.o{fill:#f54f75}.p{fill:#585cd6}.q{fill:#7986f9}.r{fill:#6978d6}.s{fill:#929ff0}.t{fill:#4959bd}.u{fill:#fff}.v{fill:#b5b6ff}.w{fill:#6668d7}.x{fill:#bfcade}.y{fill:#5759b8}.z{fill:#363c47}.A{fill:#fcb4ca}.B{fill:#424957}.C{fill:#ded6fc}.D{fill:#7374eb}.E{fill:#6162c7}.F{fill:#8b8ceb}.G{fill:#b2d1dc}.H{fill:#de7f9c}.I{fill:#693e2f}.J{fill:#eff1fe}.K{fill:url(#g2)}.L{fill:#d9d9d9}.M{fill:#bfbfbf}.N{fill:url(#g3)}.O{fill:#42406f}.P{fill:#6d70d6}.Q{fill:#9cdeff}</style><path class="a" d="m1589.4 268.6c-435.1-74.1-990.6 101.8-987.5 546.2-496.9 117.3-540.1 503-422.8 753h2089.2c250-762.3-243.8-1225.2-678.9-1299.2z"/><path class="a" d="m608.1 574.1c0 150-121.6 271.5-271.6 271.5-150 0-271.6-121.5-271.6-271.5 0-150 121.6-271.6 271.6-271.6 150 0 271.6 121.6 271.6 271.6z"/><path class="b" d="m675.9 404.3c0 63.1-51.1 114.2-114.1 114.2-63.1 0-114.2-51.1-114.2-114.2 0-63 51.1-114.1 114.2-114.1 63 0 114.1 51.1 114.1 114.1z"/><path class="b" d="m2487.4 981.4c0 78.4-63.5 142-141.9 142-78.4 0-142-63.6-142-142 0-78.4 63.6-141.9 142-141.9 78.4 0 141.9 63.5 141.9 141.9z"/><path class="c" d="m359.9 793.2c52.3-7.6 93.6-48.9 101.2-101.2z"/><path class="c" d="m455.3 634l-153.4 153.4c11.7 4.2 24.2 6.6 37.3 7l123.1-123.1c-0.4-13.1-2.8-25.6-7-37.3z"/><path class="c" d="m390.2 564.7l-157.6 157.7c4.4 10 10.1 19.3 16.9 27.7l168.5-168.5c-8.4-6.8-17.7-12.5-27.8-16.9z"/><path class="c" d="m342.5 554.8c-0.8 0-1.5 0.1-2.3 0.1l-117.4 117.4c0 0.8-0.1 1.6-0.1 2.3 0 11.6 1.7 22.8 4.7 33.4l148.5-148.4c-10.6-3.1-21.8-4.8-33.4-4.8z"/><path class="c" d="m428.3 591l-169.4 169.4c8.6 8.4 18.5 15.5 29.3 21l161.1-161.1c-5.5-10.8-12.6-20.7-21-29.3z"/><path class="c" d="m318.2 557.3c-46.6 9.6-83.4 46.4-93 93z"/><path class="c" d="m2126.7 653.4c0 5.2-4.2 9.4-9.3 9.4-5.2 0-9.3-4.2-9.3-9.4 0-5.1 4.1-9.3 9.3-9.3 5.1 0 9.3 4.2 9.3 9.3z"/><path class="c" d="m2173.5 653.4c0 5.2-4.2 9.4-9.3 9.4-5.2 0-9.3-4.2-9.3-9.4 0-5.1 4.1-9.3 9.3-9.3 5.1 0 9.3 4.2 9.3 9.3z"/><path class="c" d="m2220.3 653.4c0 5.2-4.2 9.4-9.3 9.4-5.2 0-9.3-4.2-9.3-9.4 0-5.1 4.1-9.3 9.3-9.3 5.1 0 9.3 4.2 9.3 9.3z"/><path class="c" d="m2267.1 653.4c0 5.2-4.2 9.4-9.3 9.4-5.2 0-9.3-4.2-9.3-9.4 0-5.1 4.1-9.3 9.3-9.3 5.1 0 9.3 4.2 9.3 9.3z"/><path class="c" d="m2126.7 700.3c0 5.1-4.2 9.3-9.3 9.3-5.2 0-9.3-4.2-9.3-9.3 0-5.2 4.1-9.3 9.3-9.3 5.1 0 9.3 4.1 9.3 9.3z"/><path class="c" d="m2173.5 700.3c0 5.1-4.2 9.3-9.3 9.3-5.2 0-9.3-4.2-9.3-9.3 0-5.2 4.1-9.3 9.3-9.3 5.1 0 9.3 4.1 9.3 9.3z"/><path class="c" d="m2220.3 700.3c0 5.1-4.2 9.3-9.3 9.3-5.2 0-9.3-4.2-9.3-9.3 0-5.2 4.1-9.3 9.3-9.3 5.1 0 9.3 4.1 9.3 9.3z"/><path class="c" d="m2267.1 700.3c0 5.1-4.2 9.3-9.3 9.3-5.2 0-9.3-4.2-9.3-9.3 0-5.2 4.1-9.3 9.3-9.3 5.1 0 9.3 4.1 9.3 9.3z"/><path class="c" d="m2126.7 747.1c0 5.1-4.2 9.3-9.3 9.3-5.2 0-9.3-4.2-9.3-9.3 0-5.2 4.1-9.3 9.3-9.3 5.1 0 9.3 4.1 9.3 9.3z"/><path class="c" d="m2173.5 747.1c0 5.1-4.2 9.3-9.3 9.3-5.2 0-9.3-4.2-9.3-9.3 0-5.2 4.1-9.3 9.3-9.3 5.1 0 9.3 4.1 9.3 9.3z"/><path class="c" d="m2220.3 747.1c0 5.1-4.2 9.3-9.3 9.3-5.2 0-9.3-4.2-9.3-9.3 0-5.2 4.1-9.3 9.3-9.3 5.1 0 9.3 4.1 9.3 9.3z"/><path class="c" d="m2267.1 747.1c0 5.1-4.2 9.3-9.3 9.3-5.2 0-9.3-4.2-9.3-9.3 0-5.2 4.1-9.3 9.3-9.3 5.1 0 9.3 4.1 9.3 9.3z"/><path class="c" d="m2126.7 793.9c0 5.1-4.2 9.3-9.3 9.3-5.2 0-9.3-4.2-9.3-9.3 0-5.2 4.1-9.3 9.3-9.3 5.1 0 9.3 4.1 9.3 9.3z"/><path class="c" d="m2173.5 793.9c0 5.1-4.2 9.3-9.3 9.3-5.2 0-9.3-4.2-9.3-9.3 0-5.2 4.1-9.3 9.3-9.3 5.1 0 9.3 4.1 9.3 9.3z"/><path class="c" d="m2220.3 793.9c0 5.1-4.2 9.3-9.3 9.3-5.2 0-9.3-4.2-9.3-9.3 0-5.2 4.1-9.3 9.3-9.3 5.1 0 9.3 4.1 9.3 9.3z"/><path class="c" d="m2267.1 793.9c0 5.1-4.2 9.3-9.3 9.3-5.2 0-9.3-4.2-9.3-9.3 0-5.2 4.1-9.3 9.3-9.3 5.1 0 9.3 4.1 9.3 9.3z"/><path class="d" d="m877.2 484.3c0 9.4-7.6 17.1-17 17.1-9.5 0-17.1-7.7-17.1-17.1 0-9.4 7.6-17.1 17.1-17.1 9.4 0 17 7.7 17 17.1z"/><path class="d" d="m963.2 484.3c0 9.4-7.6 17.1-17 17.1-9.5 0-17.1-7.7-17.1-17.1 0-9.4 7.6-17.1 17.1-17.1 9.4 0 17 7.7 17 17.1z"/><path class="d" d="m1049.2 484.3c0 9.4-7.6 17.1-17.1 17.1-9.4 0-17-7.7-17-17.1 0-9.4 7.6-17.1 17-17.1 9.5 0 17.1 7.7 17.1 17.1z"/><path class="d" d="m1135.2 484.3c0 9.4-7.6 17.1-17.1 17.1-9.4 0-17-7.7-17-17.1 0-9.4 7.6-17.1 17-17.1 9.5 0 17.1 7.7 17.1 17.1z"/><path class="d" d="m877.2 570.3c0 9.4-7.6 17.1-17 17.1-9.5 0-17.1-7.7-17.1-17.1 0-9.4 7.6-17.1 17.1-17.1 9.4 0 17 7.7 17 17.1z"/><path class="d" d="m963.2 570.3c0 9.4-7.6 17.1-17 17.1-9.5 0-17.1-7.7-17.1-17.1 0-9.4 7.6-17.1 17.1-17.1 9.4 0 17 7.7 17 17.1z"/><path class="d" d="m1049.2 570.3c0 9.4-7.6 17.1-17.1 17.1-9.4 0-17-7.7-17-17.1 0-9.4 7.6-17.1 17-17.1 9.5 0 17.1 7.7 17.1 17.1z"/><path class="d" d="m1135.2 570.3c0 9.4-7.6 17.1-17.1 17.1-9.4 0-17-7.7-17-17.1 0-9.4 7.6-17.1 17-17.1 9.5 0 17.1 7.7 17.1 17.1z"/><path class="d" d="m877.2 656.3c0 9.4-7.6 17.1-17 17.1-9.5 0-17.1-7.7-17.1-17.1 0-9.4 7.6-17.1 17.1-17.1 9.4 0 17 7.7 17 17.1z"/><path class="d" d="m963.2 656.3c0 9.4-7.6 17.1-17 17.1-9.5 0-17.1-7.7-17.1-17.1 0-9.4 7.6-17.1 17.1-17.1 9.4 0 17 7.7 17 17.1z"/><path class="d" d="m1049.2 656.3c0 9.4-7.6 17.1-17.1 17.1-9.4 0-17-7.7-17-17.1 0-9.4 7.6-17.1 17-17.1 9.5 0 17.1 7.7 17.1 17.1z"/><path class="d" d="m1135.2 656.3c0 9.4-7.6 17.1-17.1 17.1-9.4 0-17-7.7-17-17.1 0-9.4 7.6-17.1 17-17.1 9.5 0 17.1 7.7 17.1 17.1z"/><path class="d" d="m877.2 742.3c0 9.4-7.6 17.1-17 17.1-9.5 0-17.1-7.7-17.1-17.1 0-9.4 7.6-17.1 17.1-17.1 9.4 0 17 7.7 17 17.1z"/><path class="d" d="m963.2 742.3c0 9.4-7.6 17.1-17 17.1-9.5 0-17.1-7.7-17.1-17.1 0-9.4 7.6-17.1 17.1-17.1 9.4 0 17 7.7 17 17.1z"/><path class="d" d="m1049.2 742.3c0 9.4-7.6 17.1-17.1 17.1-9.4 0-17-7.7-17-17.1 0-9.4 7.6-17.1 17-17.1 9.5 0 17.1 7.7 17.1 17.1z"/><path class="d" d="m1135.2 742.3c0 9.4-7.6 17.1-17.1 17.1-9.4 0-17-7.7-17-17.1 0-9.4 7.6-17.1 17-17.1 9.5 0 17.1 7.7 17.1 17.1z"/><path class="e" d="m1884.5 747.6h-545.4v-23.2h545.4z"/><path class="f" d="m1884.5 747.6h-208.5v-23.2h208.5z"/><path class="g" d="m1980.8 840c8.9-11.6 9.5-28.3 9.5-28.3l20.5 3.1c34.3 17.5 48.3 115.2 54.1 166.4 13.2 27.9 19.4 53 19.6 74.3l-131.3-10.4c41.9-15.7 10.5-70.6-2.6-89.8-13.1-19.2 22.4-69.9 30.2-115.3z"/><path class="h" d="m1954.1 740.3c-18.5-19.1-2.6-37.8 16.8-33.8 27.6-6.4 56.7-2 63.7 29.1 7 31-10.6 72.9-40.6 62.1-29.9-10.8-39.9-57.4-39.9-57.4z"/><path class="i" d="m1998 766.1l-4.4-7.2c-10.5 4.9-10.5-5.4-8.7-20.8 0.2-2.2-13.2-8.9-18.4-20.6-10 4.9-13.5 19.6-14.4 25.8-0.9 6.1-4.8 15.2-14.3 16.5 2.7 3.3 8.6 7.8 8.9 10.1 0.3 2.4-1 23.7 4.5 27.6 5.5 3.8 15.1-2.8 21-0.6 3.6 1.4 16.2 24.3 8.6 43.4 16.7-17.1 40.8-16.9 40.8-16.9-6.9-8.2-14.3-29.6-16.9-41.7-13.6-9.8-6.7-15.6-6.7-15.6z"/><path class="j" d="m1947.1 785.1c2.5-0.7 8.3-2.6 12.7-6.4 0 0-5.7-2.3-13.1-3.8 0.1 2.9 0.1 6.6 0.4 10.2z"/><path class="h" d="m1960.2 748.3c-0.3 2.8 0.8 5.2 2.4 5.4 1.6 0.1 3-2.1 3.3-4.9 0.2-2.9-0.8-5.3-2.4-5.4-1.6-0.1-3.1 2-3.3 4.9z"/><g style="mix-blend-mode:multiply"><path class="k" d="m1962 756.2q1 0 2-0.3c1.6-0.6 3-2 3.7-3.9 0.1-0.2 0-0.5-0.2-0.6-0.3 0-0.5 0.1-0.6 0.3-0.7 1.6-1.8 2.8-3.2 3.3-1 0.4-2 0.3-2.8-0.1-0.3-0.1-0.5 0-0.6 0.2-0.2 0.2-0.1 0.5 0.2 0.6q0.7 0.4 1.5 0.5z"/></g><path class="l" d="m1959.7 767.9c-0.4 4.9 3.5 9.3 8.7 9.7 5.2 0.5 9.8-3.2 10.2-8.2 0.4-4.9-3.5-9.3-8.7-9.7-5.2-0.5-9.8 3.2-10.2 8.2z"/><path class="h" d="m1959.9 740c3 0.3 5.4 1.2 7.2 2.4 0.8 0.5 1.8-0.4 1.3-1.3-3.4-6-9.3-6.4-9.3-2.1-0.1 0.5 0.3 0.9 0.8 1z"/><path class="m" d="m1946.7 769.9q0 0 0 0c-0.3-2.2-4.2-6.3-6.8-9.5q-0.7 0.1-1.4 0.2c2.9 3.2 7.9 7.1 8.2 9.3zm-8.2-9.3q0.7-0.1 1.4-0.2-0.3-0.4-0.7-0.8-0.6 0.1-1.4 0.2 0.3 0.4 0.7 0.8zm8.2 9.3c0-0.2 0-1.6 0.1-3.7 0.2-3.2 0.8-8 2.2-13.3-2 3.6-4.3 6.3-9.1 7.5 2.6 3.2 6.5 7.3 6.8 9.5zm-6.8-9.5c4.8-1.2 7.1-3.9 9.1-7.5q0.2-0.7 0.4-1.5c-2 3.7-5.3 7-10.2 8.2q0.4 0.4 0.7 0.8z"/><path class="n" d="m1987.9 762.2c-0.2 4.1 2.9 7.6 7 7.7 4.1 0.2 7.5-2.9 7.7-7 0.2-4.1-3-7.5-7-7.7-4.1-0.2-7.6 3-7.7 7z"/><g style="mix-blend-mode:multiply"><path fill-rule="evenodd" class="k" d="m1995.5 757.3c1.6 0.1 3.1 0.9 4 2.2 0.1 0.1 0.1 0.3-0.1 0.4-0.1 0.1-0.3 0.1-0.4 0-0.8-1.2-2.1-1.9-3.6-2q-1 0-2 0.4 0.1 0 0.2 0c1.8 0.1 3.1 1.5 3 3.3 0 1.7-1.5 3.1-3.2 3-1.3-0.1-2.3-0.9-2.8-1.9 0 1.3 0.7 2.7 1.8 3.5 0.1 0.1 0.1 0.3 0 0.5q-0.1 0.1-0.2 0.1-0.1 0-0.2-0.1c-1.3-1-2.1-2.7-2-4.4 0.1-2.9 2.6-5.1 5.5-5zm-2.1 6.7c1.4 0 2.6-1.1 2.6-2.5 0.1-1.4-1-2.5-2.4-2.6-1.4-0.1-2.6 1-2.6 2.4-0.1 1.4 1 2.6 2.4 2.7z"/></g><path class="h" d="m1949 780.9q-0.9-0.1-1.8-0.2c-0.3 0-0.5-0.3-0.5-0.6 0.1-0.3 0.4-0.6 0.6-0.5 4.6 0.6 11.2-0.6 12.5-1.7 0.2-0.2 0.6-0.1 0.8 0.1 0.2 0.2 0.1 0.6-0.1 0.8-1.4 1.2-7 2.2-11.5 2.1z"/><path class="h" d="m2061.9 771.9c-4.5 12.2-18.1 18.4-30.3 13.8-12.2-4.6-18.3-18.1-13.8-30.3 4.6-12.2 18.2-18.4 30.4-13.8 12.1 4.6 18.3 18.1 13.7 30.3z"/><path class="l" d="m1972.5 795.8c8.3-2.3 14.3-15.6 15.1-17.4-1.4 20.7-4.3 34.2-15.1 17.4z"/><path class="o" d="m2007.9 827.6c-27.3 15.1-44.8 145.4-57 157.6-12.2 12.2-113.4 30.3-113.4 30.3l7.6 23.8 95.9-4c22.1-8.2 57.6 0 70.4-31.5 12.8-31.4 29.1-102.9 28.5-129.7-0.6-26.7-7.5-52.3-32-46.5z"/><path class="p" d="m2101.1 1193.3c-83.7 212.3 35.4 373 35.4 373 0 0 196.9-36.2 280.5-248.5 83.7-212.2-6.5-446.5-6.5-446.5 0 0-225.8 109.8-309.4 322z"/><path class="q" d="m2101.1 1193.3c83.6-212.2 309.4-322 309.4-322l-274 695c0 0-119.1-160.7-35.4-373z"/><path class="p" d="m2290.2 1383.9c-103.1 78.6-102.5 178.7-102.5 178.7 0 0 96.3 27.2 199.4-51.4 103.2-78.5 138.3-205.9 138.3-205.9 0 0-132.1 0.1-235.2 78.6z"/><path class="q" d="m2290.2 1383.9c103.1-78.5 235.2-78.6 235.2-78.6l-337.7 257.3c0 0-0.6-100.1 102.5-178.7z"/><path class="r" d="m523.6 529.3h-26.1v1010h26.1z"/><path class="s" d="m510.2 529.3h-26.1v1010h26.1z"/><path class="r" d="m815.6 529.3h-26.2v1010h26.2z"/><path class="s" d="m802.2 529.3h-26.1v1010h26.1z"/><path class="r" d="m973.9 529.3h-26.2v1010h26.2z"/><path class="s" d="m960.5 529.3h-26.2v1010h26.2z"/><path class="r" d="m999.5 684h-545.4v-23.3h545.4z"/><path class="r" d="m999.5 909.1h-545.4v-23.3h545.4z"/><path class="r" d="m999.5 1134.2h-545.4v-23.3h545.4z"/><path class="t" d="m999.5 684h-208.4v-23.3h208.4z"/><path class="t" d="m999.5 909.1h-208.4v-23.3h208.4z"/><path class="t" d="m999.5 1134.2h-208.4v-23.3h208.4z"/><path class="p" d="m380.4 1105c104.1 264.2-5.5 449.1-5.5 449.1 0 0-206.3-60.3-310.5-324.5-104.1-264.2-30.5-540.7-30.5-540.7 0 0 242.4 151.9 346.5 416.1z"/><path class="q" d="m380.4 1105c-104.1-264.2-346.5-416.1-346.5-416.1l341 865.2c0 0 109.6-184.9 5.5-449.1z"/><path class="p" d="m244.8 1382.2c103.1 78.5 102.5 178.6 102.5 178.6 0 0-96.4 27.2-199.5-51.3-103.1-78.6-138.2-205.9-138.2-205.9 0 0 132.1 0 235.2 78.6z"/><path class="q" d="m244.8 1382.2c-103.1-78.6-235.2-78.6-235.2-78.6l337.7 257.2c0 0 0.6-100.1-102.5-178.6z"/><path class="p" d="m745.8 260.4c15.8 146-64.2 223.3-64.2 223.3 0 0-94.7-58.4-110.5-204.5-15.8-146 58.8-273.9 58.8-273.9 0 0 100.1 109 115.9 255.1z"/><path class="q" d="m745.8 260.4c-15.8-146.1-115.9-255.1-115.9-255.1l51.7 478.4c0 0 80-77.3 64.2-223.3z"/><path class="p" d="m793.5 394.5c-44.8 79.9-104.6 95.2-104.6 95.2 0 0-18.1-59 26.7-138.9 44.9-80 120.2-122.9 120.2-122.9 0 0 2.6 86.6-42.3 166.6z"/><path class="q" d="m793.5 394.5c44.9-80 42.3-166.6 42.3-166.6l-146.9 261.8c0 0 59.8-15.3 104.6-95.2z"/><path class="p" d="m640.2 380.1c40.7 53.3 26.7 103.2 26.7 103.2 0 0-51.8 0.3-92.5-53-40.7-53.3-40.8-121.6-40.8-121.6 0 0 65.9 18.1 106.6 71.4z"/><path class="q" d="m640.2 380.1c-40.7-53.3-106.6-71.4-106.6-71.4l133.3 174.6c0 0 14-49.9-26.7-103.2z"/><path class="e" d="m695.7 1214.8h-404.7c-19.2 0-34.8 15.7-34.8 34.9v257c0 19.3 15.6 34.9 34.8 34.9h404.7c19.3 0 34.9-15.6 34.9-34.9v-257c0-19.2-15.6-34.9-34.9-34.9z"/><path class="f" d="m695.7 1214.8h-22.1c-19.2 0-34.9 15.7-34.9 34.9v257c0 19.3 15.7 34.9 34.9 34.9h22.1c19.3 0 34.9-15.6 34.9-34.9v-257c0-19.2-15.6-34.9-34.9-34.9z"/><path class="e" d="m2111.3 1039.5h-493.9c-19.3 0-34.9 15.6-34.9 34.9v435.3c0 19.3 15.6 34.9 34.9 34.9h493.9c19.2 0 34.8-15.6 34.8-34.9v-435.3c0-19.3-15.6-34.9-34.8-34.9z"/><path class="f" d="m2111.3 1039.5h-22.1c-19.3 0-34.9 15.6-34.9 34.9v435.3c0 19.3 15.6 34.9 34.9 34.9h22.1c19.2 0 34.8-15.6 34.8-34.9v-435.3c0-19.3-15.6-34.9-34.8-34.9z"/><path class="q" d="m1214.3 156c82.8 0 150 67.2 150 150 0 29.9-8.8 57.7-23.8 81.1l47 52.7-84.7-12.7c-24.8 18.2-55.4 28.9-88.5 28.9-82.9 0-150-67.1-150-150 0-82.8 67.1-150 150-150z"/><path class="u" d="m1235.7 272.3h-117.6c-5.8 0-10.4-4.6-10.4-10.4v-25.7c0-5.8 4.6-10.4 10.4-10.4h117.6c5.7 0 10.4 4.6 10.4 10.4v25.7c0 5.8-4.7 10.4-10.4 10.4z"/><path class="u" d="m1302 363.7h-183.9c-5.8 0-10.4-4.7-10.4-10.4v-25.7c0-5.8 4.6-10.4 10.4-10.4h183.9c5.7 0 10.3 4.6 10.3 10.4v25.7c0 5.7-4.6 10.4-10.3 10.4z"/><path class="c" d="m1401.9 378.6c27.9-4.1 50-26.1 54-54z"/><path class="c" d="m1452.8 293.6l-81.9 81.9c6.2 2.2 12.9 3.5 19.9 3.7l65.7-65.7c-0.1-7-1.4-13.7-3.7-19.9z"/><path class="c" d="m1418.1 256.6l-84.2 84.2c2.3 5.3 5.4 10.3 9 14.8l90-90c-4.5-3.6-9.4-6.7-14.8-9z"/><path class="c" d="m1392.6 251.3q-0.6 0-1.3 0l-62.6 62.7q-0.1 0.7-0.1 1.3c0 6.2 0.9 12.1 2.6 17.8l79.2-79.3c-5.7-1.6-11.6-2.5-17.8-2.5z"/><path class="c" d="m1438.4 270.6l-90.5 90.5c4.6 4.5 9.9 8.3 15.7 11.2l86-86c-2.9-5.8-6.7-11.1-11.2-15.7z"/><path class="c" d="m1379.6 252.6c-24.9 5.2-44.5 24.8-49.6 49.7z"/><path class="v" d="m418.3 984.6h-15.2c-11.6 0-21.1 9.4-21.1 21.1v15.8h57.4v-15.8c0-11.7-9.5-21.1-21.1-21.1z"/><path class="u" d="m403.4 1016.8v-22h23v3l-6 3.7v15.2z"/><path class="w" d="m434.5 1212.8h-46.3c-8.1 0-14.7-6.5-14.7-14.6v-162c0-8.2 6.6-14.7 14.7-14.7h46.3c8.1 0 14.6 6.5 14.6 14.7v162c0 8.1-6.5 14.6-14.6 14.6z"/><g style="mix-blend-mode:multiply"><path class="x" d="m434.3 1195h14.5v-149.1h-14.5c-17.3 0-31.4 14.1-31.4 31.4v86.3c0 17.3 14.1 31.4 31.4 31.4z"/></g><path class="u" d="m436.4 1191.5h12.4v-149h-12.4c-17.3 0-31.4 14-31.4 31.4v86.2c0 17.4 14.1 31.4 31.4 31.4z"/><path class="y" d="m423 1016.7h-23.3v4.9h23.3z"/><g style="mix-blend-mode:multiply"><path class="x" d="m445 1212.3c-74.1-3.8-47.6-190.8-47.6-190.8l-4.8-0.3c0 0-0.8-31.4 3.3-36.6h-3.8c-5.5 0-10.1 4.5-10.1 10.1v26.8h-1.6c-3.8 0-6.9 3.1-6.9 6.9v177.5c0 3.8 3.1 6.9 6.9 6.9h61.8q1.5 0 2.8-0.5z"/></g><g style="mix-blend-mode:screen"><path class="z" d="m438.9 1059.5h-1.6c-2.2 0-4.1-1.8-4.1-4.1v-18.8c0-2.3 1.9-4.1 4.1-4.1h1.6c2.2 0 4.1 1.8 4.1 4.1v18.8c0 2.3-1.9 4.1-4.1 4.1z"/></g><path class="v" d="m1731.4 380.2h-26.9c-3.5 0-6.4 2.8-6.4 6.3v19.1h39.6v-19.1c0-3.5-2.8-6.3-6.3-6.3z"/><path class="u" d="m1712.9 402.4v-15.2h15.9v2.1l-4.2 2.6v10.4z"/><path class="w" d="m1740.5 537.8h-44.3c-2.2 0-3.9-1.8-3.9-4v-124.2c0-2.2 1.7-4 3.9-4h44.3c2.2 0 4 1.8 4 4v124.2c0 2.2-1.8 4-4 4z"/><g style="mix-blend-mode:multiply"><path class="x" d="m1744 525.5h0.3v-103h-0.3c-17.4 0-31.4 14.1-31.4 31.4v40.2c0 17.3 14 31.4 31.4 31.4z"/></g><path class="u" d="m1744.3 523.1v-103c-16.7 0-30.3 13.6-30.3 30.3v42.4c0 16.7 13.6 30.3 30.3 30.3z"/><path class="y" d="m1726.4 402.3h-16.1v3.4h16.1z"/><g style="mix-blend-mode:multiply"><path class="x" d="m1741.6 537.4c-51.2-2.6-32.9-131.7-32.9-131.7l-3.3-0.2c0 0-0.6-21.7 2.3-25.3h-2.6c-3.9 0-7 3.1-7 7v18.4h-1.1c-2.6 0-4.7 2.2-4.7 4.8v122.6c0 2.6 2.1 4.8 4.7 4.8h42.7q1 0 1.9-0.4z"/></g><g style="mix-blend-mode:screen"><path class="z" d="m1736.8 431.9c-1.8 0-3.3-1.5-3.3-3.4v-11.9c0-1.8 1.5-3.3 3.3-3.3 1.9 0 3.4 1.5 3.4 3.3v11.9c0 1.9-1.5 3.4-3.4 3.4z"/></g><path class="v" d="m1845.1 380.2h-27c-3.5 0-6.3 2.8-6.3 6.3v19.1h39.6v-19.1c0-3.5-2.8-6.3-6.3-6.3z"/><path class="u" d="m1826.6 402.4v-15.2h15.8v2.1l-4.1 2.6v10.4z"/><path class="w" d="m1854.2 537.8h-44.3c-2.2 0-4-1.8-4-4v-124.2c0-2.2 1.8-4 4-4h44.3c2.2 0 3.9 1.8 3.9 4v124.2c0 2.2-1.7 4-3.9 4z"/><g style="mix-blend-mode:multiply"><path class="x" d="m1857.6 525.5h0.3v-103h-0.3c-17.3 0-31.4 14.1-31.4 31.4v40.2c0 17.3 14.1 31.4 31.4 31.4z"/></g><path class="u" d="m1857.9 523.1v-103c-16.7 0-30.2 13.6-30.2 30.3v42.4c0 16.7 13.5 30.3 30.2 30.3z"/><path class="y" d="m1840.1 402.3h-16.1v3.4h16.1z"/><g style="mix-blend-mode:multiply"><path class="x" d="m1855.3 537.4c-51.2-2.6-32.9-131.7-32.9-131.7l-3.3-0.2c0 0-0.6-21.7 2.3-25.3h-2.6c-3.9 0-7 3.1-7 7v18.4h-1.1c-2.6 0-4.8 2.2-4.8 4.8v122.6c0 2.6 2.2 4.8 4.8 4.8h42.7q1 0 1.9-0.4z"/></g><g style="mix-blend-mode:screen"><path class="z" d="m1850.5 431.9c-1.8 0-3.3-1.5-3.3-3.4v-11.9c0-1.8 1.5-3.3 3.3-3.3 1.9 0 3.4 1.5 3.4 3.3v11.9c0 1.9-1.5 3.4-3.4 3.4z"/></g><path class="v" d="m1891.9 380.2h-27c-3.5 0-6.3 2.8-6.3 6.3v19.1h39.6v-19.1c0-3.5-2.8-6.3-6.3-6.3z"/><path class="u" d="m1873.4 402.4v-15.2h15.8v2.1l-4.1 2.6v10.4z"/><path class="w" d="m1901 537.8h-44.3c-2.2 0-4-1.8-4-4v-124.2c0-2.2 1.8-4 4-4h44.3c2.2 0 3.9 1.8 3.9 4v124.2c0 2.2-1.7 4-3.9 4z"/><g style="mix-blend-mode:multiply"><path class="x" d="m1904.4 525.5h0.3v-103h-0.3c-17.3 0-31.4 14.1-31.4 31.4v40.2c0 17.3 14.1 31.4 31.4 31.4z"/></g><path class="u" d="m1904.7 523.1v-103c-16.7 0-30.2 13.6-30.2 30.3v42.4c0 16.7 13.5 30.3 30.2 30.3z"/><path class="y" d="m1886.9 402.3h-16.1v3.4h16.1z"/><g style="mix-blend-mode:multiply"><path class="x" d="m1902.1 537.4c-51.2-2.6-32.9-131.7-32.9-131.7l-3.3-0.2c0 0-0.6-21.7 2.3-25.3h-2.6c-3.9 0-7 3.1-7 7v18.4h-1.1c-2.6 0-4.8 2.2-4.8 4.8v122.6c0 2.6 2.2 4.8 4.8 4.8h42.7q1 0 1.9-0.4z"/></g><g style="mix-blend-mode:screen"><path class="z" d="m1897.3 431.9c-1.8 0-3.3-1.5-3.3-3.4v-11.9c0-1.8 1.5-3.3 3.3-3.3 1.9 0 3.4 1.5 3.4 3.3v11.9c0 1.9-1.5 3.4-3.4 3.4z"/></g><path class="A" d="m525.6 659.7h76.4c10.6 0 19.1-8.5 19.1-19v-28.9c0-10.6-8.5-19.1-19.1-19.1h-76.4c-10.5 0-19 8.5-19 19.1v28.9c0 10.5 8.5 19 19 19z"/><path class="v" d="m528.2 576.1h71.3c2.9 0 5.2 2.3 5.2 5.2v6.2c0 2.9-2.3 5.2-5.2 5.2h-71.3c-2.9 0-5.2-2.3-5.2-5.2v-6.2c0-2.9 2.3-5.2 5.2-5.2z"/><g style="mix-blend-mode:screen"><path class="z" d="m584.3 586h13.4c1.7 0 3-1.4 3-3v-1.1c0-1.7-1.3-3-3-3h-13.4c-1.7 0-3 1.3-3 3v1.1c0 1.6 1.3 3 3 3z"/></g><g style="mix-blend-mode:screen"><path class="z" d="m576 586h1.1c1.6 0 3-1.4 3-3v-1.1c0-1.7-1.4-3-3-3h-1.1c-1.6 0-3 1.3-3 3v1.1c0 1.6 1.4 3 3 3z"/></g><path class="u" d="m548.2 645.9h61.1c2.7 0 4.8-2.2 4.8-4.9v-31.1c0-2.7-2.1-4.8-4.8-4.8h-61.1c-2.7 0-4.8 2.1-4.8 4.8v31.1c0 2.7 2.1 4.9 4.8 4.9z"/><g style="mix-blend-mode:multiply"><path class="x" d="m516.1 592.7h10c-1.8-0.3-3.1-1.8-3.1-3.6v-9.4c0-2 1.6-3.6 3.6-3.6h23.1q0.2 0.1 0.2 0.1c-1.2 8.9 5 16.5 5 16.5h-10.6c-0.1 9.9 3.1 50.9 35.8 67h-64c-5.3 0-9.5-4.2-9.5-9.5v-48c0-5.3 4.2-9.5 9.5-9.5z"/></g><g style="mix-blend-mode:screen"><path class="B" d="m602 654.1h2c3 0 5.5-2.4 5.5-5.4v-30.9c0-3-2.5-5.4-5.5-5.4h-2c-3 0-5.5 2.4-5.5 5.4v30.9c0 3 2.5 5.4 5.5 5.4z"/></g><g style="mix-blend-mode:screen"><path class="B" d="m602 609.5h2c3 0 5.5-2.4 5.5-5.4v-2c0-3-2.5-5.5-5.5-5.5h-2c-3 0-5.5 2.5-5.5 5.5v2c0 3 2.5 5.4 5.5 5.4z"/></g><path class="A" d="m838.5 660.3h76.4c10.5 0 19-8.5 19-19.1v-28.9c0-10.5-8.5-19-19-19h-76.4c-10.6 0-19.1 8.5-19.1 19v28.9c0 10.6 8.5 19.1 19.1 19.1z"/><path class="v" d="m841 576.7h71.3c2.9 0 5.2 2.3 5.2 5.2v6.2c0 2.9-2.3 5.2-5.2 5.2h-71.3c-2.9 0-5.2-2.3-5.2-5.2v-6.2c0-2.9 2.3-5.2 5.2-5.2z"/><g style="mix-blend-mode:screen"><path class="z" d="m897.1 586.5h13.4c1.7 0 3-1.3 3-2.9v-1.1c0-1.7-1.3-3-3-3h-13.4c-1.7 0-3 1.3-3 3v1.1c0 1.6 1.3 2.9 3 2.9z"/></g><g style="mix-blend-mode:screen"><path class="z" d="m888.8 586.5h1.1c1.7 0 3-1.3 3-2.9v-1.1c0-1.7-1.3-3-3-3h-1.1c-1.6 0-3 1.3-3 3v1.1c0 1.6 1.4 2.9 3 2.9z"/></g><path class="u" d="m861 646.4h61.1c2.7 0 4.8-2.1 4.8-4.8v-31.1c0-2.7-2.1-4.8-4.8-4.8h-61.1c-2.7 0-4.8 2.1-4.8 4.8v31.1c0 2.7 2.1 4.8 4.8 4.8z"/><g style="mix-blend-mode:multiply"><path class="x" d="m828.9 593.3h10c-1.7-0.3-3.1-1.8-3.1-3.6v-9.4c0-2 1.6-3.6 3.6-3.6h23.1q0.2 0.1 0.2 0.1c-1.2 8.9 5 16.5 5 16.5h-10.5c-0.2 9.9 3 50.9 35.7 67h-64c-5.3 0-9.5-4.2-9.5-9.5v-48c0-5.3 4.2-9.5 9.5-9.5z"/></g><g style="mix-blend-mode:screen"><path class="B" d="m914.8 654.7h2c3 0 5.5-2.4 5.5-5.4v-30.9c0-3-2.5-5.4-5.5-5.4h-2c-3 0-5.5 2.4-5.5 5.4v30.9c0 3 2.5 5.4 5.5 5.4z"/></g><g style="mix-blend-mode:screen"><path class="B" d="m914.8 610.1h2c3 0 5.5-2.4 5.5-5.4v-2.1c0-3-2.5-5.4-5.5-5.4h-2c-3 0-5.5 2.4-5.5 5.4v2.1c0 3 2.5 5.4 5.5 5.4z"/></g><path class="A" d="m560.5 1108h76.4c10.6 0 19.1-8.5 19.1-19v-28.9c0-10.6-8.5-19.1-19.1-19.1h-76.4c-10.5 0-19 8.5-19 19.1v28.9c0 10.5 8.5 19 19 19z"/><path class="v" d="m563.1 1024.4h71.3c2.9 0 5.2 2.3 5.2 5.2v6.2c0 2.9-2.3 5.2-5.2 5.2h-71.3c-2.9 0-5.2-2.3-5.2-5.2v-6.2c0-2.9 2.3-5.2 5.2-5.2z"/><g style="mix-blend-mode:screen"><path class="z" d="m619.1 1034.2h13.5c1.6 0 3-1.3 3-2.9v-1.1c0-1.7-1.4-3-3-3h-13.5c-1.6 0-2.9 1.3-2.9 3v1.1c0 1.6 1.3 2.9 2.9 2.9z"/></g><g style="mix-blend-mode:screen"><path class="z" d="m610.9 1034.2h1.1c1.6 0 3-1.3 3-2.9v-1.1c0-1.7-1.4-3-3-3h-1.1c-1.7 0-3 1.3-3 3v1.1c0 1.6 1.3 2.9 3 2.9z"/></g><path class="u" d="m583.1 1094.2h61.1c2.6 0 4.8-2.2 4.8-4.9v-31.1c0-2.7-2.2-4.8-4.8-4.8h-61.1c-2.7 0-4.9 2.1-4.9 4.8v31.1c0 2.7 2.2 4.9 4.9 4.9z"/><g style="mix-blend-mode:screen"><path class="B" d="m636.9 1102.4h2c3 0 5.5-2.4 5.5-5.4v-30.9c0-3-2.5-5.4-5.5-5.4h-2c-3 0-5.5 2.4-5.5 5.4v30.9c0 3 2.5 5.4 5.5 5.4z"/></g><g style="mix-blend-mode:screen"><path class="B" d="m636.9 1057.8h2c3 0 5.5-2.4 5.5-5.4v-2c0-3.1-2.5-5.5-5.5-5.5h-2c-3 0-5.5 2.4-5.5 5.5v2c0 3 2.5 5.4 5.5 5.4z"/></g><path class="A" d="m1413.9 723.4h76.4c10.6 0 19.1-8.5 19.1-19.1v-28.9c0-10.5-8.5-19-19.1-19h-76.4c-10.5 0-19 8.5-19 19v28.9c0 10.6 8.5 19.1 19 19.1z"/><path class="v" d="m1416.5 639.7h71.3c2.9 0 5.2 2.4 5.2 5.3v6.2c0 2.9-2.3 5.2-5.2 5.2h-71.3c-2.9 0-5.2-2.3-5.2-5.2v-6.2c0-2.9 2.3-5.3 5.2-5.3z"/><g style="mix-blend-mode:screen"><path class="z" d="m1472.6 649.6h13.4c1.7 0 3-1.3 3-3v-1.1c0-1.6-1.3-2.9-3-2.9h-13.4c-1.7 0-3 1.3-3 2.9v1.1c0 1.7 1.3 3 3 3z"/></g><g style="mix-blend-mode:screen"><path class="z" d="m1464.3 649.6h1.1c1.6 0 3-1.3 3-3v-1.1c0-1.6-1.4-2.9-3-2.9h-1.1c-1.6 0-3 1.3-3 2.9v1.1c0 1.7 1.4 3 3 3z"/></g><path class="u" d="m1436.5 709.5h61.1c2.7 0 4.8-2.1 4.8-4.8v-31.1c0-2.7-2.1-4.8-4.8-4.8h-61.1c-2.7 0-4.8 2.1-4.8 4.8v31.1c0 2.7 2.1 4.8 4.8 4.8z"/><g style="mix-blend-mode:screen"><path class="B" d="m1490.3 717.8h2c3 0 5.5-2.4 5.5-5.4v-30.9c0-3-2.5-5.4-5.5-5.4h-2c-3 0-5.5 2.4-5.5 5.4v30.9c0 3 2.5 5.4 5.5 5.4z"/></g><g style="mix-blend-mode:screen"><path class="B" d="m1490.3 673.2h2c3 0 5.5-2.4 5.5-5.4v-2.1c0-3-2.5-5.4-5.5-5.4h-2c-3 0-5.5 2.4-5.5 5.4v2.1c0 3 2.5 5.4 5.5 5.4z"/></g><path class="A" d="m1505.3 723.4h76.4c10.6 0 19.1-8.5 19.1-19.1v-28.9c0-10.5-8.5-19-19.1-19h-76.4c-10.5 0-19 8.5-19 19v28.9c0 10.6 8.5 19.1 19 19.1z"/><path class="v" d="m1507.9 639.7h71.3c2.9 0 5.2 2.4 5.2 5.3v6.2c0 2.9-2.3 5.2-5.2 5.2h-71.3c-2.9 0-5.2-2.3-5.2-5.2v-6.2c0-2.9 2.3-5.3 5.2-5.3z"/><g style="mix-blend-mode:screen"><path class="z" d="m1563.9 649.6h13.5c1.6 0 3-1.3 3-3v-1.1c0-1.6-1.4-2.9-3-2.9h-13.5c-1.6 0-2.9 1.3-2.9 2.9v1.1c0 1.7 1.3 3 2.9 3z"/></g><g style="mix-blend-mode:screen"><path class="z" d="m1555.7 649.6h1.1c1.6 0 3-1.3 3-3v-1.1c0-1.6-1.4-2.9-3-2.9h-1.1c-1.7 0-3 1.3-3 2.9v1.1c0 1.7 1.3 3 3 3z"/></g><path class="u" d="m1527.9 709.5h61.1c2.6 0 4.8-2.1 4.8-4.8v-31.1c0-2.7-2.2-4.8-4.8-4.8h-61.1c-2.7 0-4.9 2.1-4.9 4.8v31.1c0 2.7 2.2 4.8 4.9 4.8z"/><g style="mix-blend-mode:screen"><path class="B" d="m1581.7 717.8h2c3 0 5.5-2.4 5.5-5.4v-30.9c0-3-2.5-5.4-5.5-5.4h-2c-3 0-5.5 2.4-5.5 5.4v30.9c0 3 2.5 5.4 5.5 5.4z"/></g><g style="mix-blend-mode:screen"><path class="B" d="m1581.7 673.2h2c3 0 5.5-2.4 5.5-5.4v-2.1c0-3-2.5-5.4-5.5-5.4h-2c-3 0-5.5 2.4-5.5 5.4v2.1c0 3 2.5 5.4 5.5 5.4z"/></g><path class="A" d="m1641.3 723.4h76.4c10.5 0 19.1-8.5 19.1-19.1v-28.9c0-10.5-8.6-19-19.1-19h-76.4c-10.5 0-19.1 8.5-19.1 19v28.9c0 10.6 8.6 19.1 19.1 19.1z"/><path class="v" d="m1643.8 639.7h71.3c2.9 0 5.3 2.4 5.3 5.3v6.2c0 2.9-2.4 5.2-5.3 5.2h-71.3c-2.9 0-5.2-2.3-5.2-5.2v-6.2c0-2.9 2.3-5.3 5.2-5.3z"/><g style="mix-blend-mode:screen"><path class="z" d="m1699.9 649.6h13.5c1.6 0 2.9-1.3 2.9-3v-1.1c0-1.6-1.3-2.9-2.9-2.9h-13.5c-1.6 0-3 1.3-3 2.9v1.1c0 1.7 1.4 3 3 3z"/></g><g style="mix-blend-mode:screen"><path class="z" d="m1691.6 649.6h1.2c1.6 0 2.9-1.3 2.9-3v-1.1c0-1.6-1.3-2.9-2.9-2.9h-1.2c-1.6 0-2.9 1.3-2.9 2.9v1.1c0 1.7 1.3 3 2.9 3z"/></g><path class="u" d="m1663.8 709.5h61.1c2.7 0 4.9-2.1 4.9-4.8v-31.1c0-2.7-2.2-4.8-4.9-4.8h-61.1c-2.6 0-4.8 2.1-4.8 4.8v31.1c0 2.7 2.2 4.8 4.8 4.8z"/><g style="mix-blend-mode:screen"><path class="B" d="m1717.6 717.8h2.1c3 0 5.4-2.4 5.4-5.4v-30.9c0-3-2.4-5.4-5.4-5.4h-2.1c-3 0-5.4 2.4-5.4 5.4v30.9c0 3 2.4 5.4 5.4 5.4z"/></g><g style="mix-blend-mode:screen"><path class="B" d="m1717.6 673.2h2.1c3 0 5.4-2.4 5.4-5.4v-2.1c0-3-2.4-5.4-5.4-5.4h-2.1c-3 0-5.4 2.4-5.4 5.4v2.1c0 3 2.4 5.4 5.4 5.4z"/></g><path class="A" d="m1777.3 723.4h76.3c10.6 0 19.1-8.5 19.1-19.1v-28.9c0-10.5-8.5-19-19.1-19h-76.3c-10.6 0-19.1 8.5-19.1 19v28.9c0 10.6 8.5 19.1 19.1 19.1z"/><path class="v" d="m1779.8 639.7h71.3c2.9 0 5.2 2.4 5.2 5.3v6.2c0 2.9-2.3 5.2-5.2 5.2h-71.3c-2.9 0-5.2-2.3-5.2-5.2v-6.2c0-2.9 2.3-5.3 5.2-5.3z"/><g style="mix-blend-mode:screen"><path class="z" d="m1835.9 649.6h13.4c1.7 0 3-1.3 3-3v-1.1c0-1.6-1.3-2.9-3-2.9h-13.4c-1.7 0-3 1.3-3 2.9v1.1c0 1.7 1.3 3 3 3z"/></g><g style="mix-blend-mode:screen"><path class="z" d="m1827.6 649.6h1.1c1.7 0 3-1.3 3-3v-1.1c0-1.6-1.3-2.9-3-2.9h-1.1c-1.6 0-3 1.3-3 2.9v1.1c0 1.7 1.4 3 3 3z"/></g><path class="u" d="m1799.8 709.5h61.1c2.7 0 4.8-2.1 4.8-4.8v-31.1c0-2.7-2.1-4.8-4.8-4.8h-61.1c-2.7 0-4.8 2.1-4.8 4.8v31.1c0 2.7 2.1 4.8 4.8 4.8z"/><g style="mix-blend-mode:screen"><path class="B" d="m1853.6 717.8h2c3 0 5.5-2.4 5.5-5.4v-30.9c0-3-2.5-5.4-5.5-5.4h-2c-3 0-5.5 2.4-5.5 5.4v30.9c0 3 2.5 5.4 5.5 5.4z"/></g><g style="mix-blend-mode:screen"><path class="B" d="m1853.6 673.2h2c3 0 5.5-2.4 5.5-5.4v-2.1c0-3-2.5-5.4-5.5-5.4h-2c-3 0-5.5 2.4-5.5 5.4v2.1c0 3 2.5 5.4 5.5 5.4z"/></g><path class="A" d="m696.5 1108h76.4c10.5 0 19.1-8.5 19.1-19v-28.9c0-10.6-8.6-19.1-19.1-19.1h-76.4c-10.5 0-19.1 8.5-19.1 19.1v28.9c0 10.5 8.6 19 19.1 19z"/><path class="v" d="m699 1024.4h71.3c2.9 0 5.3 2.3 5.3 5.2v6.2c0 2.9-2.4 5.2-5.3 5.2h-71.3c-2.9 0-5.2-2.3-5.2-5.2v-6.2c0-2.9 2.3-5.2 5.2-5.2z"/><g style="mix-blend-mode:screen"><path class="z" d="m755.1 1034.2h13.5c1.6 0 2.9-1.3 2.9-2.9v-1.1c0-1.7-1.3-3-2.9-3h-13.5c-1.6 0-3 1.3-3 3v1.1c0 1.6 1.4 2.9 3 2.9z"/></g><g style="mix-blend-mode:screen"><path class="z" d="m746.8 1034.2h1.2c1.6 0 2.9-1.3 2.9-2.9v-1.1c0-1.7-1.3-3-2.9-3h-1.2c-1.6 0-2.9 1.3-2.9 3v1.1c0 1.6 1.3 2.9 2.9 2.9z"/></g><path class="u" d="m719 1094.2h61.1c2.7 0 4.9-2.2 4.9-4.9v-31.1c0-2.7-2.2-4.8-4.9-4.8h-61.1c-2.6 0-4.8 2.1-4.8 4.8v31.1c0 2.7 2.2 4.9 4.8 4.9z"/><g style="mix-blend-mode:screen"><path class="B" d="m772.8 1102.4h2.1c3 0 5.4-2.4 5.4-5.4v-30.9c0-3-2.4-5.4-5.4-5.4h-2.1c-3 0-5.4 2.4-5.4 5.4v30.9c0 3 2.4 5.4 5.4 5.4z"/></g><g style="mix-blend-mode:screen"><path class="B" d="m772.8 1057.8h2.1c3 0 5.4-2.4 5.4-5.4v-2c0-3.1-2.4-5.5-5.4-5.5h-2.1c-3 0-5.4 2.4-5.4 5.5v2c0 3 2.4 5.4 5.4 5.4z"/></g><path class="A" d="m854.7 1108h76.4c10.6 0 19.1-8.5 19.1-19v-28.9c0-10.6-8.5-19.1-19.1-19.1h-76.4c-10.5 0-19 8.5-19 19.1v28.9c0 10.5 8.5 19 19 19z"/><path class="v" d="m857.3 1024.4h71.3c2.9 0 5.2 2.3 5.2 5.2v6.2c0 2.9-2.3 5.2-5.2 5.2h-71.3c-2.9 0-5.2-2.3-5.2-5.2v-6.2c0-2.9 2.3-5.2 5.2-5.2z"/><g style="mix-blend-mode:screen"><path class="z" d="m913.4 1034.2h13.4c1.7 0 3-1.3 3-2.9v-1.1c0-1.7-1.3-3-3-3h-13.4c-1.7 0-3 1.3-3 3v1.1c0 1.6 1.3 2.9 3 2.9z"/></g><g style="mix-blend-mode:screen"><path class="z" d="m905.1 1034.2h1.1c1.6 0 3-1.3 3-2.9v-1.1c0-1.7-1.4-3-3-3h-1.1c-1.6 0-3 1.3-3 3v1.1c0 1.6 1.4 2.9 3 2.9z"/></g><path class="u" d="m877.3 1094.2h61.1c2.7 0 4.8-2.2 4.8-4.9v-31.1c0-2.7-2.1-4.8-4.8-4.8h-61.1c-2.7 0-4.8 2.1-4.8 4.8v31.1c0 2.7 2.1 4.9 4.8 4.9z"/><g style="mix-blend-mode:screen"><path class="B" d="m931.1 1102.4h2c3 0 5.5-2.4 5.5-5.4v-30.9c0-3-2.5-5.4-5.5-5.4h-2c-3 0-5.5 2.4-5.5 5.4v30.9c0 3 2.5 5.4 5.5 5.4z"/></g><g style="mix-blend-mode:screen"><path class="B" d="m931.1 1057.8h2c3 0 5.5-2.4 5.5-5.4v-2c0-3.1-2.5-5.5-5.5-5.5h-2c-3 0-5.5 2.4-5.5 5.5v2c0 3 2.5 5.4 5.5 5.4z"/></g><path class="u" d="m347.3 1214.7h-47c-5.7 0-10.4-4.6-10.4-10.3v-30h67.8v30c0 5.7-4.6 10.3-10.4 10.3z"/><g style="mix-blend-mode:multiply"><path class="C" d="m289.9 1193.5v9.6c0 6.4 5.2 11.6 11.7 11.6h44.4c6.5 0 11.7-5.2 11.7-11.6v-9.6z"/></g><g style="mix-blend-mode:multiply"><path class="C" d="m349.4 1193.5c0 5.7-4.6 10.3-10.3 10.3-5.6 0-10.2-4.6-10.2-10.3 0-5.7 4.6-10.2 10.2-10.2 5.7 0 10.3 4.5 10.3 10.2z"/></g><path class="A" d="m278 1028.2l12.2 146.2h67.5l12.2-146.2z"/><g style="mix-blend-mode:multiply"><path class="C" d="m279 1040.7h89.9l1-12.5h-91.9z"/></g><path class="u" d="m365.6 1080h-56.1v49.6h51.9z"/><path class="w" d="m365 1086.7h-45.1v9.8h44.3z"/><g style="mix-blend-mode:multiply"><path class="C" d="m363.5 1105.2h-31.2v4.3h30.8z"/></g><path class="D" d="m539.7 1145.3h-110.1v-26.6h110.1z"/><path class="E" d="m535.5 1145.3h-101.7v5.9h101.7z"/><path class="A" d="m434 1151.2c0 27.1 7.4 51.7 39.9 63.1h21.5c32.5-11.4 39.9-36 39.9-63.1z"/><path class="D" d="m653.4 1145.3h-110.1v-26.6h110.1z"/><path class="E" d="m649.2 1145.3h-101.8v5.9h101.8z"/><path class="A" d="m547.7 1151.2c0 27.1 7.4 51.7 39.9 63.1h21.5c32.5-11.4 39.9-36 39.9-63.1z"/><path class="v" d="m596.4 811.7c-8.6-11.8-10.5-15.6-10.5-27.1h-35.5c0 11.5-1.8 15.3-10.5 27.1-8.7 11.7-10.7 17.3-10.7 27.2v39.5c0 3.9 3.1 7 6.9 7h64.1c3.8 0 7-3.1 7-7v-39.5c0-9.9-2.1-15.5-10.8-27.2z"/><path class="F" d="m593.5 813.8h-50.7c-8.6 11.5-10 16.4-10 25.1v39.5c0 1.9 1.5 3.4 3.3 3.4h64.1c1.8 0 3.3-1.5 3.3-3.4v-39.5c0-8.7-1.4-13.6-10-25.1z"/><path class="F" d="m579.4 726.4h-22.5c-6.3 0-11.4 5.1-11.4 11.4v39.3c0 6.3 5.1 11.3 11.4 11.3h22.5c6.3 0 11.4-5 11.4-11.3v-39.3c0-6.3-5.1-11.4-11.4-11.4z"/><g style="mix-blend-mode:screen"><path class="z" d="m553.9 741.1c-2.4 0-4.3-2-4.3-4.3v-0.9c0-2.4 1.9-4.3 4.3-4.3 2.3 0 4.3 1.9 4.3 4.3v0.9c0 2.3-2 4.3-4.3 4.3z"/></g><g style="mix-blend-mode:screen"><path class="z" d="m553.9 765.6c-2.4 0-4.3-1.9-4.3-4.3v-14.6c0-2.4 1.9-4.3 4.3-4.3 2.3 0 4.3 1.9 4.3 4.3v14.6c0 2.4-2 4.3-4.3 4.3z"/></g><g style="mix-blend-mode:multiply"><path class="x" d="m600.6 860.9h-35.8c-2.9 0-5.3-2.4-5.3-5.3v-12.4c0-2.9 2.4-5.2 5.3-5.2h35.8c2.9 0 5.3 2.3 5.3 5.2v12.4c0 2.9-2.4 5.3-5.3 5.3z"/></g><path class="G" d="m601.9 859.5h-35.8c-2.9 0-5.3-2.4-5.3-5.3v-12.4c0-2.9 2.4-5.2 5.3-5.2h35.8c2.9 0 5.2 2.3 5.2 5.2v12.4c0 2.9-2.3 5.3-5.2 5.3z"/><g style="mix-blend-mode:multiply"><path class="x" d="m587.5 841.1h-24.8v4.3h24.8z"/></g><g style="mix-blend-mode:multiply"><path class="x" d="m604.5 849.2h-41.8v1.6h41.8z"/></g><path class="v" d="m2041.2 465.4c-8.6-11.7-10.5-15.6-10.5-27.1h-35.5c0 11.5-1.8 15.4-10.5 27.1-8.7 11.7-10.7 17.4-10.7 27.3v39.5c0 3.8 3.1 6.9 6.9 6.9h64.1c3.8 0 7-3.1 7-6.9v-39.5c0-9.9-2.1-15.6-10.8-27.3z"/><path class="F" d="m2038.3 467.6h-50.7c-8.6 11.5-10 16.3-10 25.1v39.5c0 1.8 1.5 3.3 3.3 3.3h64.1c1.8 0 3.3-1.5 3.3-3.3v-39.5c0-8.8-1.4-13.6-10-25.1z"/><path class="F" d="m2024.2 380.2h-22.5c-6.3 0-11.4 5-11.4 11.3v39.3c0 6.3 5.1 11.4 11.4 11.4h22.5c6.3 0 11.4-5.1 11.4-11.4v-39.3c0-6.3-5.1-11.3-11.4-11.3z"/><g style="mix-blend-mode:screen"><path class="z" d="m1998.7 394.8c-2.4 0-4.3-1.9-4.3-4.3v-0.9c0-2.4 1.9-4.3 4.3-4.3 2.3 0 4.3 1.9 4.3 4.3v0.9c0 2.4-2 4.3-4.3 4.3z"/></g><g style="mix-blend-mode:screen"><path class="z" d="m1998.7 419.3c-2.4 0-4.3-1.9-4.3-4.2v-14.7c0-2.3 1.9-4.2 4.3-4.2 2.3 0 4.3 1.9 4.3 4.2v14.7c0 2.3-2 4.2-4.3 4.2z"/></g><g style="mix-blend-mode:multiply"><path class="x" d="m2045.4 514.6h-35.8c-2.9 0-5.3-2.3-5.3-5.2v-12.4c0-2.9 2.4-5.3 5.3-5.3h35.8c2.9 0 5.3 2.4 5.3 5.3v12.4c0 2.9-2.4 5.2-5.3 5.2z"/></g><path class="G" d="m2046.7 513.2h-35.8c-2.9 0-5.3-2.3-5.3-5.2v-12.5c0-2.8 2.4-5.2 5.3-5.2h35.8c2.9 0 5.2 2.4 5.2 5.2v12.5c0 2.9-2.3 5.2-5.2 5.2z"/><g style="mix-blend-mode:multiply"><path class="x" d="m2032.3 494.8h-24.8v4.3h24.8z"/></g><g style="mix-blend-mode:multiply"><path class="x" d="m2049.3 502.9h-41.8v1.7h41.8z"/></g><path class="v" d="m2110.3 465.4c-8.6-11.7-10.5-15.6-10.5-27.1h-35.5c0 11.5-1.8 15.4-10.5 27.1-8.7 11.7-10.7 17.4-10.7 27.3v39.5c0 3.8 3.1 6.9 6.9 6.9h64.1c3.8 0 6.9-3.1 6.9-6.9v-39.5c0-9.9-2-15.6-10.7-27.3z"/><path class="F" d="m2107.4 467.6h-50.7c-8.6 11.5-10 16.3-10 25.1v39.5c0 1.8 1.5 3.3 3.3 3.3h64.1c1.8 0 3.3-1.5 3.3-3.3v-39.5c0-8.8-1.4-13.6-10-25.1z"/><path class="F" d="m2093.3 380.2h-22.5c-6.3 0-11.4 5-11.4 11.3v39.3c0 6.3 5.1 11.4 11.4 11.4h22.5c6.3 0 11.4-5.1 11.4-11.4v-39.3c0-6.3-5.1-11.3-11.4-11.3z"/><g style="mix-blend-mode:screen"><path class="z" d="m2067.8 394.8c-2.4 0-4.3-1.9-4.3-4.3v-0.9c0-2.4 1.9-4.3 4.3-4.3 2.3 0 4.3 1.9 4.3 4.3v0.9c0 2.4-2 4.3-4.3 4.3z"/></g><g style="mix-blend-mode:screen"><path class="z" d="m2067.8 419.3c-2.4 0-4.3-1.9-4.3-4.2v-14.7c0-2.3 1.9-4.2 4.3-4.2 2.3 0 4.3 1.9 4.3 4.2v14.7c0 2.3-2 4.2-4.3 4.2z"/></g><g style="mix-blend-mode:multiply"><path class="x" d="m2114.5 514.6h-35.8c-2.9 0-5.3-2.3-5.3-5.2v-12.4c0-2.9 2.4-5.3 5.3-5.3h35.8c2.9 0 5.3 2.4 5.3 5.3v12.4c0 2.9-2.4 5.2-5.3 5.2z"/></g><path class="G" d="m2115.8 513.2h-35.9c-2.8 0-5.2-2.3-5.2-5.2v-12.5c0-2.8 2.4-5.2 5.2-5.2h35.9c2.9 0 5.2 2.4 5.2 5.2v12.5c0 2.9-2.3 5.2-5.2 5.2z"/><g style="mix-blend-mode:multiply"><path class="x" d="m2101.4 494.8h-24.8v4.3h24.8z"/></g><g style="mix-blend-mode:multiply"><path class="x" d="m2118.4 502.9h-41.8v1.7h41.8z"/></g><path class="v" d="m754.7 811.7c-8.7-11.8-10.5-15.6-10.5-27.1h-35.6c0 11.5-1.8 15.3-10.5 27.1-8.7 11.7-10.7 17.3-10.7 27.2v39.5c0 3.9 3.1 7 7 7h64c3.9 0 7-3.1 7-7v-39.5c0-9.9-2-15.5-10.7-27.2z"/><path class="F" d="m751.8 813.8h-50.8c-8.5 11.5-10 16.4-10 25.1v39.5c0 1.9 1.5 3.4 3.4 3.4h64c1.9 0 3.4-1.5 3.4-3.4v-39.5c0-8.7-1.5-13.6-10-25.1z"/><path class="F" d="m737.7 726.4h-22.6c-6.2 0-11.3 5.1-11.3 11.4v39.3c0 6.3 5.1 11.3 11.3 11.3h22.6c6.3 0 11.3-5 11.3-11.3v-39.3c0-6.3-5-11.4-11.3-11.4z"/><g style="mix-blend-mode:screen"><path class="z" d="m712.1 741.1c-2.4 0-4.3-2-4.3-4.3v-0.9c0-2.4 1.9-4.3 4.3-4.3 2.4 0 4.3 1.9 4.3 4.3v0.9c0 2.3-1.9 4.3-4.3 4.3z"/></g><g style="mix-blend-mode:screen"><path class="z" d="m712.1 765.6c-2.4 0-4.3-1.9-4.3-4.3v-14.6c0-2.4 1.9-4.3 4.3-4.3 2.4 0 4.3 1.9 4.3 4.3v14.6c0 2.4-1.9 4.3-4.3 4.3z"/></g><g style="mix-blend-mode:multiply"><path class="x" d="m758.9 860.9h-35.9c-2.9 0-5.2-2.4-5.2-5.3v-12.4c0-2.9 2.3-5.2 5.2-5.2h35.9c2.9 0 5.2 2.3 5.2 5.2v12.4c0 2.9-2.3 5.3-5.2 5.3z"/></g><path class="G" d="m760.2 859.5h-35.9c-2.9 0-5.2-2.4-5.2-5.3v-12.4c0-2.9 2.3-5.2 5.2-5.2h35.9c2.9 0 5.2 2.3 5.2 5.2v12.4c0 2.9-2.3 5.3-5.2 5.3z"/><g style="mix-blend-mode:multiply"><path class="x" d="m745.7 841.1h-24.7v4.3h24.7z"/></g><g style="mix-blend-mode:multiply"><path class="x" d="m762.8 849.2h-41.8v1.6h41.8z"/></g><path class="v" d="m890.7 811.7c-8.7-11.8-10.5-15.6-10.5-27.1h-35.6c0 11.5-1.8 15.3-10.5 27.1-8.7 11.7-10.7 17.3-10.7 27.2v39.5c0 3.9 3.1 7 6.9 7h64.1c3.8 0 7-3.1 7-7v-39.5c0-9.9-2.1-15.5-10.7-27.2z"/><path class="F" d="m887.8 813.8h-50.8c-8.6 11.5-10 16.4-10 25.1v39.5c0 1.9 1.5 3.4 3.3 3.4h64.1c1.8 0 3.4-1.5 3.4-3.4v-39.5c0-8.7-1.5-13.6-10-25.1z"/><g style="mix-blend-mode:multiply"><path class="x" d="m852.9 885.4h41.5c3.8 0 7-3.1 7-7v-39.5c0-9.9-2.1-15.5-10.7-27.2-8.7-11.8-10.5-15.6-10.5-27.1h-25.2l-10.5 4.1q0 0.1 0 0.2c2.2 1.2 21.6 2.3 21.6 3.1 1.9 14 7 27.2 11.8 37.7 4.7 10 4.6 44.4-25 55.7z"/></g><path class="F" d="m873.7 726.4h-22.6c-6.3 0-11.4 5.1-11.4 11.4v39.3c0 6.3 5.1 11.3 11.4 11.3h22.6c6.2 0 11.3-5 11.3-11.3v-39.3c0-6.3-5.1-11.4-11.3-11.4z"/><g style="mix-blend-mode:screen"><path class="z" d="m848.1 741.1c-2.4 0-4.3-2-4.3-4.3v-0.9c0-2.4 1.9-4.3 4.3-4.3 2.4 0 4.3 1.9 4.3 4.3v0.9c0 2.3-1.9 4.3-4.3 4.3z"/></g><g style="mix-blend-mode:screen"><path class="z" d="m848.1 765.6c-2.4 0-4.3-1.9-4.3-4.3v-14.6c0-2.4 1.9-4.3 4.3-4.3 2.4 0 4.3 1.9 4.3 4.3v14.6c0 2.4-1.9 4.3-4.3 4.3z"/></g><g style="mix-blend-mode:multiply"><path class="x" d="m882.4 726.4h-7.6c1.7 25-11.2 51.5-16.9 62h24.5c1.4 0 2.6-1.1 2.6-2.6v-56.8c0-1.4-1.2-2.6-2.6-2.6z"/></g><g style="mix-blend-mode:multiply"><path class="x" d="m894.8 860.9h-35.8c-2.9 0-5.2-2.4-5.2-5.3v-12.4c0-2.9 2.3-5.2 5.2-5.2h35.8c2.9 0 5.3 2.3 5.3 5.2v12.4c0 2.9-2.4 5.3-5.3 5.3z"/></g><path class="G" d="m896.1 859.5h-35.8c-2.9 0-5.3-2.4-5.3-5.3v-12.4c0-2.9 2.4-5.2 5.3-5.2h35.8c2.9 0 5.3 2.3 5.3 5.2v12.4c0 2.9-2.4 5.3-5.3 5.3z"/><g style="mix-blend-mode:multiply"><path class="x" d="m881.7 841.1h-24.8v4.3h24.8z"/></g><g style="mix-blend-mode:multiply"><path class="x" d="m898.7 849.2h-41.8v1.6h41.8z"/></g><path class="A" d="m657.5 885.1h-52.3c-10.5 0-19-8.5-19-18.9v-14.9c0-10.5 8.5-19 19-19h52.3c10.5 0 19 8.5 19 19v14.9c0 10.4-8.5 18.9-19 18.9z"/><path class="H" d="m657 819.2h-51.3c-3.6 0-6.6 2.9-6.6 6.6 0 3.6 3 6.5 6.6 6.5h51.3c3.6 0 6.6-2.9 6.6-6.5 0-3.7-3-6.6-6.6-6.6z"/><g style="mix-blend-mode:screen"><path class="z" d="m614.8 827h-9.7c-1.6 0-2.8-1.3-2.8-2.8 0-1.5 1.2-2.8 2.8-2.8h9.7c1.5 0 2.8 1.3 2.8 2.8 0 1.5-1.3 2.8-2.8 2.8z"/></g><g style="mix-blend-mode:screen"><path class="z" d="m621.3 827c-1.5 0-2.8-1.3-2.8-2.8 0-1.5 1.3-2.8 2.8-2.8 1.6 0 2.8 1.3 2.8 2.8 0 1.5-1.2 2.8-2.8 2.8z"/></g><path class="u" d="m636.7 874.2h-34.2c-6 0-10.8-4.8-10.8-10.7v-10.7c0-5.9 4.8-10.7 10.8-10.7h34.2c6 0 10.8 4.8 10.8 10.7v10.7c0 5.9-4.8 10.7-10.8 10.7z"/><g style="mix-blend-mode:multiply"><path class="x" d="m669 832.3h-7.9c1.4-0.2 2.5-1.4 2.5-2.8v-7.4c0-1.6-1.3-2.9-2.9-2.9h-18.2q-0.2 0.1-0.2 0.1c1 7-3.9 13-3.9 13h8.3c0.1 7.8-2.4 40.2-28.2 52.8h50.5c4.1 0 7.5-3.3 7.5-7.4v-37.9c0-4.2-3.4-7.5-7.5-7.5z"/></g><g style="mix-blend-mode:screen"><path class="B" d="m600.5 880.7c-2.8 0-5.1-2.2-5.1-5.1v-22.7c0-2.8 2.3-5.1 5.1-5.1 2.8 0 5.1 2.3 5.1 5.1v22.7c0 2.9-2.3 5.1-5.1 5.1z"/></g><g style="mix-blend-mode:screen"><path class="B" d="m600.5 845.6c-2.8 0-5.1-2.3-5.1-5.1 0-2.8 2.3-5.1 5.1-5.1 2.8 0 5.1 2.3 5.1 5.1 0 2.8-2.3 5.1-5.1 5.1z"/></g><path class="e" d="m668.1 660.1c-43.3 0-78.5-35.1-78.5-78.5v-118.6h157v118.6c0 43.4-35.1 78.5-78.5 78.5z"/><path class="i" d="m1371.7 1470.4l5.3 31.6c-6.6 17.4-3.7 39.4-3.7 39.4l129.3 0.1c-14-26.2-74.6-28.1-81-40.7-6.4-12.5-9.2-49.6-9.2-49.6z"/><path class="h" d="m1400.8 1503.7c-0.2-4.5 3.1-20.8 14.8-25.7 1.5 8.9 3.5 17.8 6 22.8 6.4 12.6 67 14.5 81 40.7l-129.3-0.1c0 0-2.9-22 3.7-39.4 0 0 23.4 9.9 23.8 1.7z"/><path class="I" d="m1499.1 1536.5c1.4 1.6 2.6 3.2 3.5 5l-129.3-0.1c0 0-0.2-1.9-0.4-5.1z"/><path class="I" d="m1412.2 1507c0.3 0 0.5-0.2 0.7-0.5 0 0 1.9-5.3 5.7-6.9q2.3-1.1 5 0.1c0.4 0.1 0.8 0 0.9-0.4 0.2-0.4 0-0.8-0.3-1q-3.3-1.4-6.2-0.1c-4.4 1.9-6.5 7.6-6.6 7.8-0.1 0.4 0.1 0.9 0.5 1q0.1 0 0.3 0z"/><path class="I" d="m1424.4 1515.6c0.3 0 0.6-0.2 0.7-0.5 0 0 1.9-5.3 5.7-6.9q2.3-1.1 5 0.1c0.4 0.1 0.8-0.1 1-0.4 0.1-0.4-0.1-0.9-0.4-1q-3.3-1.4-6.2-0.1c-4.4 1.9-6.4 7.6-6.5 7.8-0.2 0.4 0 0.8 0.4 1q0.2 0 0.3 0z"/><path class="I" d="m1444.5 1521.3c0.2 0 0.5-0.2 0.6-0.5 0 0 2-5.3 5.7-6.9q2.4-1.1 5 0.1c0.4 0.1 0.9 0 1-0.4 0.2-0.4 0-0.8-0.4-1q-3.2-1.4-6.2-0.1c-4.3 1.9-6.4 7.6-6.5 7.8-0.1 0.4 0.1 0.9 0.5 1q0.1 0 0.3 0z"/><path class="i" d="m1203.8 1470.4l5.3 31.6c-6.6 17.4-3.7 39.4-3.7 39.4l129.3 0.1c-14-26.2-74.6-28.1-81-40.7-6.4-12.5-9.2-49.6-9.2-49.6z"/><path class="h" d="m1232.8 1503.7c-0.2-4.5 3.2-20.8 14.9-25.7 1.5 8.9 3.4 17.8 6 22.8 6.4 12.6 67 14.5 81 40.7l-129.3-0.1c0 0-2.9-22 3.7-39.4 0 0 23.3 9.9 23.7 1.7z"/><path class="I" d="m1331.2 1536.5c1.3 1.6 2.5 3.2 3.5 5l-129.3-0.1c0 0-0.3-1.9-0.5-5.1z"/><path class="I" d="m1244.2 1507c0.3 0 0.6-0.2 0.7-0.5 0 0 2-5.3 5.7-6.9q2.4-1.1 5 0.1c0.4 0.1 0.9 0 1-0.4 0.2-0.4 0-0.8-0.4-1q-3.2-1.4-6.2-0.1c-4.3 1.9-6.4 7.6-6.5 7.8-0.1 0.4 0.1 0.9 0.5 1q0.1 0 0.2 0z"/><path class="I" d="m1256.5 1515.6c0.3 0 0.5-0.2 0.6-0.5 0.1 0 2-5.3 5.7-6.9q2.4-1.1 5.1 0.1c0.3 0.1 0.8-0.1 0.9-0.4 0.2-0.4 0-0.9-0.4-1q-3.2-1.4-6.2-0.1c-4.3 1.9-6.4 7.6-6.5 7.8-0.1 0.4 0.1 0.8 0.5 1q0.1 0 0.3 0z"/><path class="I" d="m1276.5 1521.3c0.3 0 0.6-0.2 0.7-0.5 0 0 1.9-5.3 5.7-6.9q2.3-1.1 5 0.1c0.4 0.1 0.8 0 1-0.4 0.1-0.4 0-0.8-0.4-1q-3.3-1.4-6.2-0.1c-4.4 1.9-6.4 7.6-6.5 7.8-0.2 0.4 0 0.9 0.4 1q0.2 0 0.3 0z"/><path class="p" d="m1429.5 1019.4c34.5 136.1 19.4 433.1 11.6 474.8h-82c7.8-96.8-34.3-317.1-34.3-317.1-11.7 173.5-47.7 315.4-47.7 315.4h-91.7l47.5-469.1 96.9-32.8z"/><path class="u" d="m1246.5 799.9c-67 68.3-110.6 195.2 5.2 214.7 115.8 19.6-5.2-214.7-5.2-214.7z"/><path class="J" d="m1350.3 780.7c19.2 3.6 34.4 13.4 34.4 13.4 31.6 49.4 46.6 232.3 46.6 232.3l-198.4 3.2c-0.7-13.7-2.6-214.1 13.6-229.7 16.3-15.6 41.3-21.1 41.3-21.1 0 0 40.7 0.3 62.5 1.9z"/><path class="i" d="m1578.6 784.4c-1.3-4.1-10.2-30.4-10.3-33.8-0.2-3.4 8.5-32.9 9.9-35.2 1.4-2.4 14.5-18 15.1-18.2 5.4 2.1 5.2 7.3 2.9 13.1-2.3 5.9-6.1 13.1-6 14.1 0.1 1 0.1 7.5 1.3 7.3 1.3-0.2 14.4 7.7 18.1 10.6 3.7 3 6.3 9.7 5.5 17-0.7 7.3-13.5 38.8-13.5 38.8z"/><path fill-rule="evenodd" class="h" d="m1351.2 718.7v-11.3c0-1.5 1.3-2.7 2.8-2.7h14c1.5 0 2.8 1.2 2.8 2.7v11.3c0 1.5-1.3 2.8-2.8 2.8h-14c-1.5 0-2.8-1.3-2.8-2.8zm2.8-12.4c-0.6 0-1.1 0.5-1.1 1.1v11.3c0 0.6 0.5 1.1 1.1 1.1h14c0.6 0 1.1-0.5 1.1-1.1v-11.3c0-0.6-0.5-1.1-1.1-1.1z"/><path class="h" d="m1358 707c13.5-9.9 5.7-22.3 3.3-22.7-0.8-11.3-15.1-32.2-52.9-9.7-1.6-7.2-7.2-7.2-4.8 1.6-6.5-1.6-7.7 3.6-5.6 4.8-18.1 15.3-13.7 29.4-10.1 33-2.4 13.7 13.7 21.5 13.7 21.5 6.4-0.6 23.7 13.1 28.5 9.9 4.8-3.3 18.1-10.2 19.5-16.8 1.4-6.6 8.4-21.6 8.4-21.6z"/><path class="K" d="m1367 727.4c0 0.1-0.3 0.2-0.8 0.2 0-0.1-0.1-0.5-0.4-1 0.5-0.1 0.8 0.2 0.9 0.2q0.4 0.5 0.3 0.6zm-0.3-0.6c-0.1 0-0.4-0.3-0.9-0.2-1.1-1.9-4-5.5-6.3-8q0.6 0.7 1.3 1.4c2.5 2.7 5 5.5 5.9 6.8zm-0.5 0.8c-2.8 0.5-10.9 0.9-10.9 0.9q0-3 0-5.4c0 0 7.8 3.6 10.5 3.5 0.3 0.5 0.4 0.9 0.4 1zm-0.4-1c-2.7 0.1-10.5-3.5-10.5-3.5 0-5.7 0-8.9 0-8.9 0 0 1.9 2 4.2 4.4 2.3 2.5 5.2 6.1 6.3 8z"/><path class="i" d="m1301.6 735.5c0 0-1.1 36.7-13.8 43.3 8.2 10.1 45.3 1 62.5 1.9-8.4 0-10.4-8.9-10.4-17.3 20.3-3.5 18.3-19.5 19.5-42.8 0.6-11.1 1.4-22.4 0.1-31-2.1 9.7-16.9 14.8-16.9 14.8 1.8 8.2-1.4 18.5-9.9 17.6-8.4-0.8-10.4 1.9-10.4 1.9 1.2 9.4-11.2 13.5-20.7 11.6z"/><path class="l" d="m1356.7 728.8c-0.6 4.3-4.7 7.2-9.2 6.6-4.5-0.7-7.6-4.6-7-8.9 0.6-4.3 4.7-7.2 9.2-6.6 4.5 0.7 7.6 4.6 7 8.9z"/><path class="n" d="m1338.7 721.7c-0.7 3.5-4 5.8-7.5 5.2-3.4-0.7-5.7-4-5.1-7.4 0.6-3.5 4-5.8 7.4-5.2 3.5 0.6 5.8 4 5.2 7.4z"/><g style="mix-blend-mode:multiply"><path fill-rule="evenodd" class="k" d="m1336.9 721.4c-0.3 1.5-1.3 2.7-2.6 3.3q-0.1 0.1-0.1 0-0.2 0-0.2-0.1c-0.1-0.1 0-0.3 0.1-0.4 1.1-0.5 1.9-1.5 2.2-2.6-0.6 0.8-1.7 1.2-2.7 1.1-1.5-0.3-2.5-1.7-2.2-3.2 0.3-1.5 1.7-2.5 3.2-2.2q0 0 0.1 0-0.7-0.5-1.6-0.6c-1.2-0.3-2.4 0.1-3.4 0.9-0.1 0.1-0.2 0.1-0.3 0-0.1-0.1-0.1-0.3 0-0.4 1-0.9 2.4-1.3 3.8-1.1 2.5 0.5 4.1 2.8 3.7 5.3zm-0.7-1c0.2-1.2-0.6-2.4-1.7-2.6-1.2-0.2-2.4 0.6-2.6 1.8-0.2 1.2 0.6 2.3 1.8 2.5 1.2 0.2 2.3-0.5 2.5-1.7z"/></g><path class="l" d="m1339.1 762.3c-8.1-14.7-8.8-28.4-8.8-28.4-3.1 24.5 9.2 52.9 8.8 28.4z"/><path class="h" d="m1339.8 715.9l30.2-1.3-0.1-1.7-30.2 1.3z"/><path class="u" d="m1374.6 790.7c22.9-1 63 24 90.8 37.4 27.8 13.3 91.6 1.6 105.4-59.7 3 0.7 33.9 28.9 33.9 28.9 7 28.4-16.7 94.3-80.1 123.1-63.3 28.8-125.4-17.3-138.4-34.8-22.7-30.6-25.5-78.6-11.6-94.9z"/><g style="mix-blend-mode:multiply"><path class="L" d="m1503.2 847.3c0.3 0 0.6-0.2 0.7-0.5 0.3-2.2-0.4-6-1.1-9.1-0.2-1.1-0.5-2.5-0.5-3.3 1.1 0.8 3.6 3.4 3.5 4.7 0 0.4 0.3 0.7 0.6 0.7 0.4 0 0.7-0.3 0.7-0.6 0-1.7-2-4-3.2-5-1.5-1.3-2-1.2-2.2-1.2-0.2 0-0.4 0.2-0.5 0.3-0.4 0.5-0.2 1.3 0.4 4.6 0.6 2.9 1.4 6.7 1 8.7 0 0.3 0.2 0.6 0.5 0.7q0.1 0 0.1 0z"/></g><g style="mix-blend-mode:multiply"><path class="M" d="m1322.2 1165.3q0.2 0 0.3 0c0.5-0.2 0.7-0.7 0.5-1.1-1.4-3.4-3.1-11.9-5-21.8-4-20.7-8.9-46.6-16.2-50.2-10.2-5.1-16.4-41.1-10-58.4 0.1-0.4-0.1-0.9-0.5-1.1-0.5-0.1-0.9 0.1-1.1 0.5-6.7 18.3-0.1 55 10.8 60.5 6.6 3.3 11.7 29.7 15.4 49 1.9 10 3.6 18.6 5 22.1 0.2 0.3 0.5 0.5 0.8 0.5z"/></g><g style="mix-blend-mode:multiply"><path class="M" d="m1427.2 1469c0.4 0 0.8-0.4 0.8-0.8 0.2-3 19.6-295.8-12.1-434-0.2-0.5-0.6-0.7-1-0.6-0.5 0.1-0.8 0.5-0.7 1 31.7 137.9 12.4 430.5 12.2 433.5-0.1 0.4 0.3 0.8 0.7 0.9q0.1 0 0.1 0z"/></g><g style="mix-blend-mode:multiply"><path class="M" d="m1438.5 1478.5c0.4 0 0.8-0.4 0.8-0.8 0-0.5-0.4-0.9-0.8-0.9l-70.3-0.8c-0.5 0-0.8 0.3-0.8 0.8 0 0.5 0.3 0.8 0.8 0.8l70.3 0.9q0 0 0 0z"/></g><g style="mix-blend-mode:multiply"><path class="M" d="m1275.4 1475c0.4 0 0.8-0.3 0.8-0.8 0-0.4-0.4-0.8-0.8-0.8l-79.8-1.8c-0.5 0-0.9 0.4-0.9 0.8 0 0.5 0.4 0.9 0.8 0.9l79.9 1.7q0 0 0 0z"/></g><path class="h" d="m947.3 753.7c-21.6 3.7-34.2-16.4-27.9-32.2-1.7-32.4 12.1-64.3 60.6-47 24.1 3 33.4 35 13.5 43.2-26.3 23.4-46.2 36-46.2 36z"/><path class="i" d="m966.7 766.1c-1.6 9 1.4 16.4 14.2 25.1-0.4 40.7-61.1 12.1-60.9 6 0-0.7 9.2-13.4 13.1-20.4 4-6.9 5.9-24.6 4.4-48.4 9.2 2.5 12.4-4.9 12.6-17.5 0.2-12.6 6.2-32.8 30.7-29.6 9.2 11.3 14.1 18.5 13.4 33.2-0.8 14.7 0.8 25.1-0.9 32.1-1.8 7-9.3 19.9-26.6 19.5z"/><path class="l" d="m949.5 737.1c0 4.3 3.7 7.9 8.3 7.9 4.6 0 8.4-3.6 8.4-7.9 0-4.4-3.8-8-8.4-8-4.6 0-8.3 3.6-8.3 8z"/><path class="N" d="m980.7 737.9c0 0 1-0.9 2.2-2 0.6-1.2 2.1-2.9 2.8-3.9-1.4 0.1-5.6 0.8-7 0.3-0.8 1.8-0.4 4.4 2 5.6zm-2-5.6c1.4 0.5 5.6-0.2 7-0.3 0.3-0.3 0.5-0.6 0.6-0.7-1.5 0-4.7 0.2-6.4-0.5-0.5 0.3-0.9 0.8-1.2 1.5zm4.2 3.6q0.6-0.6 1.2-1.1c1.1-1.1 2.3-2.3 2.7-2.9-0.1 0-0.6 0.1-1.1 0.1-0.7 1-2.2 2.7-2.8 3.9zm2.8-3.9c0.5 0 1-0.1 1.1-0.1q0.3-0.3 0.3-0.4c-0.1-0.1-0.4-0.1-0.8-0.2-0.1 0.1-0.3 0.4-0.6 0.7z"/><g style="mix-blend-mode:multiply"><path class="k" d="m964.3 743.2c9.3-2.8 19.5-2.1 20.5 0.9-5.1 2.8-16.4 0.8-20.5-0.9z"/></g><path class="h" d="m953 711.9c-0.2 0-0.4 0-0.5-0.2-0.1-0.2 0-0.5 0.2-0.7 6.3-3.5 13.8-3.8 16.9-2.9 0.2 0.1 0.4 0.4 0.3 0.6-0.1 0.3-0.4 0.4-0.6 0.3-2.5-0.7-9.9-0.7-16.1 2.9q-0.1 0-0.2 0z"/><path class="h" d="m992.3 712.4q-0.3 0-0.4-0.1c-0.1-0.2-2-2.6-8.2-1.9-0.3 0.1-0.5-0.1-0.6-0.4 0-0.3 0.2-0.5 0.5-0.5 6.6-0.9 8.8 1.9 9.1 2.2 0.1 0.2 0.1 0.5-0.1 0.6q-0.2 0.1-0.3 0.1z"/><path class="h" d="m981.1 738.1q-0.2 0-0.4-0.2c-0.1-0.2-0.1-0.5 0.1-0.7 2.5-2 5.3-4.4 5.9-5.3-0.5 0-1.4-0.1-2.1-0.1-1.7 0-3.7 0-4.9-0.7-2.5-1.4-0.1-12.3 2.2-17.4 0.1-0.3 0.4-0.4 0.7-0.3 0.2 0.1 0.3 0.4 0.2 0.6-2.6 6-4.1 15.4-2.6 16.3 1 0.5 2.9 0.5 4.4 0.6 2 0 3.1 0 3.1 0.9 0 0.9-3.4 3.9-6.3 6.2q-0.1 0.1-0.3 0.1z"/><path class="h" d="m977.1 746c-4.6 0-10.2-0.7-13.5-2.3-0.3-0.1-0.4-0.4-0.3-0.7 0.2-0.2 0.4-0.3 0.7-0.2 5.7 2.8 18.3 2.6 20.8 1.3 0.2-0.2 0.5-0.1 0.6 0.2 0.1 0.2 0.1 0.5-0.2 0.6-1.2 0.7-4.3 1.1-8.1 1.1z"/><g style="mix-blend-mode:multiply"><path class="k" d="m974.8 755.4c-1.9 0-3.8-0.3-5.3-1.3-0.3-0.1-0.3-0.4-0.2-0.6 0.2-0.3 0.5-0.3 0.7-0.2 3.4 2.3 9.6 0.6 10.2 0.2 0.2-0.2 0.6-0.1 0.7 0.1 0.2 0.2 0.1 0.5-0.1 0.6-0.5 0.5-3.2 1.2-6 1.2z"/></g><path class="h" d="m966.5 721.9c0 2.9-1.3 5.2-3 5.2-1.6 0-2.9-2.3-2.9-5.2 0-2.8 1.3-5.2 2.9-5.2 1.7 0 3 2.4 3 5.2z"/><g style="mix-blend-mode:multiply"><path class="k" d="m962.9 728.9c-1 0-3.2-0.5-4-4.1 0-0.2 0.1-0.3 0.2-0.3 0.2 0 0.3 0 0.3 0.2 0.7 3.5 2.8 3.7 3.7 3.7 0.2 0 0.3 0.1 0.3 0.2 0 0.1-0.1 0.2-0.2 0.2q-0.2 0.1-0.3 0.1z"/></g><path class="h" d="m988.6 722.5c0 2.9-1.3 5.2-2.9 5.2-1.7 0-3-2.3-3-5.2 0-2.8 1.3-5.1 3-5.1 1.6 0 2.9 2.3 2.9 5.1z"/><g style="mix-blend-mode:multiply"><path class="k" d="m985 729.5c-1 0-3.2-0.4-3.9-4.1-0.1-0.1 0-0.3 0.1-0.3 0.2 0 0.3 0.1 0.3 0.2 0.7 3.6 2.8 3.8 3.7 3.7 0.2 0 0.3 0.1 0.3 0.2 0 0.1-0.1 0.3-0.2 0.3q-0.1 0-0.3 0z"/></g><path class="n" d="m940.4 733.2c0 5.1-4.2 9.2-9.2 9.2-5.1 0-9.2-4.1-9.2-9.2 0-5.1 4.1-9.2 9.2-9.2 5 0 9.2 4.1 9.2 9.2z"/><g style="mix-blend-mode:multiply"><path fill-rule="evenodd" class="k" d="m937.7 733.2c0 2.1-1 4.1-2.7 5.4q-0.1 0-0.3 0-0.2 0-0.3-0.1c-0.1-0.2-0.1-0.5 0.1-0.6 1.4-1 2.3-2.6 2.4-4.3-0.6 1.3-1.9 2.2-3.5 2.2-2.2 0-3.9-1.7-3.9-3.9 0-2.2 1.7-3.9 3.9-3.9q0.1 0 0.2 0c-0.7-0.3-1.5-0.6-2.4-0.6-1.8 0-3.5 0.8-4.6 2.2-0.1 0.2-0.3 0.2-0.5 0.1-0.2-0.1-0.2-0.4-0.1-0.5 1.3-1.6 3.2-2.5 5.2-2.5 3.6 0 6.5 2.9 6.5 6.5zm-1.2-1.3c0-1.7-1.4-3.1-3.1-3.1-1.7 0-3.2 1.4-3.2 3.1 0 1.7 1.5 3.1 3.2 3.1 1.7 0 3.1-1.4 3.1-3.1z"/></g><path class="l" d="m965.4 766c-16.7-4.1-23.4-18.7-24.3-23.5 3.3 29.4 20.3 48.8 24.3 23.5z"/><path class="i" d="m861 1505.9c3.2-6.5 6.7-18.8 5.8-36.5-0.9-6.6-2-15-3.3-24.5-0.6-4.8-1.3-9.9-2-15.2l31.7 8.5c-0.5 5.7-1 11.1-1.5 16-1 10.4-0.7 20.9 1.2 31.2 0.6 3.1 1.2 5.8 1.9 7.2 2.5 5.1 20.7 22.8 29.1 38 0.7 1.8 19.5 4.8 16.7 9.1-1.7 1-34.5 3.5-38.2 0-3.6-3.5-12.4-12.3-22.1-14.3-0.6 0.1-0.6 15.9-0.6 15.9l-14.2 0.1c0 0-1.7-14.1-2.3-18.3-0.6-4.2-5.5-10.7-2.2-17.2z"/><path class="h" d="m924 1530.8c-6 0.6-12.5 1.9-14.8 0.9-3-1.3-23.3-26.4-45.5-32.6-0.9 2.7-1.8 5-2.7 6.8-3.3 6.5 1.6 13 2.2 17.2 0.6 4.2 2.3 18.3 2.3 18.3l14.2-0.1c0 0 0-15.8 0.6-15.9 9.7 2 18.5 10.8 22.1 14.3 3.7 3.5 36.5 1 38.2 0 2.8-4.2-14.9-7-16.6-8.9z"/><path class="i" d="m1012.2 1505.9c3.3-6.5 6.7-18.8 5.9-36.5-0.9-6.6-2.1-15-3.3-24.5-0.7-4.8-1.3-9.9-2-15.2l31.7 8.5c-0.6 5.7-1.1 11.1-1.5 16-1 10.4-0.7 20.9 1.2 31.2 0.5 3.1 1.2 5.8 1.9 7.2 2.5 5.1 20.7 22.8 29 38 0.8 1.8 19.6 4.8 16.8 9.1-1.7 1-34.5 3.5-38.2 0-3.7-3.5-12.4-12.3-22.2-14.3-0.6 0.1-0.6 15.9-0.6 15.9l-14.2 0.1c0 0-1.6-14.1-2.3-18.3-0.6-4.2-5.4-10.7-2.2-17.2z"/><path class="h" d="m1075.2 1530.8c-5.9 0.6-12.4 1.9-14.7 0.9-3.1-1.3-23.3-26.4-45.6-32.6-0.8 2.7-1.8 5-2.7 6.8-3.2 6.5 1.6 13 2.2 17.2 0.7 4.2 2.3 18.3 2.3 18.3l14.2-0.1c0 0 0-15.8 0.6-15.9 9.8 2 18.5 10.8 22.2 14.3 3.7 3.5 36.5 1 38.2 0 2.7-4.2-15-7-16.7-8.9z"/><g style="mix-blend-mode:multiply"><path class="M" d="m1056.6 1476.9c0.4 0 0.8-0.3 0.8-0.7 0-0.4-0.4-0.8-0.8-0.8l-63-0.8c-0.4 0-0.7 0.4-0.7 0.8 0 0.4 0.3 0.7 0.7 0.7l63 0.8q0 0 0 0z"/></g><g style="mix-blend-mode:multiply"><path class="M" d="m910.4 1473.8c0.4 0 0.7-0.3 0.7-0.7 0-0.4-0.3-0.8-0.7-0.8l-71.6-1.5c-0.4-0.1-0.7 0.3-0.7 0.7 0 0.4 0.3 0.7 0.7 0.7l71.6 1.6q0 0 0 0z"/></g><path class="g" d="m907.3 798.1c-46.9 16.6-71.7 131.2-66.3 154.7 5.5 23.4 61.8 22 92.9 1.8 31.1-20.3-26.6-156.5-26.6-156.5z"/><path class="o" d="m978 788.3c15.1 4 23.5 13.5 23.5 13.5 0 0 50.4 42.8 37.6 65.8-12.9 23-16.2 73.7-16.2 73.7l-102.1 1.3c0-3.4-27.7-56.8-32.4-83.8-4.8-27 7.2-62 33.3-67.8 26.1-5.9 56.3-2.7 56.3-2.7z"/><path class="h" d="m1024.9 959.5h-103.6v-18h103.6z"/><path class="g" d="m1001.5 801.8c29.3 10.8 59.4 73.9 75.2 73 15.8-0.9 50.5-34.7 50.5-34.7l14.9 16.2c0 23.5-23 104.1-67.2 110.4-44.1 6.3-87.5-60-94.6-99.1-9.5-51.8 21.2-65.8 21.2-65.8z"/><g style="mix-blend-mode:multiply"><path class="L" d="m1079.1 890.5c0.4 0 0.6-0.2 0.7-0.5 0.3-2.3-0.7-6.3-1.4-9.4-0.3-1.2-0.6-2.6-0.7-3.4 1.1 0.8 3.8 3.3 3.8 4.7 0 0.4 0.3 0.7 0.7 0.7 0.3 0 0.6-0.3 0.6-0.7 0-1.7-2.2-4-3.5-5-1.6-1.3-2.1-1.2-2.3-1.2-0.2 0.1-0.4 0.2-0.5 0.4-0.3 0.5-0.2 1.4 0.6 4.8 0.7 2.9 1.7 6.8 1.4 8.9 0 0.4 0.2 0.7 0.6 0.7q0 0 0 0z"/></g><path class="O" d="m1007.5 961.5h7.3v-21.3h-7.3z"/><path class="O" d="m953.6 962h7.3v-21.3h-7.3z"/><path class="O" d="m924.4 961.3h7.2v-21.3h-7.2z"/><path class="i" d="m1127.2 840.1c-0.1-3.6-0.7-26.4-0.1-29.1 0.7-2.7 14.6-23.9 16.3-25.4 1.6-1.5 15.7-10.6 16.2-10.6 3.7 2.9 2.3 6.9-0.9 11-3.2 4-7.9 8.8-8.1 9.6-0.1 0.8-1.7 5.9-0.7 6.1 1.1 0.2 9.5 9.4 11.7 12.7 2.2 3.2 2.7 9.1 0.3 14.7-2.3 5.5-19.8 27.2-19.8 27.2z"/><path class="O" d="m1053.7 1065.2c0 0-0.8-34.7-28.8-105.7l-103.6-0.1c-27 40.3-40.7 88.7-45.8 137l-40.7 393.1h82.3c0 0 32.3-127.3 42.8-282.8 0 0 37.7 197.5 30.7 284.2h73.5c7-37.3 20.6-303.6-10.4-425.7z"/><g style="mix-blend-mode:multiply"><path class="L" d="m955.6 1194.2c-0.4 0-0.7-0.3-0.8-0.7-0.1-0.8-10.4-76.7-21.4-113.9-11.4-38.6-12.7-46.2 7.7-91.4 0.2-0.4 0.7-0.6 1.1-0.4 0.4 0.1 0.6 0.6 0.4 1-20.2 44.7-18.9 52.3-7.6 90.3 11 37.4 21.3 113.4 21.4 114.2 0.1 0.4-0.2 0.9-0.7 0.9q0 0-0.1 0z"/></g><g style="mix-blend-mode:multiply"><path class="L" d="m1039.6 1474.5q0 0 0 0c-0.5 0-0.8-0.3-0.8-0.8 0.1-3 7.3-299.7-32.6-498.7 0-0.5 0.2-0.9 0.7-1 0.4-0.1 0.9 0.2 1 0.6 39.8 199.3 32.6 496.2 32.5 499.1 0 0.5-0.3 0.8-0.8 0.8z"/></g><g style="mix-blend-mode:multiply"><path class="L" d="m1018.8 1018.2c-0.3 0-0.7-0.3-0.8-0.6-0.1-0.5 0.2-0.9 0.6-1.1 4.3-1.2 13.7-14 6.2-44.3-0.1-0.4 0.1-0.9 0.6-1 0.4-0.1 0.9 0.2 1 0.6 7.6 30.9-1.8 44.8-7.3 46.3q-0.2 0.1-0.3 0.1z"/></g><g style="mix-blend-mode:multiply"><path class="L" d="m914 1477.9q0 0 0 0l-73.3-0.7c-0.4 0-0.8-0.4-0.8-0.8 0-0.5 0.3-0.9 0.8-0.8l73.3 0.6c0.5 0 0.9 0.4 0.9 0.9 0 0.4-0.4 0.8-0.9 0.8z"/></g><g style="mix-blend-mode:multiply"><path class="L" d="m994.4 1478.2c-0.4 0-0.8-0.4-0.8-0.8 0-0.5 0.3-0.9 0.8-0.9l65.9-0.6q0 0 0 0c0.5 0 0.8 0.4 0.8 0.8 0 0.5-0.3 0.8-0.8 0.8l-65.9 0.7q0 0 0 0z"/></g><path class="h" d="m930.4 703.7c0 16.1-13 29.1-29.1 29.1-16.1 0-29.2-13-29.2-29.1 0-16.1 13.1-29.2 29.2-29.2 16.1 0 29.1 13.1 29.1 29.2z"/><path class="p" d="m2032.5 1474.7c20.7 58.5-5.8 98.4-5.8 98.4 0 0-45.7-14.4-66.4-72.9-20.6-58.5-1.3-118.7-1.3-118.7 0 0 52.9 34.7 73.5 93.2z"/><path class="q" d="m2032.5 1474.7c-20.6-58.5-73.5-93.2-73.5-93.2l67.7 191.6c0 0 26.5-39.9 5.8-98.4z"/><path class="q" d="m2287.6 1624.9h-2127.8c-16.6 0-30.1-13.5-30.1-30.1v-23.2c0-16.6 13.5-30 30.1-30h2127.8c16.6 0 30.1 13.4 30.1 30v23.2c0 16.6-13.5 30.1-30.1 30.1z"/><path class="P" d="m1654.5 897.4h178.1l30.9 131.4h-178.1z"/><path class="p" d="m1646.8 897.4h178.1l30.9 131.4h-178.1z"/><path class="Q" d="m1744.6 972.9h22.8v-10.3c0-5.2-4.2-9.4-9.5-9.4h-22.7v10.3c0 5.2 4.2 9.4 9.4 9.4z"/><path class="p" d="m1925.1 1040.4h-246.6v-11.6h246.6z"/><path class="e" d="m2188 562.7h-545.4v-23.2h545.4z"/><path class="f" d="m2188 562.7h-208.4v-23.2h208.4z"/></svg>