<svg version="1.2" xmlns="http://www.w3.org/2000/svg" viewBox="0 0 2656 2023" width="2656" height="2023"><defs><linearGradient id="P" gradientUnits="userSpaceOnUse"/><linearGradient id="g1" x2="1" href="#P" gradientTransform="matrix(185.449,242.804,-156.151,119.265,2324.995,-508.799)"><stop stop-color="#c3c5c5"/><stop offset=".55" stop-color="#d8d9d9"/><stop offset=".73" stop-color="#fdfdfd"/><stop offset=".87" stop-color="#dbdada"/><stop offset="1" stop-color="#d4d3d2"/></linearGradient><linearGradient id="g2" x2="1" href="#P" gradientTransform="matrix(357.232,0,0,922.865,1365.598,49.691)"><stop stop-color="#4c6fbf"/><stop offset="1" stop-color="#2c519b"/></linearGradient><linearGradient id="g3" x2="1" href="#P" gradientTransform="matrix(28.337,0,0,12.819,1444.551,62.047)"><stop stop-color="#4c6fbf"/><stop offset="1" stop-color="#2c519b"/></linearGradient><linearGradient id="g4" x2="1" href="#P" gradientTransform="matrix(0,-7.887,12.49,0,1494.606,260.475)"><stop stop-color="#c0bfbe"/><stop offset="1" stop-color="#fbfafb"/></linearGradient><linearGradient id="g5" x2="1" href="#P" gradientTransform="matrix(0,-7.887,12.491,0,1494.606,371.718)"><stop stop-color="#c0bfbe"/><stop offset="1" stop-color="#fbfafb"/></linearGradient><linearGradient id="g6" x2="1" href="#P" gradientTransform="matrix(0,-7.889,12.818,0,1542.154,325.357)"><stop stop-color="#c0bfbe"/><stop offset="1" stop-color="#fbfafb"/></linearGradient><linearGradient id="g7" x2="1" href="#P" gradientTransform="matrix(0,-7.889,12.818,0,1542.154,362.437)"><stop stop-color="#c0bfbe"/><stop offset="1" stop-color="#fbfafb"/></linearGradient><linearGradient id="g8" x2="1" href="#P" gradientTransform="matrix(0,-7.887,12.491,0,1494.606,434.122)"><stop stop-color="#c0bfbe"/><stop offset="1" stop-color="#fbfafb"/></linearGradient><linearGradient id="g9" x2="1" href="#P" gradientTransform="matrix(0,-7.887,12.49,0,1494.606,545.364)"><stop stop-color="#c0bfbe"/><stop offset="1" stop-color="#fbfafb"/></linearGradient><linearGradient id="g10" x2="1" href="#P" gradientTransform="matrix(0,-7.89,12.818,0,1542.154,499.003)"><stop stop-color="#c0bfbe"/><stop offset="1" stop-color="#fbfafb"/></linearGradient><linearGradient id="g11" x2="1" href="#P" gradientTransform="matrix(0,-7.89,12.818,0,1542.154,536.084)"><stop stop-color="#c0bfbe"/><stop offset="1" stop-color="#fbfafb"/></linearGradient><linearGradient id="g12" x2="1" href="#P" gradientTransform="matrix(0,-7.887,12.49,0,1494.606,607.769)"><stop stop-color="#c0bfbe"/><stop offset="1" stop-color="#fbfafb"/></linearGradient><linearGradient id="g13" x2="1" href="#P" gradientTransform="matrix(0,-7.887,12.491,0,1494.606,719.011)"><stop stop-color="#c0bfbe"/><stop offset="1" stop-color="#fbfafb"/></linearGradient><linearGradient id="g14" x2="1" href="#P" gradientTransform="matrix(0,-7.889,12.818,0,1542.154,672.65)"><stop stop-color="#c0bfbe"/><stop offset="1" stop-color="#fbfafb"/></linearGradient><linearGradient id="g15" x2="1" href="#P" gradientTransform="matrix(0,-7.889,12.818,0,1542.154,709.731)"><stop stop-color="#c0bfbe"/><stop offset="1" stop-color="#fbfafb"/></linearGradient><linearGradient id="g16" x2="1" href="#P" gradientTransform="matrix(26.555,819.403,-1403.344,45.48,1487.264,783.58)"><stop stop-color="#ebebeb"/><stop offset="1" stop-color="#fbfafb"/></linearGradient><linearGradient id="g17" x2="1" href="#P" gradientTransform="matrix(-71.199,718.463,-897.167,-88.909,1454.093,1401.288)"><stop stop-color="#fff"/><stop offset="1" stop-color="#d1d0cf"/></linearGradient><linearGradient id="g18" x2="1" href="#P" gradientTransform="matrix(441.541,681.679,-349.97,226.685,693.505,1426.772)"><stop stop-color="#fff"/><stop offset="1" stop-color="#d1d0cf"/></linearGradient><linearGradient id="g19" x2="1" href="#P" gradientTransform="matrix(222.678,291.547,-187.498,143.207,2213.284,-302.104)"><stop stop-color="#c3c5c5"/><stop offset=".55" stop-color="#d8d9d9"/><stop offset=".73" stop-color="#fdfdfd"/><stop offset=".87" stop-color="#dbdada"/><stop offset="1" stop-color="#d4d3d2"/></linearGradient><linearGradient id="g20" x2="1" href="#P" gradientTransform="matrix(428.946,0,0,1108.129,1061.29,368.502)"><stop stop-color="#4c6fbf"/><stop offset="1" stop-color="#2c519b"/></linearGradient><linearGradient id="g21" x2="1" href="#P" gradientTransform="matrix(34.026,0,0,15.393,1156.092,383.338)"><stop stop-color="#4c6fbf"/><stop offset="1" stop-color="#2c519b"/></linearGradient><linearGradient id="g22" x2="1" href="#P" gradientTransform="matrix(-117.482,902.873,-481.732,-62.683,2694.364,698.058)"><stop stop-color="#879cd8"/><stop offset="1" stop-color="#a3a9ef"/></linearGradient><linearGradient id="g23" x2="1" href="#P" gradientTransform="matrix(267.31,541.37,-310.98,153.551,1444.655,380.526)"><stop stop-color="#4c6fbf"/><stop offset="1" stop-color="#8ca3d8"/></linearGradient><linearGradient id="g24" x2="1" href="#P" gradientTransform="matrix(-273.561,-743.213,416.61,-153.345,-305.945,2097.803)"><stop stop-color="#879cd8"/><stop offset="1" stop-color="#a3a9ef"/></linearGradient><linearGradient id="g25" x2="1" href="#P" gradientTransform="matrix(156.848,317.657,-171.474,84.668,9456.168,-3075.521)"><stop stop-color="#4c6fbf"/><stop offset="1" stop-color="#8ca3d8"/></linearGradient><linearGradient id="g26" x2="1" href="#P" gradientTransform="matrix(-160.275,0,0,-143.542,702.309,849.684)"><stop stop-color="#879cd8"/><stop offset="1" stop-color="#a3a9ef"/></linearGradient><linearGradient id="g27" x2="1" href="#P" gradientTransform="matrix(177.848,100.022,-7.289,12.961,554.726,981.559)"><stop stop-color="#879cd8"/><stop offset="1" stop-color="#a3a9ef"/></linearGradient><linearGradient id="g28" x2="1" href="#P" gradientTransform="matrix(0,15.756,-26.624,0,668.944,1110.503)"><stop stop-color="#c0bfbe"/><stop offset="1" stop-color="#fbfafb"/></linearGradient><linearGradient id="g29" x2="1" href="#P" gradientTransform="matrix(0,14.633,-24.726,0,668.944,1148.596)"><stop stop-color="#c0bfbe"/><stop offset="1" stop-color="#fbfafb"/></linearGradient><linearGradient id="g30" x2="1" href="#P" gradientTransform="matrix(0,16.165,-27.315,0,668.944,1184.398)"><stop stop-color="#c0bfbe"/><stop offset="1" stop-color="#fbfafb"/></linearGradient><linearGradient id="g31" x2="1" href="#P" gradientTransform="matrix(71.481,40.201,-25.388,45.141,420.177,974.271)"><stop stop-color="#ffac06"/><stop offset="1" stop-color="#ff8409"/></linearGradient><linearGradient id="g32" x2="1" href="#P" gradientTransform="matrix(0,15.756,-26.624,0,668.944,1239.048)"><stop stop-color="#c0bfbe"/><stop offset="1" stop-color="#fbfafb"/></linearGradient><linearGradient id="g33" x2="1" href="#P" gradientTransform="matrix(0,14.633,-24.726,0,668.944,1277.141)"><stop stop-color="#c0bfbe"/><stop offset="1" stop-color="#fbfafb"/></linearGradient><linearGradient id="g34" x2="1" href="#P" gradientTransform="matrix(0,16.165,-27.315,0,668.944,1312.943)"><stop stop-color="#c0bfbe"/><stop offset="1" stop-color="#fbfafb"/></linearGradient><linearGradient id="g35" x2="1" href="#P" gradientTransform="matrix(71.481,40.201,-25.388,45.141,420.177,1102.817)"><stop stop-color="#ffac06"/><stop offset="1" stop-color="#ff8409"/></linearGradient><linearGradient id="g36" x2="1" href="#P" gradientTransform="matrix(0,15.756,-26.624,0,668.944,1367.593)"><stop stop-color="#c0bfbe"/><stop offset="1" stop-color="#fbfafb"/></linearGradient><linearGradient id="g37" x2="1" href="#P" gradientTransform="matrix(0,14.633,-24.726,0,668.944,1405.687)"><stop stop-color="#c0bfbe"/><stop offset="1" stop-color="#fbfafb"/></linearGradient><linearGradient id="g38" x2="1" href="#P" gradientTransform="matrix(0,16.165,-27.315,0,668.944,1441.489)"><stop stop-color="#c0bfbe"/><stop offset="1" stop-color="#fbfafb"/></linearGradient><linearGradient id="g39" x2="1" href="#P" gradientTransform="matrix(71.481,40.201,-25.388,45.141,420.177,1231.362)"><stop stop-color="#ffac06"/><stop offset="1" stop-color="#ff8409"/></linearGradient><linearGradient id="g40" x2="1" href="#P" gradientTransform="matrix(0,15.756,-26.624,0,668.944,1496.139)"><stop stop-color="#c0bfbe"/><stop offset="1" stop-color="#fbfafb"/></linearGradient><linearGradient id="g41" x2="1" href="#P" gradientTransform="matrix(0,14.633,-24.726,0,668.944,1534.232)"><stop stop-color="#c0bfbe"/><stop offset="1" stop-color="#fbfafb"/></linearGradient><linearGradient id="g42" x2="1" href="#P" gradientTransform="matrix(0,16.165,-27.315,0,668.944,1570.034)"><stop stop-color="#c0bfbe"/><stop offset="1" stop-color="#fbfafb"/></linearGradient><linearGradient id="g43" x2="1" href="#P" gradientTransform="matrix(71.481,40.201,-25.388,45.141,420.177,1359.908)"><stop stop-color="#ffac06"/><stop offset="1" stop-color="#ff8409"/></linearGradient><linearGradient id="g44" x2="1" href="#P" gradientTransform="matrix(439.533,0,0,278.3,1563.21,1087.757)"><stop stop-color="#ebebeb"/><stop offset="1" stop-color="#fbfafb"/></linearGradient><linearGradient id="g45" x2="1" href="#P" gradientTransform="matrix(439.533,0,0,278.301,1563.21,1185.508)"><stop stop-color="#ebebeb"/><stop offset="1" stop-color="#fbfafb"/></linearGradient><linearGradient id="g46" x2="1" href="#P" gradientTransform="matrix(439.533,0,0,278.221,1563.21,1283.288)"><stop stop-color="#ebebeb"/><stop offset="1" stop-color="#fbfafb"/></linearGradient><linearGradient id="g47" x2="1" href="#P" gradientTransform="matrix(-32.343,-124.326,111.382,-28.976,1681.095,1225.051)"><stop stop-color="#ffac06"/><stop offset="1" stop-color="#ff8409"/></linearGradient><linearGradient id="g48" x2="1" href="#P" gradientTransform="matrix(-38.444,-147.778,136.14,-35.416,1720.184,1354.981)"><stop stop-color="#879cd8"/><stop offset="1" stop-color="#3f5baa"/></linearGradient><linearGradient id="g49" x2="1" href="#P" gradientTransform="matrix(-43.38,-166.751,156.453,-40.701,1752.841,1479.042)"><stop stop-color="#879cd8"/><stop offset="1" stop-color="#a3a9ef"/></linearGradient><linearGradient id="g50" x2="1" href="#P" gradientTransform="matrix(185.449,242.804,-156.151,119.265,2991.344,-117.44)"><stop stop-color="#c3c5c5"/><stop offset=".55" stop-color="#d8d9d9"/><stop offset=".73" stop-color="#fdfdfd"/><stop offset=".87" stop-color="#dbdada"/><stop offset="1" stop-color="#d4d3d2"/></linearGradient><linearGradient id="g51" x2="1" href="#P" gradientTransform="matrix(357.232,0,0,922.865,2031.948,441.049)"><stop stop-color="#4c6fbf"/><stop offset="1" stop-color="#2c519b"/></linearGradient><linearGradient id="g52" x2="1" href="#P" gradientTransform="matrix(28.337,0,0,12.819,2110.9,453.405)"><stop stop-color="#4c6fbf"/><stop offset="1" stop-color="#2c519b"/></linearGradient><linearGradient id="g53" x2="1" href="#P" gradientTransform="matrix(0,-7.887,12.491,0,2160.955,651.834)"><stop stop-color="#c0bfbe"/><stop offset="1" stop-color="#fbfafb"/></linearGradient><linearGradient id="g54" x2="1" href="#P" gradientTransform="matrix(0,-7.887,12.491,0,2160.955,763.076)"><stop stop-color="#c0bfbe"/><stop offset="1" stop-color="#fbfafb"/></linearGradient><linearGradient id="g55" x2="1" href="#P" gradientTransform="matrix(0,-7.889,12.818,0,2208.503,716.715)"><stop stop-color="#c0bfbe"/><stop offset="1" stop-color="#fbfafb"/></linearGradient><linearGradient id="g56" x2="1" href="#P" gradientTransform="matrix(0,-7.89,12.818,0,2208.503,753.796)"><stop stop-color="#c0bfbe"/><stop offset="1" stop-color="#fbfafb"/></linearGradient><linearGradient id="g57" x2="1" href="#P" gradientTransform="matrix(0,-7.887,12.491,0,2160.955,825.481)"><stop stop-color="#c0bfbe"/><stop offset="1" stop-color="#fbfafb"/></linearGradient><linearGradient id="g58" x2="1" href="#P" gradientTransform="matrix(0,-7.887,12.491,0,2160.955,936.723)"><stop stop-color="#c0bfbe"/><stop offset="1" stop-color="#fbfafb"/></linearGradient><linearGradient id="g59" x2="1" href="#P" gradientTransform="matrix(0,-7.889,12.818,0,2208.503,890.362)"><stop stop-color="#c0bfbe"/><stop offset="1" stop-color="#fbfafb"/></linearGradient><linearGradient id="g60" x2="1" href="#P" gradientTransform="matrix(0,-7.889,12.818,0,2208.503,927.443)"><stop stop-color="#c0bfbe"/><stop offset="1" stop-color="#fbfafb"/></linearGradient><linearGradient id="g61" x2="1" href="#P" gradientTransform="matrix(0,-7.887,12.491,0,2160.955,999.127)"><stop stop-color="#c0bfbe"/><stop offset="1" stop-color="#fbfafb"/></linearGradient><linearGradient id="g62" x2="1" href="#P" gradientTransform="matrix(0,-7.887,12.49,0,2160.955,1110.37)"><stop stop-color="#c0bfbe"/><stop offset="1" stop-color="#fbfafb"/></linearGradient><linearGradient id="g63" x2="1" href="#P" gradientTransform="matrix(0,-7.889,12.818,0,2208.503,1064.009)"><stop stop-color="#c0bfbe"/><stop offset="1" stop-color="#fbfafb"/></linearGradient><linearGradient id="g64" x2="1" href="#P" gradientTransform="matrix(0,-7.89,12.818,0,2208.503,1101.089)"><stop stop-color="#c0bfbe"/><stop offset="1" stop-color="#fbfafb"/></linearGradient><linearGradient id="g65" x2="1" href="#P" gradientTransform="matrix(43.378,0,0,73.449,683.697,719.249)"><stop stop-color="#828282"/><stop offset="1" stop-color="#c1c0bf"/></linearGradient><linearGradient id="g66" x2="1" href="#P" gradientTransform="matrix(85.662,0,0,40.651,476.082,408.922)"><stop stop-color="#828282"/><stop offset="1" stop-color="#c1c0bf"/></linearGradient><linearGradient id="g67" x2="1" href="#P" gradientTransform="matrix(160.234,0,0,203.568,589.313,455.865)"><stop stop-color="#828282"/><stop offset="1" stop-color="#c1c0bf"/></linearGradient><clipPath clipPathUnits="userSpaceOnUse" id="cp1"><path d="m830.9 773.94l-35.47 20.61q8.08-4.7 15.12-11.07l35.48-20.61q-7.04 6.37-15.13 11.07z"/></clipPath><clipPath clipPathUnits="userSpaceOnUse" id="cp2"><path d="m529.3 336.42l35.48-20.61q8.88-5.16 18.9-8.24l-35.47 20.62q-10.03 3.07-18.91 8.23z"/></clipPath><linearGradient id="g68" x2="1" href="#P" gradientTransform="matrix(65.203,0,0,84.848,780.823,698.634)"><stop stop-color="#828282"/><stop offset="1" stop-color="#c1c0bf"/></linearGradient><linearGradient id="g69" x2="1" href="#P" gradientTransform="matrix(76.193,0,0,78.523,548.207,307.571)"><stop stop-color="#828282"/><stop offset="1" stop-color="#c1c0bf"/></linearGradient><linearGradient id="g70" x2="1" href="#P" gradientTransform="matrix(78.918,0,0,26.11,588.923,364.752)"><stop stop-color="#828282"/><stop offset="1" stop-color="#c1c0bf"/></linearGradient><linearGradient id="g71" x2="1" href="#P" gradientTransform="matrix(54.187,0,0,63.356,780.822,655.896)"><stop stop-color="#828282"/><stop offset="1" stop-color="#c1c0bf"/></linearGradient><linearGradient id="g72" x2="1" href="#P" gradientTransform="matrix(78.752,0,0,65.852,693.211,405.437)"><stop stop-color="#ebebeb"/><stop offset="1" stop-color="#aeadac"/></linearGradient><linearGradient id="g73" x2="1" href="#P" gradientTransform="matrix(54.349,0,0,82.34,779.733,524.467)"><stop stop-color="#828282"/><stop offset="1" stop-color="#c1c0bf"/></linearGradient><linearGradient id="g74" x2="1" href="#P" gradientTransform="matrix(43.052,0,0,82.478,685.636,343.576)"><stop stop-color="#828282"/><stop offset="1" stop-color="#c1c0bf"/></linearGradient><linearGradient id="g75" x2="1" href="#P" gradientTransform="matrix(80.843,0,0,46.808,640.269,317.384)"><stop stop-color="#ebebeb"/><stop offset="1" stop-color="#aeadac"/></linearGradient><linearGradient id="g76" x2="1" href="#P" gradientTransform="matrix(85.639,0,0,58.518,798.605,586.19)"><stop stop-color="#ebebeb"/><stop offset="1" stop-color="#aeadac"/></linearGradient><linearGradient id="g77" x2="1" href="#P" gradientTransform="matrix(37.002,0,0,72.255,848.767,624.093)"><stop stop-color="#828282"/><stop offset="1" stop-color="#c1c0bf"/></linearGradient><linearGradient id="g78" x2="1" href="#P" gradientTransform="matrix(76.443,0,0,31.363,736.486,439.926)"><stop stop-color="#828282"/><stop offset="1" stop-color="#c1c0bf"/></linearGradient><linearGradient id="g79" x2="1" href="#P" gradientTransform="matrix(65.308,0,0,50.152,779.734,494.932)"><stop stop-color="#828282"/><stop offset="1" stop-color="#c1c0bf"/></linearGradient><linearGradient id="g80" x2="1" href="#P" gradientTransform="matrix(67.591,0,0,75.622,777.452,439.925)"><stop stop-color="#ebebeb"/><stop offset="1" stop-color="#aeadac"/></linearGradient><linearGradient id="g81" x2="1" href="#P" gradientTransform="matrix(-258.245,451.367,-568.557,-325.294,1112.441,536.695)"><stop stop-color="#ebebeb"/><stop offset="1" stop-color="#aeadac"/></linearGradient><linearGradient id="g82" x2="1" href="#P" gradientTransform="matrix(-10.42,18.212,-1.275,-0.73,560.388,423.193)"><stop stop-color="#ebebeb"/><stop offset="1" stop-color="#fff"/></linearGradient><linearGradient id="g83" x2="1" href="#P" gradientTransform="matrix(-49.341,86.239,-323.841,-185.283,625.284,335.733)"><stop stop-color="#ebebeb"/><stop offset="1" stop-color="#fff"/></linearGradient><linearGradient id="g84" x2="1" href="#P" gradientTransform="matrix(-92.38,161.463,-298.308,-170.674,811.508,564.475)"><stop stop-color="#ebebeb"/><stop offset="1" stop-color="#fff"/></linearGradient><linearGradient id="g85" x2="1" href="#P" gradientTransform="matrix(-103.618,181.106,-578.797,-331.153,884.016,404.077)"><stop stop-color="#ebebeb"/><stop offset="1" stop-color="#fff"/></linearGradient><linearGradient id="g86" x2="1" href="#P" gradientTransform="matrix(-17.117,29.918,-8.837,-5.056,553.368,594.044)"><stop stop-color="#ebebeb"/><stop offset="1" stop-color="#fff"/></linearGradient><linearGradient id="g87" x2="1" href="#P" gradientTransform="matrix(-9.772,17.08,-3.979,-2.277,830.371,699.397)"><stop stop-color="#ebebeb"/><stop offset="1" stop-color="#fff"/></linearGradient><linearGradient id="g88" x2="1" href="#P" gradientTransform="matrix(-71.705,125.329,-175.873,-100.624,999.474,647.762)"><stop stop-color="#ebebeb"/><stop offset="1" stop-color="#fff"/></linearGradient><linearGradient id="g89" x2="1" href="#P" gradientTransform="matrix(-30.988,54.162,-72.866,-41.689,875.361,764.098)"><stop stop-color="#ebebeb"/><stop offset="1" stop-color="#fff"/></linearGradient><linearGradient id="g90" x2="1" href="#P" gradientTransform="matrix(-19.256,33.656,-176.927,-101.227,518.75,429.86)"><stop stop-color="#ebebeb"/><stop offset="1" stop-color="#fff"/></linearGradient><linearGradient id="g91" x2="1" href="#P" gradientTransform="matrix(-20.563,35.94,-14.537,-8.317,823.526,822.932)"><stop stop-color="#ebebeb"/><stop offset="1" stop-color="#fff"/></linearGradient><linearGradient id="g92" x2="1" href="#P" gradientTransform="matrix(-54.244,-228.259,394.385,-93.722,2017.398,1060.638)"><stop stop-color="#fff"/><stop offset="1" stop-color="#d1d0cf"/></linearGradient><linearGradient id="g93" x2="1" href="#P" gradientTransform="matrix(43.92,-81.727,76.156,40.927,2123.247,925.348)"><stop stop-color="#7e84a0"/><stop offset="1" stop-color="#c9c9ce"/></linearGradient><linearGradient id="g94" x2="1" href="#P" gradientTransform="matrix(-43.35,-182.419,441.683,-104.963,2193.749,995.789)"><stop stop-color="#fff"/><stop offset="1" stop-color="#d1d0cf"/></linearGradient><linearGradient id="g95" x2="1" href="#P" gradientTransform="matrix(288.629,0,0,387.72,2277.411,626.158)"><stop stop-color="#7e84a0"/><stop offset="1" stop-color="#c9c9ce"/></linearGradient><linearGradient id="g96" x2="1" href="#P" gradientTransform="matrix(337.865,0,0,459.921,2299.422,579.276)"><stop stop-color="#7e84a0"/><stop offset="1" stop-color="#c9c9ce"/></linearGradient><linearGradient id="g97" x2="1" href="#P" gradientTransform="matrix(-347.363,527.477,-718.823,-473.372,2887.889,785.456)"><stop stop-color="#fff"/><stop offset="1" stop-color="#d1d0cf"/></linearGradient><linearGradient id="g98" x2="1" href="#P" gradientTransform="matrix(-242.211,367.801,-403.244,-265.551,2835.514,891.64)"><stop stop-color="#fff"/><stop offset=".99" stop-color="#fff"/></linearGradient><linearGradient id="g99" x2="1" href="#P" gradientTransform="matrix(-290.066,440.471,-482.599,-317.809,3070.268,918.318)"><stop stop-color="#fff"/><stop offset=".99" stop-color="#fff"/></linearGradient><linearGradient id="g100" x2="1" href="#P" gradientTransform="matrix(174.492,0,0,237.529,2362.763,690.979)"><stop stop-color="#879cd8"/><stop offset="1" stop-color="#3f5baa"/></linearGradient><linearGradient id="g101" x2="1" href="#P" gradientTransform="matrix(-179.398,272.419,-371.241,-244.476,2666.54,798.558)"><stop stop-color="#879cd8"/><stop offset="1" stop-color="#a3a9ef"/></linearGradient><linearGradient id="g102" x2="1" href="#P" gradientTransform="matrix(418.694,-250.988,806.948,1346.136,2099.707,812.619)"><stop stop-color="#879cd8"/><stop offset="1" stop-color="#fff"/></linearGradient></defs><style>.a{opacity:0;fill:#190c00}.b{opacity:.1;fill:#190c00}.c{opacity:.2;fill:#190c00}.d{opacity:.3;fill:#190c00}.e{opacity:.4;fill:#190c00}.f{opacity:.5;fill:#190c00}.g{opacity:.6;fill:#190c00}.h{opacity:.7;fill:#190c00}.i{opacity:.8;fill:#190c00}.j{opacity:.9;fill:#190c00}.k{opacity:1;fill:#190c00}.l{fill:#190c00}.m{fill:none;stroke:#a7a8a8;stroke-miterlimit:10;stroke-width:9}.n{fill:url(#g1)}.o{fill:url(#g2)}.p{fill:#fffdff}.q{fill:url(#g3)}.r{fill:url(#g4)}.s{fill:url(#g5)}.t{fill:url(#g6)}.u{fill:url(#g7)}.v{fill:url(#g8)}.w{fill:url(#g9)}.x{fill:url(#g10)}.y{fill:url(#g11)}.z{fill:url(#g12)}.A{fill:url(#g13)}.B{fill:url(#g14)}.C{fill:url(#g15)}.D{fill:#4069b2}.E{fill:url(#g16)}.F{fill:url(#g17)}.G{fill:url(#g18)}.H{fill:url(#g19)}.I{fill:url(#g20)}.J{fill:url(#g21)}.K{opacity:.8;fill:url(#g22)}.L{fill:#fff}.M{opacity:.6;fill:#fff}.N{fill:url(#g23)}.O{fill:url(#g24)}.P{fill:url(#g25)}.Q{fill:#7082ad}.R{fill:url(#g26)}.S{fill:url(#g27)}.T{fill:url(#g28)}.U{fill:url(#g29)}.V{fill:url(#g30)}.W{fill:url(#g31)}.X{fill:url(#g32)}.Y{fill:url(#g33)}.Z{fill:url(#g34)}.a0{fill:url(#g35)}.a1{fill:url(#g36)}.a2{fill:url(#g37)}.a3{fill:url(#g38)}.a4{fill:url(#g39)}.a5{fill:url(#g40)}.a6{fill:url(#g41)}.a7{fill:url(#g42)}.a8{fill:url(#g43)}.a9{fill:url(#g44)}.aa{fill:url(#g45)}.ab{fill:url(#g46)}.ac{fill:url(#g47)}.ad{fill:url(#g48)}.ae{fill:url(#g49)}.af{fill:url(#g50)}.ag{fill:url(#g51)}.ah{fill:url(#g52)}.ai{fill:url(#g53)}.aj{fill:url(#g54)}.ak{fill:url(#g55)}.al{fill:url(#g56)}.am{fill:url(#g57)}.an{fill:url(#g58)}.ao{fill:url(#g59)}.ap{fill:url(#g60)}.aq{fill:url(#g61)}.ar{fill:url(#g62)}.as{fill:url(#g63)}.at{fill:url(#g64)}.au{fill:url(#g65)}.av{fill:url(#g66)}.aw{fill:url(#g67)}.ax{fill:#7c8484}.ay{fill:#818989}.az{fill:url(#g68)}.aA{fill:url(#g69)}.aB{fill:url(#g70)}.aC{fill:url(#g71)}.aD{fill:url(#g72)}.aE{fill:url(#g73)}.aF{fill:url(#g74)}.aG{fill:url(#g75)}.aH{fill:url(#g76)}.aI{fill:url(#g77)}.aJ{fill:url(#g78)}.aK{fill:url(#g79)}.aL{fill:url(#g80)}.aM{fill:url(#g81)}.aN{fill:url(#g82)}.aO{fill:url(#g83)}.aP{fill:url(#g84)}.aQ{fill:url(#g85)}.aR{fill:url(#g86)}.aS{fill:url(#g87)}.aT{fill:url(#g88)}.aU{fill:url(#g89)}.aV{fill:url(#g90)}.aW{fill:url(#g91)}.aX{fill:url(#g92)}.aY{fill:url(#g93)}.aZ{fill:url(#g94)}.b0{fill:#2f655f}.b1{fill:url(#g95)}.b2{fill:url(#g96)}.b3{fill:url(#g97)}.b4{fill:url(#g98)}.b5{fill:url(#g99)}.b6{fill:url(#g100)}.b7{fill:url(#g101)}.b8{fill:url(#g102)}</style><g style="opacity:.1"><path class="a" d="m2469.8 1279.5c0 84.2-121.8 152.5-272.2 152.5-150.3 0-272.2-68.3-272.2-152.5 0-84.2 121.9-152.5 272.2-152.5 150.4 0 272.3 68.3 272.2 152.5z"/><path class="a" d="m2464.6 1279.5c0 82.6-119.5 149.6-267 149.6-147.4 0-267-67-266.9-149.6 0-82.6 119.5-149.6 266.9-149.6 147.5 0 267 67 267 149.6z"/><path class="b" d="m2459.4 1279.5c0 81-117.2 146.6-261.8 146.6-144.5 0-261.7-65.6-261.7-146.6 0-81 117.2-146.6 261.7-146.6 144.6 0 261.8 65.6 261.8 146.6z"/><path class="b" d="m2454.1 1279.5c0 79.4-114.8 143.7-256.5 143.7-141.6 0-256.5-64.4-256.5-143.7 0-79.4 114.9-143.7 256.5-143.7 141.7 0 256.5 64.3 256.5 143.7z"/><path class="c" d="m2448.9 1279.5c0 77.7-112.5 140.8-251.3 140.8-138.7 0-251.2-63.1-251.2-140.8 0-77.8 112.5-140.8 251.2-140.8 138.8 0 251.3 63.1 251.3 140.8z"/><path class="c" d="m2443.7 1279.5c0 76.1-110.2 137.8-246.1 137.8-135.9 0-246-61.7-246-137.8 0-76.1 110.2-137.8 246-137.8 135.9 0 246.1 61.7 246.1 137.8z"/><path class="d" d="m2438.4 1279.5c0 74.5-107.8 134.9-240.8 134.9-133 0-240.8-60.4-240.8-134.9 0-74.5 107.8-134.9 240.8-134.9 133 0 240.8 60.4 240.8 134.9z"/><path class="d" d="m2433.2 1279.5c0 72.9-105.5 132-235.6 132-130.1 0-235.5-59.1-235.5-132 0-72.9 105.4-132 235.5-132 130.1 0 235.6 59.1 235.6 132z"/><path class="d" d="m2428 1279.5c0 71.3-103.2 129-230.4 129-127.2 0-230.3-57.8-230.3-129 0-71.3 103.1-129 230.3-129 127.2 0 230.4 57.7 230.4 129z"/><path class="e" d="m2422.7 1279.5c0 69.6-100.8 126.1-225.1 126.1-124.3 0-225.1-56.5-225.1-126.1 0-69.7 100.8-126.1 225.1-126.1 124.3 0 225.1 56.5 225.1 126.1z"/><path class="e" d="m2417.5 1279.5c0 68-98.4 123.2-219.9 123.2-121.4 0-219.8-55.2-219.8-123.2 0-68 98.4-123.2 219.8-123.2 121.5 0 219.9 55.2 219.9 123.2z"/><path class="f" d="m2412.3 1279.5c-0.1 66.4-96.1 120.2-214.7 120.2-118.5 0-214.6-53.8-214.6-120.2 0-66.4 96.1-120.2 214.6-120.2 118.6 0 214.7 53.8 214.7 120.2z"/><path class="f" d="m2407 1279.5c0 64.8-93.7 117.3-209.4 117.3-115.6 0-209.4-52.5-209.4-117.3 0.1-64.8 93.8-117.3 209.4-117.3 115.7 0 209.4 52.5 209.4 117.3z"/><path class="f" d="m2401.8 1279.5c0 63.2-91.4 114.4-204.2 114.4-112.7 0-204.1-51.3-204.1-114.4 0-63.2 91.4-114.4 204.1-114.4 112.8 0 204.2 51.2 204.2 114.4z"/><path class="g" d="m2396.5 1279.5c0 61.5-89 111.4-198.9 111.4-109.8 0-198.9-49.9-198.9-111.4 0-61.6 89.1-111.4 198.9-111.4 109.9 0 198.9 49.9 198.9 111.4z"/><path class="g" d="m2391.3 1279.5c0 59.9-86.7 108.5-193.7 108.5-106.9 0-193.6-48.6-193.6-108.5 0-59.9 86.7-108.5 193.6-108.5 107 0 193.7 48.6 193.7 108.5z"/><path class="h" d="m2386.1 1279.5c0 58.3-84.4 105.6-188.5 105.6-104 0-188.4-47.3-188.4-105.6 0-58.3 84.4-105.6 188.4-105.6 104.1 0 188.5 47.3 188.5 105.6z"/><path class="h" d="m2380.8 1279.5c0 56.7-82 102.6-183.2 102.6-101.2 0-183.2-45.9-183.2-102.6 0-56.7 82.1-102.6 183.2-102.6 101.2 0 183.2 45.9 183.2 102.6z"/><path class="h" d="m2375.6 1279.5c0 55.1-79.7 99.7-178 99.7-98.3 0-177.9-44.7-177.9-99.7 0-55.1 79.6-99.7 177.9-99.7 98.3 0 178 44.6 178 99.7z"/><path class="i" d="m2370.4 1279.5c0 53.4-77.4 96.8-172.8 96.8-95.4 0-172.7-43.4-172.7-96.8 0-53.5 77.3-96.8 172.7-96.8 95.4 0 172.8 43.4 172.8 96.8z"/><path class="i" d="m2365.1 1279.5c0 51.8-75 93.8-167.5 93.8-92.5 0-167.5-42-167.5-93.8 0-51.8 75-93.8 167.5-93.8 92.5 0 167.5 42 167.5 93.8z"/><path class="j" d="m2359.9 1279.5c0 50.2-72.7 90.9-162.3 90.9-89.6 0-162.2-40.7-162.2-90.9 0-50.2 72.6-90.9 162.2-90.9 89.6 0 162.3 40.7 162.3 90.9z"/><path class="j" d="m2354.7 1279.5c0 48.6-70.3 88-157.1 88-86.7 0-157-39.4-157-88 0-48.6 70.3-88 157-88 86.8 0 157.1 39.4 157.1 88z"/><path class="k" d="m2349.4 1279.5c0 47-67.9 85-151.8 85-83.8 0-151.8-38.1-151.8-85 0-47 68-85 151.8-85 83.9 0 151.8 38 151.8 85z"/><path class="l" d="m2344.2 1279.5c0 45.3-65.6 82.1-146.6 82.1-80.9 0-146.5-36.8-146.5-82.1 0-45.4 65.6-82.1 146.5-82.1 81 0 146.6 36.7 146.6 82.1z"/></g><g style="opacity:.1"><path class="a" d="m896.6 1633.1c0 84.3-121.9 152.5-272.2 152.5-150.3 0-272.2-68.2-272.2-152.5 0-84.2 121.9-152.5 272.2-152.5 150.3 0 272.2 68.3 272.2 152.5z"/><path class="a" d="m891.4 1633.1c0 82.7-119.6 149.6-267 149.6-147.5 0-267-67-267-149.6 0-82.6 119.6-149.5 267-149.5 147.5 0 267 66.9 267 149.5z"/><path class="b" d="m886.1 1633.1c0 81-117.1 146.7-261.7 146.7-144.6 0-261.7-65.7-261.7-146.7 0-80.9 117.1-146.6 261.7-146.6 144.6 0 261.7 65.7 261.7 146.6z"/><path class="b" d="m880.9 1633.1c0 79.4-114.8 143.7-256.5 143.7-141.7 0-256.5-64.3-256.5-143.7 0-79.3 114.8-143.7 256.5-143.7 141.7 0 256.5 64.4 256.5 143.7z"/><path class="c" d="m875.7 1633.1c0 77.8-112.5 140.8-251.3 140.8-138.8 0-251.3-63-251.3-140.8 0-77.7 112.5-140.7 251.3-140.7 138.8 0 251.3 63 251.3 140.7z"/><path class="c" d="m870.4 1633.1c0 76.2-110.1 137.9-246 137.9-135.9 0-246-61.7-246-137.9 0-76.1 110.1-137.8 246-137.8 135.9 0 246 61.7 246 137.8z"/><path class="d" d="m865.2 1633.1c0 74.6-107.8 134.9-240.8 134.9-133 0-240.8-60.4-240.8-134.9 0-74.5 107.8-134.9 240.8-134.9 133 0 240.8 60.4 240.8 134.9z"/><path class="d" d="m860 1633.1c0 72.9-105.5 132-235.6 132-130.1 0-235.6-59.1-235.6-132 0-72.8 105.5-131.9 235.6-131.9 130.1 0 235.6 59.1 235.6 131.9z"/><path class="d" d="m854.7 1633.1c0 71.3-103.1 129.1-230.3 129.1-127.2 0-230.3-57.8-230.3-129.1 0-71.2 103.1-129 230.3-129 127.2 0 230.3 57.8 230.3 129z"/><path class="e" d="m849.5 1633.1c0 69.7-100.8 126.1-225.1 126.1-124.3 0-225.1-56.4-225.1-126.1 0-69.6 100.8-126.1 225.1-126.1 124.3 0 225.1 56.5 225.1 126.1z"/><path class="e" d="m844.3 1633.1c0 68.1-98.5 123.2-219.9 123.2-121.4 0-219.9-55.1-219.9-123.2 0-68 98.5-123.1 219.9-123.1 121.4 0 219.9 55.1 219.9 123.1z"/><path class="f" d="m839 1633.1c0 66.5-96.1 120.3-214.6 120.3-118.5 0-214.6-53.9-214.6-120.3 0-66.4 96.1-120.2 214.6-120.2 118.5 0 214.6 53.8 214.6 120.2z"/><path class="f" d="m833.8 1633.1c0 64.8-93.8 117.3-209.4 117.3-115.6 0-209.4-52.5-209.4-117.3 0-64.7 93.8-117.3 209.4-117.3 115.6 0 209.4 52.6 209.4 117.3z"/><path class="f" d="m828.5 1633.1c0 63.2-91.4 114.4-204.1 114.4-112.8 0-204.1-51.2-204.1-114.4 0-63.1 91.4-114.3 204.1-114.3 112.7 0 204.1 51.2 204.1 114.3z"/><path class="g" d="m823.3 1633.1c0 61.6-89 111.5-198.9 111.5-109.9 0-198.9-49.9-198.9-111.5 0-61.5 89-111.4 198.9-111.4 109.9 0 198.9 49.9 198.9 111.4z"/><path class="g" d="m818.1 1633.1c0 60-86.7 108.5-193.7 108.5-107 0-193.7-48.5-193.7-108.5 0-59.9 86.7-108.5 193.7-108.5 107 0 193.7 48.6 193.7 108.5z"/><path class="h" d="m812.8 1633.1c0 58.4-84.3 105.6-188.4 105.6-104.1 0-188.4-47.3-188.4-105.6 0-58.3 84.3-105.5 188.4-105.5 104.1 0 188.4 47.2 188.4 105.5z"/><path class="h" d="m807.6 1633.1c0 56.7-82 102.7-183.2 102.7-101.2 0-183.2-46-183.2-102.7 0-56.6 82-102.6 183.2-102.6 101.2 0 183.2 46 183.2 102.6z"/><path class="h" d="m802.4 1633.1c0 55.1-79.7 99.7-178 99.7-98.3 0-178-44.6-178-99.7 0-55 79.7-99.7 178-99.7 98.3 0 178 44.7 178 99.7z"/><path class="i" d="m797.1 1633.1c0 53.5-77.3 96.8-172.7 96.8-95.4 0-172.7-43.3-172.7-96.8 0-53.4 77.3-96.7 172.7-96.7 95.4 0 172.7 43.3 172.7 96.7z"/><path class="i" d="m791.9 1633.1c0 51.9-75 93.9-167.5 93.9-92.5 0-167.5-42-167.5-93.9 0-51.8 75-93.8 167.5-93.8 92.5 0 167.5 42 167.5 93.8z"/><path class="j" d="m786.7 1633.1c0 50.3-72.7 90.9-162.3 90.9-89.6 0-162.3-40.7-162.3-90.9 0-50.2 72.7-90.9 162.3-90.9 89.6 0 162.3 40.7 162.3 90.9z"/><path class="j" d="m781.4 1633.1c0 48.6-70.3 88-157 88-86.7 0-157-39.4-157-88 0-48.5 70.3-87.9 157-87.9 86.7 0 157 39.4 157 87.9z"/><path class="k" d="m776.2 1633.1c0 47-68 85.1-151.8 85.1-83.8 0-151.8-38.1-151.8-85.1 0-46.9 68-85 151.8-85 83.8 0 151.8 38.1 151.8 85z"/><path class="l" d="m770.9 1633.1c0 45.4-65.6 82.1-146.5 82.1-80.9 0-146.6-36.7-146.6-82.1 0.1-45.3 65.7-82.1 146.6-82.1 80.9 0 146.6 36.8 146.5 82.1z"/></g><g style="opacity:.1"><path class="a" d="m1765.6 1577.5c0 120.8-174.8 218.7-390.4 218.7-215.6 0-390.4-97.9-390.3-218.7 0-120.8 174.7-218.7 390.3-218.7 215.6 0 390.4 98 390.4 218.7z"/><path class="a" d="m1758.1 1577.5c0 118.5-171.4 214.5-382.9 214.5-211.4 0-382.8-96-382.8-214.5 0-118.4 171.4-214.5 382.8-214.5 211.5 0 382.9 96.1 382.9 214.5z"/><path class="b" d="m1750.6 1577.5c0 116.2-168.1 210.3-375.4 210.3-207.3 0-375.3-94.1-375.3-210.3 0-116.1 168-210.3 375.3-210.3 207.4 0 375.4 94.2 375.4 210.3z"/><path class="b" d="m1743.1 1577.5c0 113.9-164.7 206.1-367.9 206.1-203.1 0-367.8-92.3-367.8-206.1 0-113.8 164.7-206.1 367.8-206.1 203.2 0.1 367.9 92.3 367.9 206.1z"/><path class="c" d="m1735.6 1577.5c0 111.5-161.4 201.9-360.4 201.9-199 0-360.3-90.4-360.3-201.9 0-111.5 161.3-201.9 360.3-201.8 199.1 0 360.4 90.3 360.4 201.8z"/><path class="c" d="m1728.1 1577.5c0 109.2-158 197.7-352.9 197.7-194.8 0-352.8-88.5-352.8-197.7 0-109.2 158-197.6 352.8-197.6 194.9 0 352.9 88.5 352.9 197.6z"/><path class="d" d="m1720.6 1577.5c0 106.9-154.6 193.5-345.4 193.5-190.7 0-345.3-86.6-345.3-193.5 0-106.8 154.6-193.4 345.3-193.4 190.8 0 345.4 86.6 345.4 193.4z"/><path class="d" d="m1713.1 1577.5c0 104.6-151.3 189.3-337.9 189.3-186.5 0-337.8-84.8-337.8-189.3 0-104.5 151.3-189.2 337.8-189.2 186.6 0 337.9 84.7 337.9 189.2z"/><path class="d" d="m1705.5 1577.5c0 102.2-147.8 185.1-330.3 185.1-182.4 0-330.3-82.9-330.3-185.1 0-102.2 147.9-185 330.3-185 182.5 0 330.4 82.8 330.3 185z"/><path class="e" d="m1698 1577.5c0 99.9-144.5 180.9-322.8 180.9-178.2 0-322.8-81-322.8-180.9 0-99.9 144.6-180.8 322.8-180.8 178.3 0 322.8 81 322.8 180.8z"/><path class="e" d="m1690.5 1577.5c0 97.6-141.1 176.7-315.3 176.7-174.1 0-315.3-79.1-315.3-176.7 0-97.5 141.2-176.6 315.3-176.6 174.2 0 315.3 79.1 315.3 176.6z"/><path class="f" d="m1683 1577.5c0 95.3-137.8 172.5-307.8 172.5-170 0-307.8-77.2-307.7-172.5 0-95.2 137.8-172.4 307.7-172.4 170 0 307.8 77.2 307.8 172.4z"/><path class="f" d="m1675.5 1577.5c0 92.9-134.4 168.3-300.3 168.3-165.8-0.1-300.2-75.4-300.2-168.3 0-92.9 134.4-168.2 300.2-168.2 165.9 0 300.3 75.3 300.3 168.2z"/><path class="f" d="m1668 1577.5c0 90.6-131.1 164-292.8 164-161.7 0-292.7-73.4-292.7-164 0-90.6 131.1-164 292.7-164 161.7 0 292.8 73.5 292.8 164z"/><path class="g" d="m1660.5 1577.5c0 88.3-127.7 159.8-285.3 159.8-157.5 0-285.2-71.5-285.2-159.8 0-88.2 127.7-159.8 285.2-159.8 157.6 0 285.3 71.6 285.3 159.8z"/><path class="g" d="m1653 1577.5c0 86-124.4 155.6-277.8 155.6-153.4 0-277.7-69.6-277.7-155.6 0-85.9 124.3-155.6 277.7-155.6 153.4 0 277.8 69.7 277.8 155.6z"/><path class="h" d="m1645.5 1577.5c0 83.6-121 151.4-270.3 151.4-149.2 0-270.2-67.8-270.2-151.4 0-83.6 121-151.4 270.2-151.4 149.3 0 270.3 67.8 270.3 151.4z"/><path class="h" d="m1638 1577.5c0 81.3-117.7 147.2-262.8 147.2-145.1 0-262.7-65.9-262.7-147.2 0-81.3 117.6-147.2 262.7-147.2 145.1 0 262.8 65.9 262.8 147.2z"/><path class="h" d="m1630.5 1577.5c0 79-114.3 143-255.3 143-140.9 0-255.2-64-255.2-143 0-78.9 114.3-143 255.2-143 141 0.1 255.3 64.1 255.3 143z"/><path class="i" d="m1622.9 1577.5c0 76.7-110.9 138.8-247.7 138.8-136.8 0-247.7-62.1-247.7-138.8 0-76.6 110.9-138.7 247.7-138.7 136.8 0 247.7 62.1 247.7 138.7z"/><path class="i" d="m1615.4 1577.5c0 74.4-107.5 134.6-240.2 134.6-132.6 0-240.2-60.3-240.2-134.6 0-74.3 107.6-134.5 240.2-134.5 132.7 0 240.2 60.2 240.2 134.5z"/><path class="j" d="m1607.9 1577.5c0 72-104.2 130.4-232.7 130.4-128.5 0-232.7-58.4-232.7-130.4 0-72 104.2-130.3 232.7-130.3 128.6 0 232.7 58.3 232.7 130.3z"/><path class="j" d="m1600.4 1577.5c0 69.7-100.8 126.2-225.2 126.2-124.3 0-225.2-56.5-225.1-126.2 0-69.7 100.8-126.1 225.1-126.1 124.4 0 225.2 56.5 225.2 126.1z"/><path class="k" d="m1592.9 1577.5c0 67.4-97.4 122-217.7 122-120.2 0-217.6-54.6-217.6-122 0-67.3 97.4-121.9 217.6-121.9 120.3 0 217.7 54.6 217.7 121.9z"/><path class="l" d="m1585.4 1577.5c0 65.1-94.1 117.8-210.2 117.8-116 0-210.1-52.8-210.1-117.8 0-65 94.1-117.7 210.1-117.7 116.1 0 210.2 52.7 210.2 117.7z"/></g><g style="opacity:.1"><path class="a" d="m1859.2 948.1c0 84.2-121.9 152.5-272.3 152.5-150.3 0-272.2-68.3-272.2-152.5 0-84.2 121.9-152.5 272.2-152.5 150.4 0 272.3 68.3 272.3 152.5z"/><path class="a" d="m1853.9 948.1c0 82.6-119.5 149.6-267 149.6-147.4 0-266.9-67-266.9-149.6 0-82.6 119.5-149.6 266.9-149.6 147.5 0 267 67 267 149.6z"/><path class="b" d="m1848.7 948.1c0 81-117.2 146.6-261.8 146.6-144.5 0-261.7-65.6-261.7-146.6 0-81 117.2-146.7 261.7-146.6 144.6 0 261.8 65.6 261.8 146.6z"/><path class="b" d="m1843.4 948.1c0 79.4-114.8 143.7-256.5 143.7-141.6 0-256.5-64.4-256.5-143.7 0-79.4 114.9-143.7 256.5-143.7 141.7 0 256.5 64.3 256.5 143.7z"/><path class="c" d="m1838.2 948.1c0 77.7-112.5 140.8-251.3 140.8-138.7 0-251.2-63.1-251.2-140.8 0-77.8 112.5-140.8 251.2-140.8 138.8 0 251.3 63.1 251.3 140.8z"/><path class="c" d="m1833 948.1c0 76.1-110.2 137.8-246.1 137.8-135.8 0-246-61.7-246-137.8 0-76.1 110.2-137.9 246-137.8 135.9 0 246.1 61.7 246.1 137.8z"/><path class="d" d="m1827.7 948.1c0 74.5-107.8 134.9-240.8 134.9-133 0-240.8-60.4-240.8-134.9 0-74.5 107.9-134.9 240.8-134.9 133 0 240.8 60.4 240.8 134.9z"/><path class="d" d="m1822.5 948.1c0 72.9-105.5 132-235.6 132-130.1 0-235.5-59.1-235.5-132 0-72.9 105.4-132 235.5-132 130.1 0 235.6 59.1 235.6 132z"/><path class="d" d="m1817.3 948.1c0 71.3-103.2 129-230.4 129-127.2 0-230.3-57.8-230.3-129 0-71.3 103.1-129 230.3-129 127.2 0 230.4 57.7 230.4 129z"/><path class="e" d="m1812 948.1c0 69.6-100.7 126.1-225.1 126.1-124.3 0-225.1-56.5-225.1-126.1 0.1-69.7 100.8-126.1 225.1-126.1 124.4 0 225.1 56.5 225.1 126.1z"/><path class="e" d="m1806.8 948.1c0 68-98.4 123.2-219.9 123.2-121.4 0-219.8-55.2-219.8-123.2 0-68 98.4-123.2 219.8-123.2 121.5 0 219.9 55.2 219.9 123.2z"/><path class="f" d="m1801.6 948.1c0 66.4-96.1 120.2-214.7 120.2-118.5 0-214.6-53.8-214.6-120.2 0-66.4 96.1-120.2 214.6-120.2 118.6 0 214.7 53.8 214.7 120.2z"/><path class="f" d="m1796.3 948.1c0 64.8-93.7 117.3-209.4 117.3-115.6 0-209.3-52.5-209.3-117.3 0-64.8 93.7-117.3 209.3-117.3 115.7 0 209.4 52.5 209.4 117.3z"/><path class="f" d="m1791.1 948.1c0 63.2-91.4 114.4-204.2 114.4-112.7 0-204.1-51.3-204.1-114.4 0-63.2 91.4-114.4 204.1-114.4 112.8 0 204.2 51.2 204.2 114.4z"/><path class="g" d="m1785.9 948.1c-0.1 61.5-89.1 111.4-199 111.4-109.8 0-198.9-49.9-198.9-111.4 0-61.6 89.1-111.4 198.9-111.4 109.9 0 199 49.8 199 111.4z"/><path class="g" d="m1780.6 948.1c0 59.9-86.7 108.5-193.7 108.5-106.9 0-193.6-48.6-193.6-108.5 0-59.9 86.7-108.5 193.6-108.5 107 0 193.7 48.6 193.7 108.5z"/><path class="h" d="m1775.4 948.1c0 58.3-84.4 105.6-188.5 105.6-104 0-188.4-47.3-188.4-105.6 0-58.3 84.4-105.6 188.4-105.6 104.1 0 188.5 47.3 188.5 105.6z"/><path class="h" d="m1770.1 948.1c0 56.7-82 102.6-183.2 102.6-101.1 0-183.2-45.9-183.2-102.6 0-56.7 82.1-102.6 183.2-102.6 101.2 0 183.2 45.9 183.2 102.6z"/><path class="h" d="m1764.9 948.1c0 55.1-79.7 99.7-178 99.7-98.3 0-177.9-44.7-177.9-99.7 0-55.1 79.7-99.7 177.9-99.7 98.3 0 178 44.6 178 99.7z"/><path class="i" d="m1759.7 948.1c0 53.4-77.4 96.8-172.8 96.8-95.4 0-172.7-43.4-172.7-96.8 0-53.5 77.3-96.8 172.7-96.8 95.4 0 172.8 43.3 172.8 96.8z"/><path class="i" d="m1754.4 948.1c0 51.8-75 93.8-167.5 93.8-92.5 0-167.5-42-167.5-93.8 0-51.8 75-93.8 167.5-93.8 92.5 0 167.5 42 167.5 93.8z"/><path class="j" d="m1749.2 948.1c0 50.2-72.7 90.9-162.3 90.9-89.6 0-162.2-40.7-162.2-90.9 0-50.2 72.6-90.9 162.2-90.9 89.7 0 162.3 40.7 162.3 90.9z"/><path class="j" d="m1744 948.1c0 48.6-70.3 88-157.1 88-86.7 0-157-39.4-157-88 0-48.6 70.3-88 157-88 86.8 0 157.1 39.4 157.1 88z"/><path class="k" d="m1738.7 948.1c0 47-67.9 85-151.8 85-83.8 0-151.7-38.1-151.7-85 0-47 67.9-85 151.7-85 83.9 0 151.8 38 151.8 85z"/><path class="l" d="m1733.5 948.1c0 45.3-65.6 82.1-146.6 82.1-80.9 0-146.5-36.8-146.5-82.1 0-45.4 65.6-82.1 146.5-82.1 81 0 146.6 36.7 146.6 82.1z"/></g><path class="m" d="m1585.9 1557l310 181.9c21.1 12.4 47.3 12.3 68.3-0.3l360.5-216.2c13.3-8 13.1-27.2-0.4-34.9l-204-115.9c-20.4-11.6-20-41.3 0.8-52.2l83.4-44"/><path class="m" d="m1625.8 899.7l214 110.1c14.3 7.3 14.7 27.6 0.7 35.5l-234.5 131.2"/><path class="m" d="m526.1 1611.7l-117.5 65c-25.1 13.9-55.8 13.7-80.8-0.5l-289.7-165c-20-11.4-20.1-40.2-0.1-51.7l320.7-184.1"/><path class="n" d="m1728.6 207.7l-298.7-173.3c-9.2-5.3-19.7-3.7-27 2.1l-27.7 18 18.8 51.7v627.1c0 19.9 10.6 38.4 27.8 48.4l273.9 158.8 11 30.3 31.7-20.2q0.2-0.1 0.4-0.2c7.2-4.4 12.4-12.2 12.4-21.8v-681.7c0-16.2-8.6-31.1-22.6-39.2z"/><path class="o" d="m1393.4 800.2l291.2 168.9c17 9.8 38.2-2.4 38.2-22v-681.6c0-16.2-8.6-31.2-22.6-39.3l-298.7-173.3c-15.9-9.2-35.9 2.3-35.9 20.7v678.3c0 19.9 10.6 38.3 27.8 48.3z"/><path class="p" d="m1691.9 240.4l-84.4-48.9c-3-1.8-6.7-1.9-9.8-0.2l-10.3 5.4c-4 2-8.7 1.9-12.6-0.3l-63.6-36.1c-2.3-1.3-4-3.5-4.7-6.1l-5.7-20.9c-0.8-2.9-2.7-5.3-5.2-6.7l-102.4-59.4q-1.8-1-3.7-1c-3.6 0-7.4 2.8-7.4 7.4v678.3c0 14 7.4 27 19.6 34l291.2 168.9q2.2 1.3 4.5 1.3c2.3 0 4.6-0.9 6.3-2.6 1.2-1.2 2.7-3.2 2.7-6.4v-681.6c0-10.3-5.6-19.9-14.5-25.1z"/><path class="q" d="m1472.9 68.5c0 3.5-6.4 6.4-14.2 6.4-7.8 0-14.1-2.9-14.1-6.4 0-3.6 6.3-6.5 14.1-6.5 7.8 0 14.2 2.9 14.2 6.5z"/><path class="p" d="m1727.6 405.7l19-12.1v-17.9l-19 12.1z"/><path class="p" d="m1727.6 437.5l19-12.1v-17.9l-19 12.1z"/><path class="r" d="m1579.4 312.1l-168.4-98.5c-4.1-2.4-7.5-7.7-7.5-11.8 0-4.2 3.4-5.6 7.5-3.1l168.4 98.4c4.2 2.5 7.5 7.8 7.5 11.9 0 4.1-3.3 5.5-7.5 3.1z"/><path class="s" d="m1579.4 423.4l-168.4-98.5c-4.1-2.4-7.5-7.8-7.5-11.9 0-4.1 3.4-5.5 7.5-3.1l168.4 98.5c4.2 2.4 7.5 7.7 7.5 11.9 0 4.1-3.3 5.5-7.5 3.1z"/><path class="t" d="m1674.1 404.6l-263.1-153.9c-4.1-2.4-7.5-7.7-7.5-11.8 0-4.2 3.4-5.6 7.5-3.2l263.1 153.9c4.1 2.4 7.5 7.7 7.5 11.9 0 4.1-3.4 5.5-7.5 3.1z"/><path class="u" d="m1674.1 441.6l-263.1-153.8c-4.1-2.4-7.5-7.7-7.5-11.9 0-4.1 3.4-5.5 7.5-3.1l263.1 153.9c4.1 2.4 7.5 7.7 7.5 11.8 0 4.2-3.4 5.6-7.5 3.1z"/><path class="v" d="m1579.4 485.8l-168.4-98.5c-4.1-2.4-7.5-7.8-7.5-11.9 0-4.1 3.4-5.5 7.5-3.1l168.4 98.5c4.2 2.4 7.5 7.7 7.5 11.9 0 4.1-3.3 5.5-7.5 3.1z"/><path class="w" d="m1579.4 597l-168.4-98.5c-4.1-2.4-7.5-7.7-7.5-11.8 0-4.2 3.4-5.6 7.5-3.2l168.4 98.5c4.2 2.4 7.5 7.8 7.5 11.9 0 4.1-3.3 5.5-7.5 3.1z"/><path class="x" d="m1674.1 578.2l-263.1-153.8c-4.1-2.4-7.5-7.8-7.5-11.9 0-4.1 3.4-5.5 7.5-3.1l263.1 153.8c4.1 2.4 7.5 7.8 7.5 11.9 0 4.1-3.4 5.5-7.5 3.1z"/><path class="y" d="m1674.1 615.3l-263.1-153.8c-4.1-2.5-7.5-7.8-7.5-11.9 0-4.1 3.4-5.5 7.5-3.1l263.1 153.8c4.1 2.4 7.5 7.8 7.5 11.9 0 4.1-3.4 5.5-7.5 3.1z"/><path class="z" d="m1579.4 659.4l-168.4-98.5c-4.1-2.4-7.5-7.7-7.5-11.8 0-4.2 3.4-5.6 7.5-3.2l168.4 98.5c4.2 2.4 7.5 7.8 7.5 11.9 0 4.1-3.3 5.5-7.5 3.1z"/><path class="A" d="m1579.4 770.7l-168.4-98.5c-4.1-2.4-7.5-7.8-7.5-11.9 0-4.1 3.4-5.5 7.5-3.1l168.4 98.5c4.2 2.4 7.5 7.7 7.5 11.9 0 4.1-3.3 5.5-7.5 3.1z"/><path class="B" d="m1674.1 751.9l-263.1-153.9c-4.1-2.4-7.5-7.7-7.5-11.9 0-4.1 3.4-5.5 7.5-3.1l263.1 153.9c4.1 2.4 7.5 7.7 7.5 11.8 0 4.2-3.4 5.6-7.5 3.2z"/><path class="C" d="m1674.1 788.9l-263.1-153.8c-4.1-2.4-7.5-7.8-7.5-11.9 0-4.1 3.4-5.5 7.5-3.1l263.1 153.8c4.1 2.5 7.5 7.8 7.5 11.9 0 4.1-3.4 5.5-7.5 3.1z"/><path class="D" d="m1873.2 1344.7v48.9l-574.6 331.6v-44.9z"/><path class="D" d="m723.9 1344.7v45l574.7 335.5v-44.9z"/><path class="E" d="m1298.6 1677.9l-574.7-335.6 574.7-335.5 574.6 335.5z"/><path class="F" d="m1873.2 1342.3v48.9l-574.6 331.6v-44.9z"/><path class="G" d="m723.9 1342.3v45l574.7 335.5v-44.9z"/><path class="H" d="m1497.1 558.2l-358.6-208c-11.1-6.4-23.7-4.5-32.4 2.4l-33.2 21.6 22.4 62.2v753c0 23.9 12.8 46 33.5 58l328.9 190.8 13.1 36.3 38.1-24.2q0.2-0.1 0.5-0.3c8.7-5.2 14.9-14.6 14.9-26.2v-818.5c0-19.4-10.4-37.4-27.2-47.1z"/><path class="I" d="m1094.7 1269.7l349.7 202.8c20.3 11.8 45.8-2.9 45.8-26.4v-818.5c0-19.4-10.3-37.4-27.1-47.2l-358.7-208c-19.1-11.1-43.1 2.7-43.1 24.8v814.4c0 24 12.7 46.1 33.4 58.1z"/><path class="p" d="m1453.2 597.5l-101.4-58.7c-3.6-2.2-8.1-2.2-11.9-0.3l-12.3 6.5c-4.8 2.4-10.5 2.3-15.1-0.3l-76.3-43.4c-2.8-1.6-4.8-4.2-5.7-7.3l-6.9-25.2c-0.9-3.3-3.2-6.2-6.2-8l-122.9-71.3q-2.2-1.2-4.5-1.2c-4.3 0-8.9 3.4-8.9 8.9v814.4c0 16.9 8.9 32.5 23.5 41l349.7 202.8q2.6 1.5 5.4 1.5c2.7 0 5.5-1.2 7.5-3.1 1.5-1.4 3.3-3.9 3.3-7.7v-818.5c0-12.3-6.7-23.9-17.3-30.1z"/><path class="J" d="m1190.1 391c0 4.3-7.6 7.7-17 7.7-9.4 0-17-3.4-17-7.7 0-4.2 7.6-7.7 17-7.7 9.4 0 17 3.5 17 7.7z"/><path class="p" d="m1496 796l22.8-14.5v-21.5l-22.8 14.4z"/><path class="p" d="m1496 834.2l22.8-14.5v-21.5l-22.8 14.4z"/><path class="K" d="m1358.9 1507.9l-350.3-205.6c-16.9-9.9-30.7-31.7-30.7-48.7v-798.6c0-17 13.8-22.6 30.7-12.7l350.3 205.5c16.9 10 30.6 31.8 30.6 48.7v798.7c0 16.9-13.7 22.6-30.6 12.7z"/><g style="opacity:.6"><path class="L" d="m1349.1 775.3l-330.8-194.1c-9-5.3-16.4-17-16.4-26.1 0-9 7.4-12.1 16.4-6.8l330.8 194.1c9.1 5.3 16.5 17.1 16.5 26.1 0 9.1-7.4 12.2-16.5 6.8z"/></g><path class="M" d="m1346.4 913.5l-325.3-190.9c-10.6-6.2-19.2-19.9-19.2-30.5v-20.7c0-10.6 8.6-14.1 19.2-7.9l325.3 190.9c10.6 6.2 19.2 19.8 19.2 30.5v20.7c0 10.6-8.6 14.1-19.2 7.9z"/><path class="M" d="m1346.4 1005.8l-325.3-190.9c-10.6-6.3-19.2-19.9-19.2-30.5v-20.7c0-10.6 8.6-14.2 19.2-8l325.3 190.9c10.6 6.3 19.2 19.9 19.2 30.5v20.7c0 10.6-8.6 14.2-19.2 8z"/><path class="M" d="m1346.4 1098l-325.3-190.9c-10.6-6.2-19.2-19.9-19.2-30.5v-20.7c0-10.6 8.6-14.1 19.2-7.9l325.3 190.9c10.6 6.2 19.2 19.9 19.2 30.5v20.7c0 10.6-8.6 14.1-19.2 7.9z"/><path class="M" d="m1346.4 1190.3l-325.3-190.9c-10.6-6.3-19.2-19.9-19.2-30.5v-20.7c0-10.6 8.6-14.2 19.2-7.9l325.3 190.9c10.6 6.2 19.2 19.8 19.2 30.4v20.7c0 10.6-8.6 14.2-19.2 8z"/><path class="M" d="m1346.4 1282.5l-325.3-190.9c-10.6-6.2-19.2-19.8-19.2-30.4v-20.7c0-10.7 8.6-14.2 19.2-8l325.3 190.9c10.6 6.2 19.2 19.9 19.2 30.5v20.7c0 10.6-8.6 14.1-19.2 7.9z"/><path class="L" d="m1141.3 1299.3c0 3.7-3 4.9-6.6 2.7-3.7-2.2-6.6-7-6.6-10.6 0-3.6 2.9-4.8 6.6-2.6 3.6 2.2 6.6 6.9 6.6 10.5z"/><path class="L" d="m1165.5 1314c0 3.6-2.9 4.8-6.6 2.6-3.6-2.2-6.6-6.9-6.6-10.6 0-3.6 3-4.8 6.6-2.6 3.7 2.2 6.6 6.9 6.6 10.6z"/><path class="L" d="m1189.8 1328.6c0 3.6-3 4.8-6.6 2.6-3.7-2.2-6.6-6.9-6.6-10.5 0-3.7 2.9-4.8 6.6-2.7 3.6 2.2 6.6 7 6.6 10.6z"/><path class="N" d="m924.6 1051.6l-537.9-304-28 18 28 733.5 537.9 304z"/><path class="O" d="m896.6 1069.7l-537.9-304.1v751.5l537.9 304z"/><path class="L" d="m378.7 1505.4v-705.5l497.9 281.4v705.5z"/><path class="P" d="m924.6 1051.6l-28 18.1v751.4l28-18z"/><path class="Q" d="m564.4 860.5q-0.7-0.2-1.3-0.4-0.6-0.1-1.2-0.2-0.8-0.2-1.6-0.3-0.4 0-0.8-0.1-1 0-1.9 0-0.2 0-0.4 0-1.1 0.1-2.2 0.3-0.2 0-0.5 0.1-0.8 0.2-1.6 0.4-0.2 0.1-0.5 0.2-1 0.4-1.9 0.9h0.1q-0.1 0-0.1 0l20.1-11.7q0.1 0 0.2-0.1 0.7-0.4 1.4-0.7 0.2 0 0.3-0.1 0.3-0.1 0.5-0.1 0.4-0.2 0.8-0.3 0.4-0.1 0.8-0.2 0.3-0.1 0.5-0.1 0.2-0.1 0.3-0.1 0.9-0.1 1.8-0.2 0 0 0.1 0 0.2 0 0.4 0 0.7 0 1.4 0 0.2 0 0.5 0 0.4 0.1 0.8 0.1 0.4 0.1 0.8 0.1c0.3 0 0.5 0.1 0.8 0.2q0.6 0.1 1.2 0.2 0.3 0.1 0.6 0.2c0.2 0 0.4 0.1 0.7 0.2q1 0.3 2 0.7c0.3 0.1 0.5 0.1 0.7 0.2 0.2 0.1 0.3 0.2 0.5 0.3 1.2 0.5 2.4 1.1 3.6 1.8l23.3 13.4-20.2 11.7-23.2-13.4c-1.2-0.8-2.5-1.3-3.7-1.9q-0.5-0.2-1.1-0.4-1-0.4-2-0.7z"/><path fill-rule="evenodd" class="Q" d="m611.8 868.3l17.1-10c-0.4-0.3-0.8-0.7-1.2-1-1.7-1.4-3.5-2.6-5.3-3.7-1.2-0.7-2.4-1.3-3.6-1.8q-0.6-0.2-1.1-0.4-1-0.4-2-0.7-0.7-0.2-1.3-0.4-0.6-0.1-1.1-0.2-0.8-0.2-1.6-0.3-0.4 0-0.8-0.1-0.9 0-1.8 0-0.2 0-0.5 0-1 0.1-2.1 0.3-0.2 0-0.5 0.1-0.8 0.2-1.5 0.4-0.3 0.1-0.5 0.2-1 0.4-1.9 0.9l20.1-11.7q0.1 0 0.2-0.1 0.7-0.4 1.4-0.7 0.2 0 0.3-0.1 0.2-0.1 0.5-0.1 0.3-0.2 0.7-0.3 0.4-0.1 0.9-0.2 0.2-0.1 0.4-0.1 0.2 0 0.3-0.1 0.9-0.1 1.7-0.2 0.1 0 0.2 0 0.2 0 0.4 0 0.6 0 1.3 0 0.3 0 0.5 0.1 0.4 0 0.9 0 0.3 0.1 0.7 0.1c0.3 0.1 0.5 0.1 0.8 0.2q0.5 0.1 1.1 0.2 0.3 0.1 0.6 0.2c0.3 0 0.5 0.1 0.7 0.2q1 0.3 2 0.7c0.2 0.1 0.5 0.1 0.7 0.2 0.1 0.1 0.3 0.2 0.4 0.2 1.2 0.5 2.4 1.1 3.6 1.8 1.8 1.1 3.6 2.3 5.4 3.7 0.5 0.5 1 1 1.6 1.5 0.8 0.7 1.7 1.4 2.5 2.2 0.4 0.3 0.7 0.7 1.1 1.1q0.5 0.5 0.9 1c0.4 0.4 0.8 0.8 1.1 1.2q1.2 1.3 2.3 2.8 0.4 0.5 0.8 1 0.2 0.3 0.4 0.5 0.3 0.5 0.7 1 0.9 1.3 1.7 2.5 0.7 1.2 1.4 2.4 0.1 0.1 0.1 0.2 0.1 0.1 0.1 0.2 0.6 1 1.2 2 0.6 1.2 1.2 2.4 0.5 1.1 1 2.2 0 0.1 0 0.1 0.1 0.1 0.1 0.2 0.6 1.2 1 2.5 0.6 1.4 1 2.7 0.2 0.7 0.4 1.4 0.1 0.2 0.2 0.5 0.1 0.5 0.3 1 0.4 1.6 0.8 3.3c0.1 0.6 0.2 1.3 0.3 1.9q0.1 0.5 0.2 1.1 0.1 0.4 0.2 0.9 0.3 2.8 0.3 5.6c0 2.3-0.2 4.4-0.6 6.3l23.2 13.4c1.9 1.1 3.7 2.4 5.5 3.8 0.6 0.5 1.1 1 1.7 1.5 0.9 0.8 1.7 1.4 2.6 2.3 0.3 0.3 0.7 0.7 1.1 1.1q0.4 0.5 0.9 1.1c0.4 0.4 0.8 0.7 1.1 1.1q1.3 1.4 2.4 2.9 0.4 0.5 0.8 1.1 0.2 0.2 0.4 0.5 0.4 0.5 0.7 1 0.9 1.3 1.7 2.6 0.8 1.2 1.5 2.4 0.1 0.1 0.1 0.2 0.1 0.1 0.1 0.2 0.6 1 1.2 2.1 0.6 1.2 1.2 2.4 0.6 1.2 1.1 2.3 0 0.1 0 0.1 0.1 0.1 0.1 0.1 0.5 1.3 1 2.7 0.6 1.3 1 2.7 0.3 0.7 0.5 1.4 0 0.3 0.1 0.6 0.2 0.5 0.3 1 0.5 1.6 0.9 3.3c0.1 0.7 0.2 1.3 0.3 2q0.1 0.5 0.2 1.1c0 0.3 0.1 0.6 0.1 0.9q0.4 2.9 0.4 5.7c0 9.2-3.2 15.7-8.5 18.7l-20.1 11.7c5.2-3.1 8.5-9.5 8.5-18.7 0-2.2-0.2-4.4-0.5-6.7q-0.1-0.5-0.2-1-0.5-3.2-1.5-6.3-0.1-0.3-0.2-0.6-1-3.5-2.5-6.9 0-0.1 0-0.1-1.6-3.5-3.5-6.8 0-0.1-0.1-0.2-1.9-3.2-4-6.2-0.2-0.3-0.4-0.5-2.1-2.7-4.3-5.2-0.5-0.5-1-1c-1.1-1.2-2.4-2.3-3.6-3.4-0.6-0.5-1.1-1-1.7-1.5-1.8-1.4-3.6-2.7-5.5-3.8l-23.2-13.4c0.4-1.9 0.6-4 0.6-6.3 0-2.2-0.2-4.3-0.5-6.6q-0.1-0.5-0.2-1c0-0.3-0.1-0.5-0.2-0.8l-17.1 9.9q0 0-0.1 0.1-0.3 0.2-0.7 0.3-0.4 0.2-0.8 0.3-0.2 0.1-0.5 0.1-0.1 0-0.1 0-0.1 0.1-0.2 0.1-0.5 0.1-0.9 0.1-0.5 0-1 0-0.1 0-0.3 0-0.1 0-0.2 0-0.3-0.1-0.6-0.1-0.6-0.1-1.3-0.3-0.2-0.1-0.5-0.2-0.3-0.1-0.5-0.1c-0.3-0.1-0.5-0.2-0.7-0.3q-1-0.4-2-1-1.5-0.8-2.8-1.9-0.5-0.4-0.9-0.8c-0.4-0.3-0.9-0.7-1.3-1.1q-0.3-0.3-0.5-0.6-0.3-0.3-0.5-0.5-0.3-0.3-0.6-0.6-0.6-0.7-1.2-1.5-0.2-0.3-0.4-0.5-0.1-0.2-0.2-0.3-0.2-0.3-0.4-0.5-0.4-0.6-0.8-1.3-0.4-0.6-0.8-1.2 0-0.1 0-0.2-0.1 0-0.1-0.1-0.3-0.5-0.6-1-0.3-0.6-0.6-1.2-0.3-0.6-0.5-1.2-0.1 0-0.1-0.1 0 0 0 0-0.3-0.7-0.5-1.4-0.3-0.6-0.5-1.3-0.2-0.4-0.3-0.8 0-0.1 0-0.3-0.1-0.2-0.2-0.5-0.2-0.8-0.4-1.6-0.1-0.6-0.2-1.1 0-0.2-0.1-0.5 0-0.2-0.1-0.5-0.2-1.5-0.2-2.9c0.1-2.3 0.5-4.3 1.2-5.9 0.8-1.6 1.8-2.8 3.1-3.5zm-9.7-16.7q0 0 0 0zm43 41.2q0.2 0.1 0.5 0.1 1.2 0.4 2.4 0.6 0.1 0 0.2 0c0.5 0 1-0.1 1.4-0.1-0.3-1.5-0.6-3-1-4.5q-0.1-0.3-0.2-0.6-1-3.3-2.5-6.7 0 0 0-0.1-1.5-3.4-3.4-6.6 0-0.1-0.1-0.2-1.8-3.2-3.9-6.1-0.2-0.2-0.4-0.5-2-2.6-4.2-5-0.4-0.5-0.9-1c-1.1-1.1-2.2-2.2-3.4-3.2-1.2 1.8-1.9 4.1-1.9 7.1q0 1.7 0.2 3.4 0.1 0.3 0.1 0.5 0.3 1.6 0.8 3.3 0 0.1 0.1 0.3 0.5 1.7 1.3 3.4 0 0.1 0 0.1 0.8 1.8 1.7 3.4 0 0.1 0.1 0.1 0.9 1.7 2 3.2 0.1 0.1 0.2 0.3 1.1 1.3 2.2 2.6 0.2 0.2 0.5 0.5 0.9 0.9 1.8 1.7 0.5 0.4 0.9 0.8 1.4 1.1 2.8 1.9c0.9 0.5 1.8 0.9 2.7 1.3z"/><path fill-rule="evenodd" class="R" d="m594.4 876.9q-0.6-3.6-0.6-7.1c0.1-18 12.9-25.3 28.6-16.2 15.7 9.1 28.4 31 28.3 49.1 0 2.3-0.2 4.4-0.6 6.3l23.2 13.4c16.1 9.3 29.1 31.8 29 50.2 0 18.5-13.1 25.9-29.2 16.6l-102.1-58.9c-16.1-9.3-29-31.8-29-50.2 0.1-18.5 13.1-25.9 29.2-16.6zm27.8 26.3c8.1 4.7 14.8 0.9 14.8-8.5 0-9.4-6.6-20.7-14.7-25.4-8.2-4.7-14.8-1-14.8 8.4 0 9.3 6.5 20.8 14.7 25.5z"/><path class="S" d="m724 1093.9l-160.7-90.3c-4.7-2.7-8.6-8.7-8.6-13.4 0-4.8 3.9-6.5 8.6-3.8l160.7 90.3c4.7 2.7 8.6 8.8 8.6 13.5 0 4.7-3.9 6.4-8.6 3.7z"/><path class="T" d="m816.3 1209.9l-295.5-166.2c-4.3-2.5-7.9-8-7.9-12.3 0-4.3 3.6-5.8 7.9-3.4l295.5 166.2c4.3 2.4 7.9 7.9 7.9 12.2 0 4.4-3.6 5.9-7.9 3.5z"/><path class="U" d="m816.3 1246.4l-295.5-166.3c-4.3-2.4-7.9-7.9-7.9-12.2 0-4.3 3.6-5.9 7.9-3.4l295.5 166.2c4.3 2.4 7.9 7.9 7.9 12.2 0 4.3-3.6 5.9-7.9 3.5z"/><path class="V" d="m816.3 1282.8l-295.5-166.2c-4.3-2.4-7.9-7.9-7.9-12.2 0-4.3 3.6-5.9 7.9-3.5l295.5 166.3c4.3 2.4 7.9 7.9 7.9 12.2 0 4.3-3.6 5.9-7.9 3.4z"/><path fill-rule="evenodd" class="W" d="m491.7 1022.6v69.5c0 4.5-2.5 6.8-5.6 5l-60.4-33.9c-3-1.8-5.5-6.8-5.5-11.3v-69.5c0-4.5 2.5-6.7 5.5-5l60.4 34c3.1 1.7 5.6 6.7 5.6 11.2zm-10.6 20.8l-2.3-8.6-30.2 5.6-7.6-29.8-6.7-0.8 11.6 41.9z"/><path class="X" d="m816.3 1338.4l-295.5-166.2c-4.3-2.4-7.9-7.9-7.9-12.2 0-4.4 3.6-5.9 7.9-3.5l295.5 166.2c4.3 2.5 7.9 8 7.9 12.3 0 4.3-3.6 5.8-7.9 3.4z"/><path class="Y" d="m816.3 1374.9l-295.5-166.2c-4.3-2.4-7.9-8-7.9-12.3 0-4.3 3.6-5.8 7.9-3.4l295.5 166.2c4.3 2.4 7.9 8 7.9 12.3 0 4.3-3.6 5.8-7.9 3.4z"/><path class="Z" d="m816.3 1411.4l-295.5-166.2c-4.3-2.5-7.9-8-7.9-12.3 0-4.3 3.6-5.8 7.9-3.4l295.5 166.2c4.3 2.4 7.9 7.9 7.9 12.3 0 4.3-3.6 5.8-7.9 3.4z"/><path fill-rule="evenodd" class="a0" d="m491.7 1151.1v69.6c0 4.5-2.5 6.7-5.6 5l-60.4-34c-3-1.7-5.5-6.7-5.5-11.2v-69.6c0-4.4 2.5-6.7 5.5-5l60.4 34c3.1 1.7 5.6 6.8 5.6 11.2zm-10.6 20.8l-2.3-8.5-30.2 5.6-7.6-29.9-6.7-0.7 11.6 41.9z"/><path class="a1" d="m816.3 1467l-295.5-166.3c-4.3-2.4-7.9-7.9-7.9-12.2 0-4.3 3.6-5.9 7.9-3.4l295.5 166.2c4.3 2.4 7.9 7.9 7.9 12.2 0 4.3-3.6 5.9-7.9 3.5z"/><path class="a2" d="m816.3 1503.4l-295.5-166.2c-4.3-2.4-7.9-7.9-7.9-12.2 0-4.3 3.6-5.9 7.9-3.4l295.5 166.2c4.3 2.4 7.9 7.9 7.9 12.2 0 4.3-3.6 5.9-7.9 3.4z"/><path class="a3" d="m816.3 1539.9l-295.5-166.2c-4.3-2.4-7.9-7.9-7.9-12.2 0-4.3 3.6-5.9 7.9-3.5l295.5 166.3c4.3 2.4 7.9 7.9 7.9 12.2 0 4.3-3.6 5.9-7.9 3.4z"/><path fill-rule="evenodd" class="a4" d="m491.7 1279.7v69.5c0 4.5-2.5 6.7-5.6 5l-60.4-33.9c-3-1.8-5.5-6.8-5.5-11.3v-69.5c0-4.5 2.5-6.7 5.5-5l60.4 34c3.1 1.7 5.6 6.7 5.6 11.2zm-10.6 20.8l-2.3-8.6-30.2 5.6-7.6-29.8-6.7-0.8 11.6 41.9z"/><path class="a5" d="m816.3 1595.5l-295.5-166.2c-4.3-2.4-7.9-7.9-7.9-12.3 0-4.3 3.6-5.8 7.9-3.4l295.5 166.2c4.3 2.5 7.9 8 7.9 12.3 0 4.3-3.6 5.8-7.9 3.4z"/><path class="a6" d="m816.3 1632l-295.5-166.2c-4.3-2.4-7.9-8-7.9-12.3 0-4.3 3.6-5.8 7.9-3.4l295.5 166.2c4.3 2.4 7.9 8 7.9 12.3 0 4.3-3.6 5.8-7.9 3.4z"/><path class="a7" d="m816.3 1668.5l-295.5-166.2c-4.3-2.5-7.9-8-7.9-12.3 0-4.3 3.6-5.8 7.9-3.4l295.5 166.2c4.3 2.4 7.9 7.9 7.9 12.2 0 4.4-3.6 5.9-7.9 3.5z"/><path fill-rule="evenodd" class="a8" d="m491.7 1408.2v69.6c0 4.5-2.5 6.7-5.6 5l-60.4-34c-3-1.7-5.5-6.7-5.5-11.2v-69.6c0-4.5 2.5-6.7 5.5-5l60.4 34c3.1 1.7 5.6 6.7 5.6 11.2zm-10.6 20.8l-2.3-8.6-30.2 5.7-7.6-29.9-6.7-0.7 11.6 41.9z"/><path class="a9" d="m2002.7 1352.8c0 6.3-2.5 10.5-6.6 12.3-4.1 1.8-10 1.1-16.2-2.5l-393.9-225.7c-12.5-7.1-22.8-23.2-22.8-35.8 0-6.3 2.6-10.6 6.7-12.3 4.1-1.9 9.8-1.2 16.1 2.3l393.9 225.8c12.6 7.1 22.8 23.3 22.8 35.9z"/><path class="aa" d="m2002.7 1450.5c0 6.3-2.5 10.5-6.6 12.3-4.1 1.9-10 1.2-16.2-2.4l-393.9-225.7c-12.5-7.2-22.8-23.3-22.8-35.9 0-6.3 2.6-10.5 6.7-12.4 4.1-1.7 9.8-1.1 16.1 2.5l393.9 225.7c12.6 7.2 22.8 23.3 22.8 35.9z"/><path class="ab" d="m2002.7 1548.3c0 6.3-2.5 10.5-6.6 12.3-4.1 1.8-10 1-16.2-2.5l-393.9-225.8c-12.5-7.1-22.8-23.2-22.8-35.7 0-6.4 2.6-10.5 6.7-12.4 4.1-1.7 9.8-1.1 16.1 2.5l393.9 225.7c12.6 7.2 22.8 23.3 22.8 35.9z"/><path class="ac" d="m1788.7 1207.7v45.7l-202.7-116.5c-12.5-7.1-22.8-23.2-22.8-35.8 0-6.3 2.6-10.6 6.7-12.3 4.1-1.9 9.8-1.2 16.1 2.3z"/><path class="ad" d="m1586 1188.9l272.9 156.9v45.7l-272.9-156.8c-12.5-7.2-22.8-23.3-22.8-35.9 0-6.3 2.6-10.5 6.7-12.4 4.1-1.7 9.8-1.1 16.1 2.5z"/><path class="ae" d="m1586 1286.7l331.9 190.2v45.7l-331.9-190.3c-12.5-7.1-22.8-23.2-22.8-35.7 0-6.4 2.6-10.5 6.7-12.4 4.1-1.7 9.8-1.1 16.1 2.5z"/><path class="af" d="m2394.9 599l-298.7-173.2c-9.2-5.4-19.7-3.8-26.9 2l-27.7 18 18.7 51.8v627.1c0 19.9 10.6 38.3 27.8 48.3l274 158.9 10.9 30.2 31.7-20.1q0.2-0.1 0.4-0.3c7.3-4.3 12.4-12.1 12.4-21.8v-681.6c0-16.2-8.6-31.2-22.6-39.3z"/><path class="ag" d="m2059.8 1191.6l291.2 168.9c16.9 9.8 38.2-2.4 38.2-22v-681.7c0-16.2-8.6-31.1-22.6-39.2l-298.7-173.3c-16-9.2-36 2.3-36 20.7v678.2c0 19.9 10.7 38.4 27.9 48.4z"/><path class="p" d="m2358.3 631.8l-84.4-49c-3-1.7-6.8-1.8-9.9-0.2l-10.3 5.4c-3.9 2.1-8.7 2-12.5-0.2l-63.6-36.2c-2.3-1.3-4-3.5-4.7-6l-5.8-21c-0.8-2.8-2.6-5.2-5.1-6.7l-102.4-59.3q-1.8-1.1-3.7-1.1c-3.6 0-7.5 2.9-7.5 7.5v678.2c0 14.1 7.5 27.1 19.7 34.1l291.2 168.9q2.1 1.3 4.4 1.3c2.3 0 4.6-1 6.3-2.6 1.3-1.2 2.7-3.3 2.7-6.4v-681.7c0-10.3-5.5-19.8-14.4-25z"/><path class="ah" d="m2139.2 459.8c0 3.6-6.3 6.4-14.1 6.4-7.9 0-14.2-2.8-14.2-6.4 0-3.5 6.3-6.4 14.2-6.4 7.8 0 14.1 2.9 14.1 6.4z"/><path class="p" d="m2393.9 797l19.1-12v-17.9l-19.1 12z"/><path class="p" d="m2393.9 828.9l19.1-12.1v-17.9l-19.1 12z"/><path class="ai" d="m2245.8 703.5l-168.5-98.5c-4.1-2.4-7.5-7.7-7.5-11.9 0-4.1 3.4-5.5 7.5-3.1l168.5 98.5c4.1 2.4 7.5 7.8 7.5 11.9 0 4.1-3.4 5.5-7.5 3.1z"/><path class="aj" d="m2245.8 814.7l-168.5-98.5c-4.1-2.4-7.5-7.7-7.5-11.8 0-4.2 3.4-5.6 7.5-3.1l168.5 98.4c4.1 2.5 7.5 7.8 7.5 11.9 0 4.1-3.4 5.5-7.5 3.1z"/><path class="ak" d="m2340.5 795.9l-263.2-153.8c-4.1-2.4-7.5-7.8-7.5-11.9 0-4.1 3.4-5.5 7.5-3.1l263.2 153.8c4.1 2.4 7.5 7.8 7.5 11.9 0 4.1-3.4 5.5-7.5 3.1z"/><path class="al" d="m2340.5 833l-263.2-153.8c-4.1-2.4-7.5-7.8-7.5-11.9 0-4.1 3.4-5.5 7.5-3.1l263.2 153.8c4.1 2.4 7.5 7.8 7.5 11.9 0 4.1-3.4 5.5-7.5 3.1z"/><path class="am" d="m2245.8 877.1l-168.5-98.4c-4.1-2.5-7.5-7.8-7.5-11.9 0-4.1 3.4-5.5 7.5-3.1l168.5 98.4c4.1 2.5 7.5 7.8 7.5 11.9 0 4.1-3.4 5.5-7.5 3.1z"/><path class="an" d="m2245.8 988.4l-168.5-98.5c-4.1-2.4-7.5-7.8-7.5-11.9 0-4.1 3.4-5.5 7.5-3.1l168.5 98.5c4.1 2.4 7.5 7.7 7.5 11.9 0 4.1-3.4 5.5-7.5 3.1z"/><path class="ao" d="m2340.5 969.6l-263.2-153.9c-4.1-2.4-7.5-7.7-7.5-11.8 0-4.2 3.4-5.6 7.5-3.2l263.2 153.9c4.1 2.4 7.5 7.7 7.5 11.9 0 4.1-3.4 5.5-7.5 3.1z"/><path class="ap" d="m2340.5 1006.7l-263.2-153.9c-4.1-2.4-7.5-7.7-7.5-11.9 0-4.1 3.4-5.5 7.5-3.1l263.2 153.9c4.1 2.4 7.5 7.7 7.5 11.8 0 4.2-3.4 5.6-7.5 3.2z"/><path class="aq" d="m2245.8 1050.8l-168.5-98.5c-4.1-2.4-7.5-7.8-7.5-11.9 0-4.1 3.4-5.5 7.5-3.1l168.5 98.5c4.1 2.4 7.5 7.7 7.5 11.9 0 4.1-3.4 5.5-7.5 3.1z"/><path class="ar" d="m2245.8 1162l-168.5-98.5c-4.1-2.4-7.5-7.7-7.5-11.8 0-4.2 3.4-5.6 7.5-3.1l168.5 98.4c4.1 2.4 7.5 7.8 7.5 11.9 0 4.1-3.4 5.5-7.5 3.1z"/><path class="as" d="m2340.5 1143.2l-263.2-153.8c-4.1-2.4-7.5-7.8-7.5-11.9 0-4.1 3.4-5.5 7.5-3.1l263.2 153.8c4.1 2.4 7.5 7.8 7.5 11.9 0 4.1-3.4 5.5-7.5 3.1z"/><path class="at" d="m2340.5 1180.3l-263.2-153.8c-4.1-2.4-7.5-7.8-7.5-11.9 0-4.1 3.4-5.5 7.5-3.1l263.2 153.8c4.1 2.4 7.5 7.8 7.5 11.9 0 4.1-3.4 5.5-7.5 3.1z"/><path class="m" d="m707.5 1714.2l-108.5 63.1c-19.7 11.5-19.7 40.1 0.1 51.5l283.6 164.4c25.9 15 57.9 14.9 83.6-0.4l289.3-172c13.4-7.9 13.2-27.2-0.3-34.8l-206.1-117.1c-16.8-9.6-16.9-33.8-0.1-43.5l40.4-23.4"/><path class="au" d="m691.6 739.9l35.5-20.7-7.9 52.9-35.5 20.6z"/><path class="av" d="m476.1 429.5l35.5-20.6 50.1 20.1-35.4 20.6z"/><path class="aw" d="m714.1 654.5l35.4-20.6c-1.5 0.9-3.1 1.6-4.7 2.3q-0.4 0.1-0.7 0.2c-1.5 0.6-3 1-4.6 1.4-0.3 0-0.6 0.1-0.9 0.2-1.8 0.4-3.6 0.6-5.5 0.7q-0.5 0-1.1 0-2.7 0.2-5.5-0.1-0.4 0-0.7 0-3-0.3-6.1-1-0.3 0-0.6-0.1-3.2-0.7-6.4-1.8-0.3-0.1-0.5-0.1-3.4-1.2-6.9-2.8-0.2-0.1-0.5-0.2-3.6-1.7-7.2-3.8-3.7-2.1-7.3-4.6-0.2-0.2-0.5-0.4-3.3-2.3-6.6-4.9-0.4-0.3-0.7-0.6-3.2-2.6-6.2-5.5-0.4-0.3-0.7-0.6-3.1-3-6.1-6.1-0.3-0.3-0.5-0.5-3.2-3.4-6.2-7 0 0 0-0.1-3.1-3.7-6-7.6 0 0 0 0-2.7-3.6-5.1-7.3c-1-1.6-2-3.1-2.9-4.7-0.8-1.3-1.7-2.6-2.5-4q-0.5-0.9-1-1.9-2-3.4-3.7-6.8-0.2-0.4-0.4-0.7-2.1-4.2-4-8.5-0.1-0.2-0.2-0.4-1.8-4.2-3.4-8.5-0.1-0.2-0.2-0.5-1.6-4.4-2.9-8.7-0.1-0.3-0.2-0.5-1.2-4.2-2.2-8.4-0.1-0.4-0.2-0.8-1-4.3-1.7-8.6 0-0.1 0-0.2-0.7-4.3-1-8.5 0-0.4-0.1-0.8-0.3-4.2-0.3-8.4 0-4.1 0.4-8 0-0.3 0-0.7 0.4-3.5 1-6.8 0.1-0.4 0.2-0.9 0.7-3.1 1.6-6 0.2-0.6 0.3-1.1 0.9-2.7 2.1-5.2 0.1-0.3 0.2-0.6 1.3-2.8 2.9-5.3c0.2-0.2 0.3-0.4 0.5-0.6q1.3-2 2.8-3.8 0.6-0.6 1.1-1.2 1.4-1.4 2.8-2.7 0.6-0.5 1.2-1c1.3-1.1 2.7-2.1 4.2-2.9l-35.5 20.6c-1.5 0.8-2.9 1.8-4.2 2.9q-0.6 0.5-1.2 1-1.4 1.3-2.7 2.7-0.6 0.6-1.2 1.2-1.5 1.8-2.8 3.8c-0.1 0.2-0.3 0.4-0.4 0.6q-0.1 0.1-0.1 0.1-1.5 2.4-2.8 5 0 0.1-0.1 0.2-0.1 0.3-0.2 0.6c-0.5 1.1-1 2.2-1.4 3.4-0.3 0.6-0.4 1.2-0.6 1.8q-0.2 0.5-0.4 1.1-0.2 0.4-0.3 0.9-0.6 1.8-1 3.8-0.1 0.6-0.3 1.3-0.1 0.5-0.1 0.9-0.2 0.7-0.3 1.3-0.3 1.7-0.5 3.5-0.1 1-0.2 2-0.1 0.4-0.1 0.7 0 0.4-0.1 0.8-0.1 1.7-0.2 3.5-0.1 1.7-0.1 3.5 0 0.1 0 0.2 0 1.7 0.1 3.3 0 1.8 0.1 3.6 0.1 0.8 0.2 1.6 0 0.3 0 0.7 0.1 0.6 0.1 1.2 0.2 1.8 0.4 3.6 0.2 1.8 0.5 3.7v0.1q0.1 0 0.1 0 0.2 1.8 0.6 3.5 0.3 1.9 0.7 3.9 0.2 0.6 0.4 1.3 0 0.4 0.1 0.8 0.2 0.8 0.4 1.7 0.5 1.9 1 3.9 0.4 1.4 0.9 2.8 0 0.2 0.1 0.5 0.1 0.3 0.2 0.5 0.6 1.9 1.2 3.8 0.6 1.9 1.3 3.7 0.1 0.4 0.2 0.7 0.1 0.3 0.2 0.6 0.5 1.1 0.9 2.3 0.7 1.8 1.5 3.5 0.5 1.3 1 2.6 0.1 0.2 0.2 0.4 0.1 0.3 0.2 0.5 0.8 1.8 1.6 3.5 1 2 1.9 3.9 0.2 0.3 0.3 0.6 0.2 0.4 0.4 0.7 0.8 1.6 1.6 3.1c0.7 1.2 1.4 2.5 2.1 3.7q0.5 1 1.1 1.9 0.2 0.4 0.4 0.8c0.6 1.1 1.3 2.1 2 3.2 1 1.6 1.9 3.1 2.9 4.7q0.3 0.4 0.5 0.7 2.2 3.4 4.6 6.6 0 0 0 0 1.6 2.2 3.3 4.3 1.3 1.7 2.7 3.3 0 0.1 0 0.1 0.1 0 0.1 0.1 1.4 1.6 2.8 3.3 1.4 1.6 2.8 3.1 0.3 0.3 0.5 0.5 0.3 0.3 0.5 0.5 1 1.1 2 2.1 1.6 1.6 3.1 3.1 0.5 0.4 1 0.9 0.3 0.3 0.7 0.7 0.8 0.7 1.5 1.4 1.6 1.4 3.3 2.8 0.7 0.6 1.4 1.2 0.4 0.3 0.7 0.6 0.6 0.4 1.1 0.9 1.6 1.2 3.2 2.4 1.2 0.8 2.4 1.7 0.2 0.1 0.4 0.3 0.2 0.1 0.4 0.3 1.5 1 3.1 2 1.5 1 3.1 1.9 0.3 0.2 0.7 0.4 1.2 0.7 2.3 1.3 1.5 0.8 3 1.6 1 0.4 1.9 0.9 0.3 0.1 0.5 0.2 0.3 0.1 0.6 0.3 1.4 0.6 2.9 1.2 1.5 0.6 2.9 1.1 0.3 0.1 0.5 0.2 0.3 0 0.5 0.1 1 0.4 2 0.7 1.5 0.4 3 0.8 0.7 0.2 1.4 0.3 0.3 0.1 0.7 0.2 0.4 0.1 0.9 0.2 1.6 0.3 3.2 0.5 0.9 0.1 1.9 0.2 0.3 0 0.7 0.1 0.3 0 0.6 0 1.8 0.1 3.5 0.1c0.5 0 0.9 0 1.4 0q0.6-0.1 1.2-0.1c0.4 0 0.8 0 1.1 0q2.2-0.2 4.3-0.7 0 0 0 0c0.3 0 0.6-0.2 0.9-0.2 1.4-0.3 2.8-0.7 4.2-1.2q0.2-0.1 0.4-0.2 0.3-0.1 0.7-0.2c1.6-0.7 3.2-1.4 4.8-2.3z"/><g clip-path="url(#cp1)"><path class="ax" d="m810.5 783.5l35.5-20.6q-7 6.3-15.1 11l-35.5 20.7q8.1-4.7 15.1-11.1z"/></g><g clip-path="url(#cp2)"><path class="ax" d="m529.3 336.4l35.5-20.6q7.4-4.3 15.5-7.1l-35.5 20.6q-8.1 2.8-15.5 7.1z"/><path class="ay" d="m544.8 329.3l35.5-20.6q1.7-0.6 3.4-1.1l-35.5 20.6q-1.7 0.5-3.4 1.1z"/></g><path class="az" d="m780.8 719.3l35.5-20.7 29.7 64.3-35.5 20.6z"/><path class="aA" d="m548.2 328.2l35.5-20.6 40.7 57.9-35.5 20.6z"/><path class="aB" d="m667.8 370.2q-1.3-0.4-2.6-0.8c-0.5-0.1-1.1-0.3-1.6-0.4q-1.4-0.4-2.7-0.8-0.7-0.2-1.3-0.3c-0.5-0.2-1.1-0.3-1.6-0.4q-1.5-0.3-2.9-0.6-0.6-0.2-1.2-0.3c-0.5-0.1-1-0.2-1.5-0.2q-1.6-0.3-3.1-0.6c-0.5 0-0.9-0.1-1.3-0.2-0.4 0-0.8-0.1-1.2-0.1q-1.8-0.2-3.6-0.4c-0.5 0-1-0.1-1.5-0.1q-0.4 0-0.8 0-2.3-0.2-4.7-0.2c-0.3 0-0.7 0-1.1 0q-0.1 0-0.2 0-3.2 0-6.4 0.3-0.3 0-0.6 0-1.7 0.1-3.5 0.4l-35.5 20.6q2.1-0.3 4.1-0.4 3.2-0.3 6.4-0.3 0.7 0 1.4 0 2.3 0 4.7 0.2 1.1 0 2.2 0.1 1.8 0.2 3.6 0.4 1.2 0.2 2.5 0.3 1.6 0.3 3.2 0.6 1.3 0.2 2.6 0.5 1.5 0.3 2.9 0.6 1.4 0.4 2.9 0.7 1.3 0.4 2.7 0.8c1.4 0.4 2.8 0.8 4.3 1.3z"/><path class="aC" d="m834.2 659.6q0.4-1.8 0.8-3.7l-35.5 20.6c-0.3 1.7-0.7 3.3-1.1 4.9q-0.5 2.1-1 4.2-0.4 1.2-0.7 2.4-1 3.5-2.2 6.7 0 0 0 0.1c-1 2.4-2 4.8-3 7.1q-0.6 1.2-1.1 2.3-0.6 1.1-1.2 2.2-0.7 1.4-1.4 2.7-0.7 1-1.3 2-0.5 0.9-1 1.7c-1.5 2.2-3 4.4-4.7 6.5l35.5-20.7c1.6-2 3.2-4.2 4.6-6.4 0.2-0.3 0.4-0.5 0.6-0.8q0.2-0.4 0.5-0.9 0.6-1 1.2-2.1 0.8-1.3 1.5-2.6 0.6-1.1 1.1-2.2c0.3-0.5 0.5-1 0.8-1.5 0.1-0.2 0.2-0.6 0.3-0.8 1.1-2.3 2.1-4.7 3-7.1v-0.1h0.1q1.1-3.3 2.2-6.7 0.1-0.3 0.2-0.7c0.1-0.5 0.3-1.2 0.4-1.7q0.6-2.1 1.1-4.2c0.1-0.4 0.2-0.8 0.3-1.2z"/><path class="aD" d="m715.1 446.4q0.7 0.8 1.4 1.6 4.7 4.9 9.3 10.2 0.6 0.7 1.3 1.5 4.8 5.7 9.4 11.6l35.5-20.6q-1-1.3-2-2.5-2.6-3.3-5.2-6.5-1.1-1.3-2.3-2.6-0.6-0.8-1.3-1.5-0.8-1-1.7-2-2.6-3-5.3-6-1.1-1.1-2.2-2.3-0.7-0.7-1.5-1.5-1-1-1.9-2.1-3-2.9-5.9-5.8-0.9-0.8-1.8-1.6-0.8-0.8-1.6-1.5c-0.9-0.9-1.8-1.7-2.7-2.5q-3.1-2.8-6.2-5.4-0.9-0.8-1.7-1.5l-35.5 20.7c3.6 2.9 7.1 6.1 10.6 9.3q0.8 0.7 1.6 1.5 4.9 4.6 9.7 9.5z"/><path class="aE" d="m795.3 591.1q0.1 0.5 0.2 0.9 1.8 7.4 3.1 14.8l35.5-20.6q-0.2-1.1-0.4-2.2-0.7-3.5-1.5-7.1-0.6-2.7-1.2-5.5-0.2-0.5-0.3-0.9 0-0.4-0.1-0.8-0.9-3.6-1.9-7.2-1-3.6-2.1-7.2-1.1-3.5-2.3-7.1-1.2-3.4-2.4-6.9-0.2-0.5-0.4-1.1-0.2-0.5-0.4-1-0.9-2.3-1.7-4.6-1.3-3.3-2.7-6.5-0.7-1.8-1.5-3.6l-35.5 20.6q3.2 7.3 5.9 14.7 0.2 0.5 0.4 1c3.7 10.1 6.8 20.2 9.3 30.3z"/><path class="aF" d="m685.6 364.2l35.5-20.6 7.6 61.8-35.5 20.7z"/><path class="aG" d="m685.6 364.2l35.5-20.6q-2.5-1.9-5.1-3.6c-1.6-1.1-3.1-2.1-4.6-3.1q-1.1-0.7-2.2-1.4-0.5-0.3-1-0.7-4-2.5-7.9-4.8-0.9-0.6-1.9-1.1-3-1.7-6-3.4c-1.3-0.7-2.6-1.3-3.9-2q-1.2-0.6-2.3-1.2-0.7-0.3-1.4-0.7-3.7-1.8-7.4-3.5-0.8-0.3-1.7-0.7l-35.4 20.6q5.2 2.3 10.4 4.9 1.2 0.6 2.3 1.2c3.3 1.7 6.6 3.5 10 5.4q5.4 3.2 10.7 6.6 1.1 0.7 2.2 1.4c3.3 2.2 6.5 4.4 9.7 6.7z"/><path class="aH" d="m798.6 606.8l35.5-20.6 50.1 37.9-35.4 20.6z"/><path class="aI" d="m885.7 644.8c-0.1-1.5-0.2-2.9-0.3-4.4q0-1.3-0.1-2.6 0-1-0.1-2-0.3-4.5-0.7-8.9-0.1-1.4-0.3-2.8l-35.4 20.6q0.7 6.9 1 13.7 0.1 1.3 0.2 2.6c0.2 4.4 0.3 8.7 0.3 13q0 5.4-0.3 10.6-0.1 1.4-0.2 2.7c-0.1 3.1-0.3 6.1-0.6 9l35.4-20.6q0.3-2.1 0.4-4.4c0.2-1.5 0.2-3.1 0.3-4.6q0.1-1.4 0.2-2.7 0-0.6 0.1-1.1 0.1-4.4 0.2-9 0-0.2 0-0.5 0-4.3-0.1-8.6z"/><path class="aJ" d="m736.5 471.3l35.5-20.6 40.9-10.8-35.4 20.6z"/><path class="aK" d="m809.6 515.5l35.4-20.6-29.8 29.6-35.5 20.6z"/><path class="aL" d="m791.1 481.9c1.2 1.9 2.4 3.9 3.5 5.9 0.7 1.1 1.3 2.2 1.9 3.3 2.1 3.7 4.3 7.5 6.3 11.2q3.5 6.6 6.8 13.2l35.4-20.6q-0.4-0.9-0.8-1.8-2.7-5.3-5.5-10.5-0.2-0.5-0.5-0.9c-2-3.8-4.1-7.5-6.2-11.2-0.6-1-1.1-2.1-1.7-3.1q-0.1-0.1-0.2-0.2c-1.1-2-2.3-3.9-3.5-5.9-1.6-2.6-3.1-5.2-4.7-7.7-1.3-2-2.6-3.9-3.8-5.8-1.5-2.4-3-4.7-4.6-7q-0.3-0.5-0.6-0.9l-35.4 20.6c1.7 2.6 3.4 5.2 5 7.8 1.3 2 2.7 3.9 3.9 5.9 1.6 2.5 3.1 5.1 4.7 7.7z"/><path fill-rule="evenodd" class="aM" d="m849.2 696.3l-49.7-19.8c-3.4 17.4-9.8 31.8-18.7 42.8l29.7 64.2c-9 8.2-19.4 14.3-31 18.3l-40.5-57.5c-14.2 2.6-30.2 1.2-47.4-4.4l-7.9 52.8c-7.2-3.2-14.5-6.9-22-11.2-7.4-4.3-14.7-9.1-21.9-14.2l-7.6-61.7c-17.2-14.2-33.2-31.3-47.3-50.4l-40.7 10.7c-11.5-17.3-21.8-35.3-30.8-54l30-29.7c-8.8-21.2-15.1-42.9-18.4-64.1l-49.6-37.5c-0.7-8-1-15.8-1-23.6q0.1-14.4 1.7-27.5l50.2 20.1c3.8-16.2 10.3-29.6 19.1-39.9l-29.5-63.7c9.4-8.2 20.3-14.1 32.3-17.8l40.7 57.9c13.2-1.8 27.9-0.3 43.5 4.8l7.9-52.9q11.2 4.9 22.7 11.5 11.5 6.7 22.6 14.7l7.6 61.9c15.6 12.9 30.2 28.2 43.3 45.2l41-10.8c11.9 17.6 22.7 36.1 32.1 55l-29.9 29.6c8.8 20.4 15.3 41.3 18.9 61.7l50.2 37.9q1.5 14.9 1.5 29.3 0 11.7-1.1 22.3zm-187.1-46.9c40.3 23.3 73.1 4.6 73.3-41.7 0.1-46.4-32.5-102.8-72.8-126.1-40.4-23.3-73.2-4.6-73.3 41.7-0.1 46.4 32.5 102.8 72.8 126.1z"/><path class="aN" d="m544.2 412.4l-0.3-0.8c-4.8 5.9-8.8 12.8-12.1 20.7 3.4-7.6 7.6-14.2 12.4-19.9z"/><path class="aO" d="m547 330.9l40.8 57.9c13.2-1.8 27.8-0.4 43.4 4.7l0.4-2.9c-15.3-4.9-29.7-6.3-42.7-4.5l-40.7-57.9c-12 3.7-22.9 9.6-32.3 17.8l0.6 1.2c9-7.4 19.2-12.9 30.5-16.3z"/><path class="aP" d="m729.5 637c-11.1 23.7-37.1 29.9-67.4 12.4-40.3-23.3-72.9-79.7-72.8-126.1 0-10.3 1.7-19.2 4.7-26.7-3.7 8-5.8 17.8-5.8 29.4-0.2 46.4 32.4 102.8 72.7 126.1 31.4 18.1 58.2 10.8 68.6-15.1z"/><path class="aQ" d="m661.8 352.2q11.5 6.7 22.7 14.7l7.5 61.8c15.6 12.9 30.2 28.3 43.3 45.3l41-10.8c11.7 17.2 22.4 35.4 31.6 54l1.7-1.7c-9.4-18.9-20.2-37.4-32.1-55l-41 10.8c-13.1-17-27.7-32.3-43.3-45.2l-7.6-61.9q-11.1-8-22.6-14.7-11.5-6.6-22.7-11.5l-0.5 3q10.9 4.8 22 11.2z"/><path class="aR" d="m541.8 583.8l-28.4 28.1q0.2 0.5 0.5 1l28.3-28q-0.2-0.6-0.4-1.1z"/><path class="aS" d="m791.8 701.2q4.5-9.9 7.1-21.8l-0.5-0.2c-1.6 8-3.8 15.3-6.6 22z"/><path class="aT" d="m848.8 644.7l-50.2-37.9c-3.6-20.1-9.9-40.6-18.4-60.6l-1.6 1.6c8.7 20.3 15.2 41.2 18.8 61.7l50.2 37.9q1.6 14.9 1.5 29.3 0 10-0.8 19.3l0.9 0.3q1.1-10.6 1.1-22.3 0-14.4-1.5-29.3z"/><path class="aU" d="m779.7 721.9l29.1 63.1q0.9-0.8 1.7-1.5l-29.3-63.5q-0.8 1-1.5 1.9z"/><path class="aV" d="m525.1 452.3q0.3-1.5 0.7-2.9l-49.7-19.9c-0.1 1-0.2 2-0.3 3.1z"/><path class="aW" d="m690.4 742.5l-7.4 49.9q0.3 0.1 0.7 0.3l7.5-49.9q-0.4-0.1-0.8-0.3z"/><path class="aX" d="m1999.6 908.2v-0.1q0.3-0.9 0.6-1.8c0.2-0.6 0.5-1.2 0.7-1.7q0.1-0.2 0.2-0.4 0-0.2 0.1-0.3 0.2-0.6 0.4-1 0.4-0.9 0.8-1.7 0.2-0.3 0.4-0.7c0.1-0.1 0.2-0.2 0.2-0.4q0.2-0.3 0.4-0.6 0.5-0.9 1.1-1.8c0.1-0.1 0.2-0.2 0.3-0.4q0.2-0.2 0.4-0.5c0.1-0.3 0.3-0.6 0.5-0.8q0.7-0.8 1.3-1.5 0.1-0.2 0.2-0.3 0.1 0 0.1-0.1 0.5-0.5 1.1-1 0-0.1 0.1-0.1 0.5-0.5 1-1 0 0 0.1 0 0.1-0.1 0.3-0.3 1-0.8 2-1.4c0.3-0.2 0.5-0.3 0.8-0.4q0.9-0.6 1.8-1 0.4-0.1 0.8-0.3 1.3-0.5 2.6-0.8l153-36.3q0 0-0.1 0.1-0.6 0.1-1.1 0.3c0 0-0.1 0-0.2 0-0.3 0.1-0.6 0.3-0.9 0.4q-0.4 0.1-0.7 0.3-0.5 0.2-1 0.4-0.4 0.3-0.9 0.5-0.4 0.2-0.9 0.5-0.4 0.3-0.9 0.7-0.4 0.2-0.8 0.6c-0.2 0.1-0.3 0.2-0.5 0.3q-0.9 0.8-1.7 1.6-1 1-2 2.2c-0.2 0.4-0.5 0.7-0.7 1.1q-0.1 0-0.1 0.1-0.2 0.2-0.3 0.3-0.1 0.2-0.1 0.3-1.1 1.5-2 3.2-0.4 0.7-0.7 1.4-0.4 0.8-0.7 1.6-0.1 0.1-0.1 0.2-0.1 0.1-0.1 0.2-0.2 0.5-0.4 1-0.6 1.5-1.1 3.1c-0.9 2.9-1.6 6-2.1 9.2v0.1q0 0 0 0-0.7 4.7-0.8 9.7 0 0.1 0 0.2 0 0.7 0 1.4 0 0.5 0 1.1c0.1 0.8 0.1 1.6 0.1 2.4 0.2 3.7 0.6 7.4 1.2 11.1 0.2 1.3 0.5 2.5 0.8 3.8q0 0.5 0.2 1.1 0.6 2.6 1.3 5.3c1.5 5 3.3 10 5.6 14.5q0.4 1 0.9 1.9c0.4 0.8 0.9 1.6 1.3 2.4q1.2 1.9 2.4 3.7 2.7 4.3 5.9 7.8 0.7 0.7 1.4 1.4 1 1 2 1.9 0.4 0.3 0.7 0.6 0.4 0.4 0.7 0.6 0 0.1 0.1 0.1 0.3 0.2 0.6 0.5c0.1 0 0.1 0.1 0.2 0.1q0.3 0.3 0.6 0.5c0.2 0.1 0.4 0.2 0.5 0.4q0.6 0.4 1.2 0.7 0.2 0.2 0.4 0.4 0.5 0.3 1 0.5 0.3 0.2 0.6 0.4c0.3 0.1 0.6 0.3 0.9 0.5q0.2 0.1 0.4 0.2 0.1 0 0.3 0.1c0.3 0.2 0.6 0.3 0.9 0.4q0.3 0.2 0.6 0.3 0.1 0 0.2 0.1 0.4 0.1 0.7 0.2 0.5 0.2 0.9 0.3 1.3 0.5 2.5 0.7 0.9 0.2 1.8 0.3 0.1 0 0.2 0c0.1 0 0.1 0 0.2 0q1.1 0.1 2.1 0.1 0.1 0 0.3 0c0.1 0 0.2 0 0.4 0q0.2 0 0.5 0 0.5-0.1 1.1-0.2 0.5 0 1.1-0.1 0.3-0.1 0.5-0.1l-153.3 36.3q-0.8 0.2-1.6 0.3-0.3 0-0.5 0l-1.1 0.2c-0.1-0.1-0.2 0-0.2 0q-0.1 0-0.2 0c-0.9 0-1.7 0-2.6-0.1q0 0 0 0c-0.1-0.1-0.2-0.1-0.2-0.1q-0.9-0.1-1.8-0.3c-0.1 0-0.2 0-0.3 0q-0.2 0-0.3-0.1-0.6-0.1-1.2-0.3-0.2-0.1-0.4-0.1l-0.3-0.1c-0.3-0.1-0.6-0.2-0.9-0.3q-0.3-0.1-0.6-0.2-0.1-0.1-0.2-0.1-0.4-0.2-0.8-0.4-0.3-0.1-0.5-0.2-0.2-0.1-0.3-0.1-0.4-0.2-0.7-0.4-0.3-0.1-0.6-0.3-0.2-0.1-0.3-0.2-0.3-0.1-0.6-0.3-0.3-0.2-0.5-0.3-0.2-0.1-0.5-0.3c-0.2-0.1-0.4-0.2-0.6-0.4q-0.1-0.1-0.3-0.2-0.3-0.3-0.7-0.5c-0.2-0.1-0.3-0.2-0.5-0.3 0-0.1-0.1-0.1-0.1-0.1q-0.7-0.6-1.4-1.1-0.6-0.5-1.2-1.1c-0.1 0-0.2-0.1-0.2-0.2-0.2-0.1-0.3-0.2-0.5-0.4q-0.3-0.3-0.6-0.6-0.2-0.2-0.4-0.4-0.3-0.2-0.5-0.5-0.2-0.2-0.4-0.3-0.5-0.6-1-1.1-0.1-0.1-0.3-0.3-0.6-0.7-1.2-1.5-0.7-0.7-1.3-1.5-0.1-0.1-0.2-0.2-0.1-0.1-0.1-0.2-0.5-0.6-1-1.3-0.6-0.8-1.2-1.7-0.2-0.3-0.4-0.6-0.1-0.2-0.3-0.4-0.3-0.5-0.5-0.9-0.6-0.9-1.2-1.9-0.3-0.5-0.6-1c0-0.2-0.2-0.3-0.2-0.4q-0.2-0.4-0.4-0.7-0.5-1-1-2-0.4-0.7-0.7-1.4-0.1-0.2-0.2-0.3c0-0.2-0.1-0.3-0.2-0.4q-0.5-1-0.9-2-0.5-1.1-0.9-2.2 0 0 0 0 0 0 0 0-0.5-1.1-0.9-2.2-0.5-1.3-1-2.6-0.7-2.1-1.3-4.1 0-0.3-0.1-0.5c-0.3-0.9-0.5-1.9-0.7-2.9-0.2-0.6-0.4-1.3-0.5-1.9-0.1-0.2-0.1-0.3-0.1-0.5q-0.1-0.5-0.3-1.1c-0.1-0.7-0.3-1.5-0.4-2.3q-0.2-0.8-0.3-1.7-0.1-0.3-0.1-0.5-0.1-0.2-0.1-0.3-0.2-1.2-0.3-2.3-0.2-1-0.3-2c0-0.1 0-0.2 0-0.3q0-0.1 0-0.3-0.1-0.7-0.2-1.4-0.1-1.1-0.1-2.1-0.1-0.6-0.1-1.3 0-0.1 0-0.3 0-0.2 0-0.4-0.1-1.1-0.1-2.1 0-1.1 0-2.1 0-0.2 0-0.3 0-0.2 0-0.3c0-0.5 0-1 0-1.5q0.1-1.1 0.1-2.2 0.1-0.4 0.1-0.9 0-0.2 0-0.4c0.1-0.3 0.1-0.5 0.1-0.8q0.1-1 0.2-2 0.1-1 0.3-1.9 0 0 0 0 0-0.1 0-0.1 0.1-1 0.3-2 0.2-0.9 0.4-1.8 0-0.4 0.1-0.7 0.1-0.2 0.1-0.3 0.1-0.5 0.2-0.9 0.2-0.9 0.5-1.8 0.2-0.9 0.5-1.7z"/><path class="aY" d="m2169.7 947.6c-16.7-18.3-24.3-52.2-16.8-75.7 7.5-23.6 27.2-27.9 43.9-9.6 16.8 18.3 24.4 52.2 16.9 75.8-7.5 23.5-27.2 27.8-44 9.5z"/><path class="aZ" d="m2165 883.6q0.2-0.6 0.4-1.2 0.2-0.5 0.4-1 0.1-0.2 0.1-0.3 0.1-0.1 0.1-0.2 0.2-0.3 0.3-0.6 0.2-0.6 0.5-1.1 0.1-0.2 0.2-0.4 0.1-0.1 0.2-0.3 0.1-0.2 0.2-0.4 0.3-0.5 0.7-1.1 0.1-0.1 0.2-0.2 0.1-0.2 0.2-0.4 0.2-0.2 0.4-0.5 0.4-0.5 0.8-0.9 0.1-0.1 0.1-0.2 0.1 0 0.1 0 0.3-0.4 0.6-0.7 0.1 0 0.1-0.1 0.3-0.3 0.7-0.6 0 0 0 0 0.1-0.1 0.2-0.1 0.6-0.5 1.3-1 0.2-0.1 0.5-0.2 0.6-0.4 1.1-0.6 0.3-0.1 0.5-0.2 0.8-0.3 1.7-0.5l144.6-33.8q0 0-0.1 0-0.3 0.1-0.7 0.2 0 0-0.1 0.1-0.3 0.1-0.6 0.2-0.2 0.1-0.4 0.2-0.3 0.1-0.6 0.2-0.3 0.2-0.6 0.3-0.3 0.2-0.6 0.4-0.2 0.2-0.5 0.4-0.3 0.2-0.6 0.4-0.1 0.1-0.3 0.2-0.5 0.5-1.1 1-0.6 0.6-1.2 1.4-0.2 0.3-0.5 0.6 0 0.1 0 0.1-0.1 0.1-0.2 0.2 0 0.1-0.1 0.2-0.6 0.9-1.2 2-0.3 0.5-0.5 0.9-0.2 0.5-0.4 1-0.1 0.1-0.1 0.2 0 0 0 0.1-0.2 0.3-0.3 0.6-0.4 0.9-0.7 1.9-0.9 2.8-1.3 5.9 0 0 0 0.1-0.4 2.9-0.5 6 0 0.1 0 0.2 0 0.4 0 0.8 0 0.4 0 0.7 0 0.8 0.1 1.6c0.1 2.3 0.3 4.6 0.7 7q0.2 1.2 0.5 2.3 0.1 0.4 0.2 0.7 0.3 1.7 0.8 3.4c0.9 3.2 2.1 6.3 3.5 9.2q0.3 0.6 0.6 1.1 0.4 0.8 0.8 1.5 0.7 1.3 1.5 2.4 1.7 2.7 3.7 4.9 0.5 0.5 0.9 0.9 0.6 0.6 1.3 1.2 0.2 0.2 0.4 0.4 0.2 0.2 0.5 0.4 0 0 0 0 0.2 0.2 0.4 0.3 0.1 0.1 0.1 0.1 0.2 0.2 0.4 0.3 0.2 0.1 0.3 0.2 0.4 0.3 0.7 0.5 0.2 0.1 0.4 0.2 0.2 0.2 0.6 0.4 0.1 0.1 0.3 0.2 0.3 0.2 0.6 0.3 0.1 0.1 0.3 0.1 0 0.1 0.1 0.1 0.3 0.2 0.6 0.3 0.2 0.1 0.4 0.1 0.1 0.1 0.1 0.1 0.2 0.1 0.4 0.2 0.4 0.1 0.6 0.2 0.8 0.2 1.6 0.4 0.6 0.1 1.2 0.2 0 0 0.1 0 0 0 0.1 0 0.7 0 1.3 0 0.1 0.1 0.2 0 0.1 0 0.2 0 0.2 0 0.3 0 0.4 0 0.8-0.1 0.3 0 0.6-0.1 0.2 0 0.4 0l-144.8 33.8q-0.5 0.1-1.1 0.2-0.1 0-0.3 0l-0.7 0.1q-0.1 0-0.1 0-0.1 0-0.1 0-0.8 0-1.7-0.1 0 0 0 0 0 0-0.1 0-0.5-0.1-1.1-0.2-0.1 0-0.2 0-0.1-0.1-0.2-0.1-0.4-0.1-0.8-0.2-0.1 0-0.2-0.1h-0.2q-0.3-0.1-0.6-0.2-0.1-0.1-0.3-0.1-0.1-0.1-0.2-0.1-0.2-0.1-0.4-0.2-0.2-0.1-0.4-0.2-0.1 0-0.2 0-0.2-0.2-0.4-0.3-0.2-0.1-0.4-0.2-0.1 0-0.2-0.1-0.2-0.1-0.4-0.2-0.1-0.1-0.3-0.2-0.1-0.1-0.3-0.2-0.2-0.1-0.4-0.2-0.1-0.1-0.2-0.2-0.2-0.1-0.4-0.3-0.1-0.1-0.3-0.2-0.1 0-0.1 0-0.4-0.4-0.8-0.7-0.5-0.3-0.8-0.7-0.1-0.1-0.2-0.1-0.1-0.1-0.3-0.3-0.2-0.2-0.4-0.3-0.1-0.2-0.2-0.3-0.2-0.1-0.3-0.3-0.2-0.1-0.3-0.2-0.3-0.4-0.6-0.7-0.1-0.1-0.2-0.2-0.4-0.5-0.8-0.9-0.4-0.5-0.8-1 0-0.1-0.1-0.1 0-0.1-0.1-0.2-0.3-0.3-0.5-0.7-0.5-0.6-0.8-1.1-0.2-0.2-0.3-0.4-0.1-0.2-0.2-0.3-0.1-0.3-0.3-0.5-0.4-0.6-0.8-1.3-0.1-0.2-0.3-0.6-0.1-0.1-0.2-0.2-0.1-0.2-0.2-0.4-0.3-0.7-0.7-1.3-0.2-0.5-0.4-0.9-0.1-0.1-0.1-0.2-0.1-0.1-0.1-0.2-0.3-0.7-0.6-1.3-0.3-0.7-0.6-1.4 0 0 0 0 0 0 0 0-0.3-0.7-0.5-1.4-0.3-0.8-0.6-1.7-0.5-1.2-0.9-2.5 0-0.2 0-0.3c-0.2-0.6-0.3-1.2-0.5-1.8-0.1-0.4-0.2-0.8-0.3-1.3-0.1 0-0.1-0.1-0.1-0.2q-0.1-0.4-0.1-0.7-0.2-0.8-0.3-1.5-0.1-0.5-0.2-1.1-0.1-0.1-0.1-0.3 0-0.1 0-0.2-0.1-0.7-0.2-1.4-0.1-0.7-0.2-1.3 0-0.1 0-0.2 0-0.1 0-0.2-0.1-0.4-0.1-0.9-0.1-0.6-0.1-1.3 0-0.4-0.1-0.8 0-0.1 0-0.2 0-0.1 0-0.3 0-0.6 0-1.3 0-0.6 0-1.3 0-0.1 0-0.2 0-0.1 0-0.2 0-0.5 0-1 0-0.6 0.1-1.3 0-0.3 0-0.6 0-0.1 0-0.3 0-0.2 0.1-0.4 0-0.7 0.1-1.3 0.1-0.6 0.2-1.2 0 0 0 0 0 0 0-0.1 0.1-0.6 0.2-1.2 0.1-0.6 0.2-1.2 0.1-0.2 0.1-0.4 0-0.1 0.1-0.2 0-0.3 0.1-0.5 0.1-0.6 0.3-1.2 0.1-0.5 0.3-1.1z"/><path class="b0" d="m2320.4 897.6c-10.5-11.5-15.3-32.9-10.6-47.8 4.7-14.8 17.2-17.5 27.7-6 10.6 11.6 15.4 32.9 10.7 47.8-4.8 14.8-17.2 17.5-27.8 6z"/><path class="b1" d="m2520.5 1006.9q2.8-1.3 5.4-2.8l40.1-23.4q-2.6 1.6-5.4 2.9c-0.6 0.3-1.2 0.5-1.9 0.8q-1.9 0.8-3.8 1.5-1.6 0.6-3.2 1.1c-0.7 0.2-1.3 0.4-2 0.6q-2 0.6-4.1 1c-0.5 0.1-0.9 0.3-1.3 0.4q-2.6 0.5-5.3 0.8-0.7 0.1-1.4 0.2-1.6 0.2-3.3 0.3-2.2 0.1-4.6 0.2-1.3 0-2.6 0-1.8 0-3.7-0.1-1.5 0-3-0.2-1.6-0.1-3.1-0.3-1.7-0.2-3.5-0.4-1.4-0.2-2.9-0.5-1.9-0.3-3.8-0.7-1.2-0.2-2.5-0.5-2-0.5-4.1-1-1.2-0.4-2.5-0.7-2.2-0.7-4.5-1.4-1-0.4-2.1-0.7-6.5-2.3-13.3-5.3-1-0.5-2.1-1-2.3-1.2-4.7-2.4-1.2-0.6-2.4-1.2c-2.1-1.1-4.2-2.3-6.4-3.5q-3.5-2.1-7.1-4.3-0.2-0.1-0.4-0.3-3.5-2.2-6.8-4.5-1.2-0.8-2.4-1.7-2.2-1.6-4.5-3.2-1.4-1.1-2.7-2.1-2.1-1.6-4.1-3.2-1.5-1.2-2.9-2.4-1.9-1.6-3.9-3.2-1.5-1.3-2.9-2.6-1.9-1.7-3.8-3.4-1.4-1.4-2.9-2.7-1.9-1.8-3.7-3.6-1.4-1.4-2.8-2.7-1.9-2-3.8-4-1.2-1.3-2.5-2.6-2.2-2.3-4.3-4.7-0.9-1-1.7-2-3.1-3.4-6-6.9-0.5-0.6-0.9-1.2-2.5-3-4.9-6.1-3.1-3.9-6.1-7.9-0.1-0.1-0.1-0.2c-2.9-3.8-5.6-7.8-8.3-11.8q-0.9-1.4-1.9-2.8-1.4-2.2-2.8-4.4-1.3-2-2.6-4-1.4-2.2-2.7-4.5-1.2-1.9-2.3-3.7-3.2-5.6-6.2-11.2-1.1-2.1-2.2-4.2-1.2-2.2-2.3-4.4-1.5-3.1-3-6.2-0.5-1-1-2-1.9-4-3.6-8.1-0.5-1-1-2.1-1.3-3-2.5-6.1-0.6-1.3-1.1-2.7-1.2-2.9-2.3-5.9-0.4-1.2-0.9-2.5-1.4-3.8-2.7-7.6-0.1-0.4-0.3-0.8-1.4-4.1-2.6-8.3-0.4-1.4-0.8-2.7-0.9-2.9-1.7-5.8-0.4-1.6-0.8-3.2-0.7-2.7-1.3-5.4-0.4-1.6-0.8-3.2-0.6-2.8-1.2-5.5-0.3-1.5-0.6-3-0.7-3.6-1.2-7.2-0.1-0.5-0.2-1.1-0.7-4.1-1.2-8.2-0.1-1.2-0.2-2.3-0.4-3-0.6-5.9-0.2-1.4-0.3-2.8-0.2-2.8-0.3-5.6-0.1-1.3-0.1-2.6-0.2-3.9-0.2-7.8 0-4.1 0.2-8 0.1-1.1 0.2-2.2 0.1-2.7 0.3-5.3 0.2-1.6 0.4-3.1 0.2-2.2 0.5-4.4 0.2-1.6 0.5-3.1 0.3-2 0.6-4 0.4-1.7 0.7-3.5 0.4-1.7 0.8-3.4 0.5-2.1 1.1-4 0.4-1.6 0.9-3.1 0.7-2.3 1.5-4.6 0.4-1.2 0.9-2.4 1.4-3.9 3.1-7.4 1.3-2.8 2.7-5.4 0 0 0 0 1.5-2.6 3.1-5.1 0.3-0.5 0.6-1 1.2-1.8 2.5-3.6 0.5-0.7 1.1-1.3 1.2-1.6 2.5-3.1 0.5-0.6 0.9-1.1 1.8-2 3.7-3.8 0.2-0.3 0.5-0.5 1.6-1.6 3.4-3 0.6-0.5 1.2-1 1.5-1.2 3-2.3 0.6-0.5 1.2-0.9 2.2-1.4 4.4-2.7l-40.1 23.3q-2.3 1.3-4.4 2.7-0.6 0.5-1.2 0.9-1.5 1.1-3 2.3-0.6 0.5-1.3 1-1.7 1.4-3.3 3-0.3 0.2-0.5 0.5-1.9 1.8-3.7 3.8-0.5 0.5-0.9 1.1-1.3 1.5-2.5 3.1-0.6 0.7-1.1 1.4-1.3 1.7-2.5 3.5-0.3 0.5-0.7 1-0.1 0.1-0.1 0.3-1.5 2.3-2.9 4.8 0 0 0 0-1.4 2.5-2.6 5.1-0.1 0.2-0.1 0.3-1.7 3.5-3.2 7.4-0.1 0.3-0.2 0.6c-0.2 0.6-0.4 1.2-0.6 1.8q-0.8 2.3-1.6 4.6c-0.1 0.5-0.2 0.8-0.4 1.3-0.1 0.6-0.3 1.2-0.4 1.8q-0.6 1.9-1.1 4c-0.1 0.5-0.3 1-0.4 1.6-0.1 0.6-0.2 1.2-0.4 1.8q-0.3 1.8-0.7 3.5c-0.1 0.6-0.2 1.2-0.3 1.8-0.2 0.7-0.2 1.5-0.4 2.2q-0.2 1.6-0.4 3.2c-0.1 0.5-0.2 1-0.3 1.6-0.1 0.9-0.2 1.8-0.3 2.8q-0.1 1.4-0.3 3 0 0.6-0.1 1.2c-0.1 1.3-0.2 2.7-0.3 4.1q0 1.1-0.1 2.2 0 0.3 0 0.5-0.2 3.5-0.2 7.1 0 0.2 0 0.4 0 3.3 0.1 6.6 0 0.6 0.1 1.2 0 1.3 0.1 2.7 0 1.5 0.1 3.1 0.1 1.2 0.2 2.4 0.1 1.4 0.2 2.8 0.1 0.9 0.2 1.9 0.2 2 0.4 4 0.2 1.1 0.3 2.3 0 0.4 0.1 0.8 0.4 3.6 1 7.3 0 0.1 0.1 0.1 0 0.6 0.1 1.1 0.5 3.1 1.1 6.1 0.1 0.6 0.2 1.1 0.3 1.5 0.6 3 0.4 1.7 0.7 3.5 0.3 1 0.5 2 0.4 1.6 0.7 3.2 0.3 1.2 0.6 2.4 0.4 1.5 0.8 3 0.4 1.6 0.8 3.2 0.2 0.8 0.4 1.6 0.6 2.1 1.3 4.2 0.4 1.3 0.8 2.7 0.1 0.4 0.2 0.7 1.1 3.8 2.4 7.6 0 0 0 0.1 0.1 0.3 0.3 0.7 1.1 3.3 2.3 6.6 0.2 0.5 0.4 1 0.4 1.3 0.9 2.5 0.7 1.8 1.4 3.6 0.4 1.1 0.9 2.3 0.5 1.4 1.1 2.7 0.4 1.1 0.8 2.1 0.8 2 1.7 4 0.5 1.1 0.9 2.1 0.2 0.4 0.4 0.8 1.5 3.5 3.2 7 0 0.2 0.1 0.3 0.5 1 1 2 1.3 2.7 2.6 5.4 0.2 0.4 0.4 0.8 1.1 2.2 2.3 4.4c0.6 1.2 1.2 2.4 1.8 3.5q0.2 0.4 0.3 0.7 3.1 5.6 6.3 11.2 0.3 0.4 0.6 0.9 0.8 1.4 1.7 2.8 1.3 2.3 2.7 4.5 1.3 2 2.5 4 1.5 2.2 2.9 4.4 0.5 0.8 0.9 1.5c0.4 0.5 0.7 0.9 1 1.4 2.7 3.9 5.4 7.9 8.3 11.7q0 0.1 0 0.1 3 4.1 6.2 8.1 0.1 0.1 0.2 0.3 2.3 2.9 4.7 5.8 0.4 0.5 0.9 1.1 0 0 0 0 2.8 3.4 5.7 6.6 0.1 0.2 0.2 0.3 0.9 1 1.8 2 1.8 2 3.6 4 0.4 0.4 0.7 0.7 1.3 1.3 2.5 2.6c0.9 1 1.8 2 2.8 2.9q0.5 0.6 1 1.1 1.4 1.3 2.7 2.7 1.2 1.1 2.4 2.3 0.7 0.6 1.4 1.3 1.4 1.4 2.9 2.7 1.1 1 2.1 1.9 0.8 0.8 1.6 1.5 1.5 1.3 3 2.6 0.9 0.8 1.9 1.6 1 0.8 2 1.6 1.4 1.2 2.9 2.4 0.8 0.7 1.5 1.3c0.9 0.6 1.7 1.2 2.5 1.9q1.4 1 2.8 2.1 0.6 0.4 1.1 0.8c1.1 0.9 2.3 1.6 3.4 2.5q1.2 0.8 2.3 1.6 0.3 0.2 0.6 0.4 3.1 2.1 6.2 4.1 0 0 0.1 0 0.2 0.2 0.4 0.3 2.8 1.8 5.7 3.5 0.7 0.4 1.4 0.8 2.3 1.4 4.6 2.6c0.6 0.3 1.2 0.6 1.8 0.9q1.2 0.6 2.3 1.2c0.7 0.4 1.3 0.7 1.9 1 1 0.5 1.9 0.9 2.9 1.4q1.1 0.5 2.1 1 0.4 0.2 0.9 0.4 2.9 1.3 5.8 2.4 0 0 0 0.1 3 1.1 5.9 2.2 0.4 0.1 0.7 0.2 1.1 0.4 2.1 0.7c1 0.3 2 0.7 3 1 0.5 0.1 1 0.2 1.5 0.4q1.3 0.3 2.5 0.7c0.7 0.1 1.4 0.4 2 0.5 0.7 0.2 1.4 0.3 2.1 0.5q1.2 0.3 2.5 0.5c0.5 0.1 0.9 0.3 1.4 0.3 0.8 0.2 1.6 0.3 2.4 0.4q1.4 0.3 2.9 0.5 0.5 0.1 1 0.2c0.9 0.1 1.6 0.1 2.5 0.2q1.5 0.2 3.1 0.4 0.5 0 0.9 0.1c0.7 0 1.4 0 2.1 0q1.9 0.1 3.7 0.1c0.4 0 0.7 0.1 1.1 0.1 0.5 0 1-0.1 1.5-0.1q2.3 0 4.6-0.2c0.5 0 0.9 0 1.4-0.1q0.9-0.1 1.9-0.2 0.7-0.1 1.4-0.2 2.6-0.3 5.1-0.8 0.1 0 0.1 0c0.5-0.1 0.9-0.3 1.4-0.4q2.1-0.4 4.1-1c0.7-0.2 1.3-0.4 2-0.6 0.8-0.3 1.7-0.5 2.5-0.8q0.4-0.1 0.7-0.3 1.9-0.7 3.8-1.5c0.6-0.3 1.3-0.5 1.9-0.8z"/><path class="b2" d="m2637.2 896.2q-0.1-0.7-0.1-1.5-0.1-1.6-0.1-3.1c-0.1-1.3-0.1-2.5-0.2-3.8-0.1-1-0.2-1.9-0.2-2.9q-0.2-1.7-0.3-3.4-0.1-1.1-0.2-2.2c-0.1-1.6-0.3-3.2-0.5-4.8q-0.2-1.4-0.3-2.8-0.1-0.4-0.1-0.9-0.6-4.4-1.3-8.8 0-0.1 0-0.2-0.1-0.6-0.2-1.2-0.6-3.7-1.3-7.4-0.1-0.6-0.3-1.3-0.3-1.7-0.7-3.5c-0.3-1.4-0.5-2.8-0.9-4.3q-0.2-1.2-0.5-2.3-0.4-1.9-0.9-3.9-0.3-1.4-0.7-2.9c-0.3-1.2-0.6-2.3-0.9-3.5q-0.5-1.9-1-3.9-0.3-0.9-0.5-1.8c-0.5-1.7-1-3.4-1.5-5.1q-0.4-1.6-0.9-3.2-0.2-0.5-0.3-0.9-1.4-4.6-2.9-9.1 0 0 0-0.1-0.2-0.4-0.3-0.8-1.4-4-2.8-7.9-0.2-0.7-0.5-1.3-0.5-1.5-1.1-3-0.8-2.1-1.6-4.3-0.5-1.3-1.1-2.7-0.6-1.7-1.3-3.3-0.5-1.2-1-2.4-1-2.5-2.1-4.9-0.5-1.3-1.1-2.5-0.2-0.5-0.4-0.9-1.8-4.3-3.8-8.5-0.1-0.1-0.2-0.3-0.5-1.2-1.1-2.4-1.6-3.2-3.1-6.5-0.3-0.5-0.6-1-1.3-2.6-2.7-5.2c-0.7-1.4-1.4-2.8-2.1-4.2q-0.3-0.4-0.5-0.8-3.6-6.8-7.5-13.4-0.3-0.6-0.6-1.1c-0.7-1.2-1.4-2.3-2.1-3.4q-1.6-2.7-3.3-5.4-1.5-2.4-3-4.8-1.7-2.7-3.4-5.3-0.6-0.9-1.2-1.7c-0.3-0.6-0.7-1.1-1.1-1.7-3.2-4.7-6.5-9.4-9.9-14.1q-0.1-0.1-0.2-0.2-3.5-4.8-7.2-9.5-0.2-0.2-0.3-0.4-2.8-3.5-5.6-6.9-0.5-0.7-1.1-1.4 0 0-0.1 0-3.3-4-6.7-7.9-0.2-0.2-0.3-0.4-1.1-1.2-2.1-2.3c-1.5-1.6-2.9-3.3-4.4-4.8q-0.4-0.5-0.8-0.9-1.5-1.6-3-3.2c-1.1-1.1-2.2-2.3-3.3-3.4q-0.6-0.6-1.3-1.2-1.6-1.7-3.2-3.3c-1-0.9-1.9-1.9-2.9-2.8q-0.8-0.7-1.6-1.5-1.8-1.7-3.5-3.3c-0.9-0.8-1.7-1.6-2.5-2.3-0.7-0.6-1.3-1.1-2-1.7q-1.8-1.6-3.6-3.2c-0.7-0.6-1.4-1.2-2.2-1.9-0.8-0.6-1.6-1.3-2.4-1.9q-1.7-1.5-3.5-2.9c-0.6-0.5-1.2-1-1.8-1.5-1-0.8-2-1.5-3-2.3q-1.7-1.3-3.3-2.5-0.7-0.5-1.4-1c-1.3-1-2.7-2-4.1-2.9q-1.3-1-2.7-2-0.4-0.3-0.8-0.5-3.6-2.5-7.4-4.9 0 0 0 0-0.3-0.2-0.6-0.4-3.3-2.1-6.7-4.1-0.9-0.5-1.7-1-2.8-1.6-5.6-3.1c-0.7-0.4-1.4-0.7-2.1-1.1q-1.4-0.8-2.8-1.5c-0.8-0.3-1.5-0.8-2.2-1.1-1.2-0.6-2.4-1.1-3.5-1.7q-1.3-0.6-2.5-1.2-0.6-0.2-1.1-0.4-3.5-1.6-7-3 0 0 0 0-3.5-1.4-7-2.6-0.4-0.2-0.9-0.3-1.3-0.5-2.5-0.9c-1.2-0.4-2.4-0.8-3.6-1.1-0.6-0.2-1.1-0.3-1.7-0.5q-1.6-0.5-3.1-0.9c-0.8-0.2-1.6-0.4-2.4-0.6-0.8-0.2-1.6-0.4-2.4-0.6q-1.6-0.3-3.1-0.6c-0.5-0.2-1.1-0.3-1.6-0.4-1-0.2-1.9-0.3-2.9-0.5q-1.7-0.3-3.5-0.6c-0.4 0-0.8-0.1-1.2-0.2-1-0.1-2-0.2-2.9-0.3q-1.9-0.2-3.8-0.3c-0.4-0.1-0.7-0.1-1.1-0.2-0.8 0-1.7 0-2.5 0q-2.2-0.2-4.4-0.2c-0.5 0-0.9 0-1.3 0q-2.4 0-4.8 0.1-0.3 0-0.6 0.1-1.8 0-3.6 0.2c-0.8 0.1-1.5 0.2-2.3 0.3q-0.8 0.1-1.7 0.2-3.1 0.4-6.1 1-0.1 0-0.2 0c-0.5 0.1-1 0.3-1.6 0.4q-2.5 0.5-4.9 1.2c-0.8 0.2-1.6 0.5-2.3 0.7-1.1 0.4-2.1 0.7-3.2 1-0.2 0.1-0.5 0.2-0.7 0.3-1.6 0.6-3.1 1.2-4.6 1.9-0.8 0.3-1.5 0.6-2.2 0.9q-3.4 1.6-6.6 3.4l-40.1 23.4q3.2-1.9 6.5-3.4c0.8-0.4 1.5-0.7 2.3-1 1.5-0.6 3-1.3 4.6-1.9q1.9-0.7 3.8-1.2c0.8-0.3 1.6-0.6 2.4-0.8q2.4-0.7 4.9-1.2c0.5-0.1 1.1-0.3 1.6-0.4q3.1-0.6 6.3-1 0.9-0.1 1.7-0.2 2.9-0.4 5.9-0.5 0.3-0.1 0.6-0.1c2-0.1 4-0.1 6-0.1q2.2 0.1 4.5 0.2c1.2 0 2.4 0.1 3.6 0.2 1.2 0.1 2.5 0.2 3.8 0.4q2 0.2 4.1 0.5 1.7 0.2 3.5 0.5 2.2 0.4 4.5 0.9 1.5 0.3 3.1 0.6 2.4 0.6 4.8 1.2 1.5 0.5 3.1 0.9 2.6 0.8 5.3 1.6 1.2 0.4 2.5 0.9 3.9 1.3 7.9 2.9 0 0 0 0 4 1.6 8 3.5 1.3 0.5 2.5 1.1 2.9 1.4 5.8 2.8 1.4 0.8 2.8 1.5c2.5 1.3 5.1 2.7 7.6 4.2q4.3 2.5 8.5 5.1 0.3 0.2 0.6 0.4 4.1 2.6 8.2 5.4 1.3 1 2.7 2 2.8 1.9 5.4 3.9 1.7 1.2 3.3 2.5 2.5 1.9 4.9 3.8 1.8 1.4 3.5 2.9 2.3 1.9 4.6 3.9 1.8 1.5 3.6 3.1 2.2 2 4.4 4 1.8 1.6 3.6 3.3 2.2 2.1 4.4 4.3 1.7 1.6 3.3 3.3 2.3 2.3 4.6 4.7 1.5 1.5 3 3.1 2.6 2.8 5.1 5.7 1.1 1.1 2.1 2.3 3.7 4.1 7.2 8.4 0.5 0.6 1.1 1.3 3 3.6 5.9 7.3 3.7 4.7 7.2 9.5 0.1 0.1 0.2 0.3c3.4 4.6 6.7 9.3 9.9 14.1q1.1 1.6 2.3 3.3 1.7 2.7 3.4 5.3 1.5 2.4 3 4.8 1.7 2.7 3.3 5.4 1.4 2.3 2.7 4.5 3.9 6.7 7.5 13.4 1.3 2.5 2.6 5 1.4 2.6 2.7 5.2 1.9 3.8 3.7 7.5 0.5 1.2 1.1 2.4 2.3 4.8 4.4 9.7 0.6 1.3 1.1 2.5 1.6 3.7 3.1 7.3 0.6 1.7 1.3 3.3 1.4 3.5 2.7 7 0.6 1.5 1.1 3 1.7 4.6 3.3 9.2 0.1 0.4 0.3 0.8 1.6 5.1 3.2 10.1 0.4 1.6 0.9 3.2 1 3.5 2 7 0.5 1.9 1 3.8 0.8 3.2 1.6 6.4 0.4 2 0.9 3.9 0.7 3.3 1.4 6.6 0.4 1.8 0.7 3.5 0.8 4.4 1.5 8.7 0.2 0.6 0.3 1.3 0.7 4.9 1.3 9.8 0.2 1.4 0.4 2.8 0.4 3.5 0.7 7.1 0.1 1.6 0.2 3.3 0.3 3.4 0.4 6.7 0.1 1.6 0.2 3.2 0.2 4.7 0.2 9.3 0 4.9-0.3 9.6c0 0.9-0.1 1.7-0.1 2.6q-0.2 3.3-0.5 6.4-0.2 1.8-0.4 3.6-0.2 2.7-0.6 5.3-0.3 1.9-0.6 3.8-0.3 2.4-0.8 4.7-0.4 2.1-0.8 4.2-0.5 2.1-1 4.1-0.6 2.5-1.2 4.8-0.5 1.9-1.1 3.7-0.8 2.8-1.8 5.5c-0.4 1.1-0.8 2.3-1.2 3.4q-0.3 0.8-0.7 1.7-1.1 2.8-2.3 5.5-0.3 0.5-0.5 1.1-1.6 3.3-3.3 6.5-0.1 0.1-0.1 0.1-1.7 3.1-3.6 6.1-0.4 0.5-0.8 1.1-1.5 2.2-3 4.3-0.6 0.8-1.3 1.6-1.4 1.9-3 3.7-0.5 0.7-1.1 1.4-2.1 2.3-4.4 4.5-0.3 0.3-0.6 0.6-2 1.9-4 3.6-0.8 0.6-1.5 1.2-1.8 1.4-3.6 2.7-0.7 0.6-1.5 1.1-2.5 1.7-5.2 3.3l40.1-23.3q2.7-1.6 5.2-3.3 0.8-0.5 1.5-1.1 1.8-1.3 3.6-2.7 0.7-0.6 1.5-1.2 2-1.7 4-3.6 0.3-0.3 0.6-0.6 2.3-2.2 4.4-4.5 0.6-0.7 1.1-1.4 1.6-1.8 3.1-3.7 0.6-0.8 1.2-1.6 1.6-2.1 3-4.3 0.4-0.6 0.8-1.2 0.1-0.1 0.2-0.3 1.8-2.8 3.4-5.8 0.1 0 0.1 0 1.6-3 3.1-6.1 0.1-0.2 0.2-0.5 0.2-0.5 0.5-1 1.2-2.7 2.3-5.5 0.4-0.9 0.7-1.7 0.2-0.6 0.5-1.2c0.2-0.7 0.5-1.5 0.7-2.2q1-2.7 1.8-5.5c0.2-0.5 0.4-1 0.5-1.5 0.2-0.7 0.4-1.5 0.6-2.2q0.7-2.3 1.2-4.8c0.2-0.6 0.4-1.2 0.6-1.9 0.1-0.7 0.2-1.5 0.4-2.2q0.4-2.1 0.8-4.2c0.2-0.7 0.3-1.4 0.5-2.1 0.1-0.9 0.2-1.8 0.4-2.6q0.3-1.9 0.5-3.8c0.1-0.7 0.2-1.3 0.3-2 0.1-1.1 0.2-2.2 0.4-3.3q0.2-1.8 0.3-3.6c0.1-0.5 0.1-1 0.2-1.5 0.1-1.6 0.2-3.2 0.3-4.9 0-0.9 0.1-1.7 0.1-2.6q0.1-0.4 0.1-0.7 0.2-4.1 0.2-8.4 0-0.3 0-0.5 0-3.9-0.1-7.9z"/><path fill-rule="evenodd" class="b3" d="m2427 624c96.2 55.6 174 190.3 173.7 300.9-0.3 110.6-78.6 155.2-174.9 99.7-96.2-55.6-174-190.3-173.7-301 0.3-110.6 78.6-155.2 174.9-99.6zm-1.1 367.4c80.4 46.4 145.7 9.2 146-83.1 0.3-92.4-64.7-204.8-145-251.2-80.3-46.4-145.7-9.1-145.9 83.2-0.3 92.3 64.6 204.7 144.9 251.1z"/><path class="b4" d="m2407.1 647.2c-71.9-31.3-127.8 6.9-128 92.3-0.3 92.3 64.6 204.7 145 251.1q10 5.8 19.8 9.9-8.9-3.8-18-9.1c-80.3-46.4-145.2-158.8-144.9-251.1 0.2-84.6 55.1-123 126.1-93.1z"/><path class="b5" d="m2427 624q-12-6.9-23.5-11.7 10.6 4.6 21.6 10.9c96.3 55.6 174 190.3 173.7 300.9-0.3 101.5-66.2 147.4-151.4 111.4 86.1 37.5 153-8.4 153.3-110.6 0.3-110.6-77.5-245.3-173.7-300.9z"/><path class="b6" d="m2537.2 854.7q0-0.4 0-0.8-0.1-0.8-0.1-1.6-0.1-1-0.1-2-0.1-0.7-0.1-1.5-0.1-0.8-0.2-1.7 0-0.6-0.1-1.2-0.1-1.2-0.2-2.5-0.1-0.7-0.2-1.4 0-0.2 0-0.5-0.3-2.2-0.7-4.5 0 0 0-0.1-0.1-0.3-0.1-0.6-0.3-1.9-0.7-3.8 0-0.4-0.1-0.7-0.2-0.9-0.4-1.8-0.2-1.1-0.4-2.2-0.2-0.6-0.3-1.3-0.2-0.9-0.5-1.9-0.1-0.8-0.3-1.5-0.3-1-0.5-1.9-0.3-1-0.5-1.9-0.2-0.5-0.3-1-0.3-1.3-0.7-2.6-0.3-0.9-0.5-1.7-0.1-0.2-0.2-0.5-0.7-2.3-1.5-4.6 0-0.1 0-0.1-0.1-0.2-0.1-0.4-0.7-2.1-1.5-4.1-0.1-0.3-0.2-0.7-0.3-0.7-0.6-1.5-0.4-1.1-0.8-2.2-0.3-0.7-0.6-1.4-0.3-0.9-0.7-1.7-0.2-0.7-0.5-1.3-0.5-1.3-1-2.5-0.3-0.7-0.6-1.3-0.1-0.3-0.2-0.5-1-2.2-2-4.3 0-0.1-0.1-0.2-0.3-0.6-0.6-1.3-0.8-1.6-1.6-3.3-0.1-0.2-0.3-0.5-0.6-1.4-1.4-2.7-0.5-1.1-1.1-2.2-0.1-0.2-0.2-0.4-1.9-3.5-3.9-6.9-0.2-0.3-0.3-0.6-0.5-0.9-1.1-1.7-0.8-1.4-1.7-2.8-0.7-1.3-1.5-2.5-0.9-1.4-1.8-2.7-0.3-0.5-0.6-0.9-0.3-0.5-0.6-0.9-2.5-3.7-5.1-7.3 0 0 0 0 0 0-0.1-0.1-1.8-2.5-3.7-4.9-0.1-0.1-0.2-0.2-1.4-1.8-2.9-3.5-0.2-0.4-0.5-0.8 0 0-0.1 0-1.7-2.1-3.4-4.1-0.1-0.1-0.2-0.2-0.6-0.6-1.1-1.2-1.1-1.2-2.2-2.5-0.3-0.2-0.5-0.4-0.7-0.8-1.5-1.6-0.9-0.9-1.7-1.8-0.4-0.3-0.7-0.6-0.8-0.9-1.7-1.7-0.7-0.7-1.4-1.5-0.4-0.4-0.9-0.7-0.9-0.9-1.8-1.8-0.6-0.6-1.3-1.1-0.5-0.5-1-0.9-0.9-0.9-1.9-1.7-0.5-0.4-1.1-0.9-0.6-0.5-1.2-1-0.9-0.8-1.8-1.5-0.5-0.4-1-0.8-0.8-0.6-1.5-1.2-0.9-0.6-1.7-1.3-0.4-0.3-0.7-0.5-1.1-0.8-2.2-1.5-0.7-0.5-1.4-1-0.2-0.2-0.4-0.3-1.9-1.3-3.8-2.5 0 0 0 0-0.1-0.1-0.3-0.2-1.7-1.1-3.5-2.2-0.4-0.2-0.9-0.5-1.4-0.8-2.8-1.6-0.6-0.3-1.1-0.5-0.7-0.4-1.5-0.8-0.5-0.3-1.1-0.6-0.9-0.4-1.8-0.8-0.7-0.4-1.3-0.7-0.3-0.1-0.6-0.2-1.8-0.8-3.6-1.5 0 0 0 0-1.8-0.8-3.6-1.4-0.2-0.1-0.5-0.2-0.6-0.2-1.3-0.4-0.9-0.3-1.8-0.6-0.5-0.1-0.9-0.2-0.8-0.3-1.6-0.5-0.6-0.1-1.2-0.3-0.7-0.2-1.3-0.3-0.8-0.2-1.6-0.3-0.4-0.1-0.8-0.2-0.7-0.2-1.5-0.3-0.9-0.1-1.8-0.3-0.3 0-0.7-0.1c-0.5 0-0.9-0.1-1.4-0.1q-1-0.1-2-0.2-0.3-0.1-0.6-0.1c-0.4 0-0.8 0-1.3 0q-1.1-0.1-2.2-0.1-0.4 0-0.7 0-1.2 0-2.5 0-0.1 0.1-0.3 0.1-0.9 0-1.9 0.1-0.5 0.1-1.1 0.1-0.5 0.1-0.9 0.1-1.6 0.2-3.1 0.6-0.1 0-0.1 0-0.5 0.1-0.9 0.2-1.3 0.3-2.5 0.6-0.6 0.2-1.2 0.4-0.8 0.2-1.6 0.5-0.2 0.1-0.4 0.1-1.2 0.5-2.4 1-0.6 0.3-1.2 0.5-1.7 0.8-3.3 1.8l-20.7 12q1.6-1 3.3-1.8 0.6-0.2 1.2-0.4 1.2-0.6 2.4-1 0.9-0.4 2-0.7 0.6-0.2 1.2-0.4 1.2-0.3 2.5-0.6 0.4-0.1 0.8-0.2 1.6-0.3 3.3-0.5 0.4-0.1 0.9-0.1 1.5-0.2 3-0.3 0.2 0 0.3 0 1.6-0.1 3.1-0.1 1.2 0.1 2.3 0.1 1 0.1 1.9 0.1 1 0.1 1.9 0.2 1.1 0.1 2.2 0.3 0.9 0.1 1.8 0.3 1.1 0.2 2.3 0.4 0.8 0.2 1.6 0.4 1.2 0.2 2.5 0.6 0.8 0.2 1.6 0.4 1.3 0.4 2.7 0.9 0.7 0.2 1.3 0.4 2.1 0.7 4.1 1.5 2.1 0.8 4.2 1.8 0.6 0.3 1.3 0.6 1.4 0.7 2.9 1.4 0.7 0.4 1.5 0.8 1.9 1 3.9 2.2 2.2 1.2 4.4 2.6 0.1 0.1 0.3 0.2 2.1 1.3 4.2 2.8 0.7 0.5 1.4 1 1.4 1 2.8 2 0.9 0.7 1.7 1.3 1.3 1 2.5 2 1 0.7 1.9 1.5 1.2 1 2.3 2 1 0.8 1.9 1.6 1.1 1 2.3 2.1 0.9 0.8 1.8 1.7 1.2 1.1 2.3 2.2 0.9 0.8 1.7 1.7 1.2 1.2 2.4 2.4 0.7 0.8 1.5 1.6 1.4 1.5 2.7 3 0.5 0.6 1.1 1.2 1.8 2.1 3.7 4.3 0.2 0.3 0.5 0.7 1.6 1.9 3.1 3.8 1.9 2.4 3.7 4.9 0 0 0.1 0.1 2.6 3.6 5.1 7.3 0.6 0.8 1.2 1.7 0.9 1.4 1.7 2.7 0.8 1.3 1.6 2.5 0.9 1.4 1.7 2.8 0.7 1.2 1.4 2.3 2 3.5 3.9 7 0.7 1.2 1.3 2.5 0.7 1.4 1.4 2.7 1 2 1.9 3.9 0.3 0.6 0.6 1.2 1.2 2.5 2.3 5 0.3 0.7 0.5 1.3 0.8 1.9 1.6 3.8 0.4 0.8 0.7 1.7 0.7 1.8 1.4 3.6 0.3 0.8 0.6 1.6 0.8 2.3 1.6 4.7 0.1 0.2 0.2 0.5 0.9 2.5 1.7 5.1 0.2 0.9 0.4 1.7 0.6 1.8 1.1 3.6 0.2 1 0.5 2 0.4 1.6 0.8 3.3 0.2 1 0.5 2 0.4 1.7 0.7 3.4 0.2 0.9 0.4 1.8 0.4 2.3 0.8 4.5 0 0.3 0.1 0.7 0.4 2.5 0.7 5.1 0.1 0.7 0.2 1.4 0.2 1.8 0.3 3.6 0.1 0.9 0.2 1.8 0.1 1.7 0.2 3.4 0 0.8 0 1.6 0.1 2.5 0.1 4.9 0 2.5-0.1 4.9 0 0.7-0.1 1.4-0.1 1.7-0.2 3.3-0.1 0.9-0.2 1.8-0.1 1.4-0.3 2.8-0.2 1-0.3 1.9-0.2 1.3-0.4 2.5-0.2 1.1-0.5 2.1-0.2 1.1-0.5 2.2-0.3 1.2-0.6 2.4-0.3 1-0.6 1.9-0.4 1.5-0.9 2.9-0.3 0.9-0.6 1.7-0.2 0.5-0.4 0.9-0.5 1.5-1.2 2.8-0.1 0.3-0.2 0.6-0.9 1.7-1.8 3.4 0 0 0 0-0.9 1.6-1.8 3.2-0.3 0.3-0.5 0.6-0.7 1.1-1.5 2.2-0.3 0.4-0.7 0.8-0.7 1-1.5 1.9-0.3 0.4-0.6 0.7-1.1 1.2-2.3 2.4-0.1 0.1-0.3 0.3-1 0.9-2.1 1.8-0.3 0.3-0.7 0.7-0.9 0.7-1.9 1.4-0.4 0.2-0.8 0.5-1.3 0.9-2.6 1.7l20.7-12q1.4-0.8 2.7-1.7 0.4-0.3 0.7-0.6 1-0.7 1.9-1.4 0.4-0.3 0.8-0.6 1-0.9 2-1.9 0.2-0.1 0.4-0.3 1.1-1.1 2.2-2.3 0.3-0.4 0.6-0.7 0.8-0.9 1.6-1.9 0.3-0.4 0.6-0.9 0.8-1 1.6-2.2 0.2-0.3 0.4-0.6 0-0.1 0.1-0.2 0.9-1.4 1.7-2.9 0.1 0 0.1 0 0.8-1.6 1.6-3.2 0-0.1 0.1-0.2 0.1-0.3 0.2-0.6 0.7-1.4 1.3-2.8 0.1-0.5 0.3-0.9 0.1-0.3 0.2-0.6c0.2-0.4 0.3-0.8 0.4-1.2q0.5-1.4 1-2.8 0.1-0.4 0.2-0.8 0.2-0.5 0.3-1.1 0.3-1.2 0.7-2.5 0.1-0.5 0.2-1 0.1-0.5 0.2-1.1 0.3-1.1 0.5-2.2 0.1-0.5 0.2-1.1 0.1-0.6 0.2-1.3 0.2-1 0.3-2 0.1-0.5 0.1-1 0.1-0.8 0.2-1.7 0.1-0.9 0.2-1.9 0.1-0.3 0.1-0.7 0.1-1.3 0.1-2.6 0.1-0.6 0.1-1.3 0-0.2 0.1-0.4 0-2.1 0.1-4.3 0-0.1 0-0.3 0-2-0.1-4z"/><path class="b7" d="m2428.5 715.2c49.7 28.7 89.9 98.3 89.7 155.4-0.1 57.1-40.6 80.1-90.3 51.4-49.7-28.7-89.9-98.2-89.7-155.4 0.2-57.1 40.6-80.1 90.3-51.4z"/><path class="b8" d="m2428.5 715.2c-28.1-16.3-53.3-15.9-69.9-2.2 16.6-12.3 41-12.1 68.1 3.6 49.7 28.7 89.9 98.3 89.7 155.4 0 24.8-7.7 43.2-20.4 53.7 13.8-10.3 22.2-29.2 22.2-55.1 0.2-57.1-40-126.7-89.7-155.4z"/><path class="L" d="m2374.8 783.7l23.5 70.9c2.7 8.4 11.5 13.1 20 10.8l49.7-15.4c5-1.4 8-6.5 6.8-11.5l-1.5-6.6c-1.3-5.4-6.8-8.5-12-6.9l-35.9 13.5c-4.3 1.3-8.9-1.2-10.3-5.5l-17.7-58c-1.9-6-8.7-8.9-14.3-6.1l-2.8 1.4c-4.9 2.4-7.3 8.1-5.5 13.4z"/></svg>