<svg version="1.2" xmlns="http://www.w3.org/2000/svg" viewBox="0 0 1161 1515" width="1161" height="1515"><defs><linearGradient id="P" gradientUnits="userSpaceOnUse"/><linearGradient id="g1" x2="1" href="#P" gradientTransform="matrix(311.226,442.268,-317.249,223.249,1723.787,295.369)"><stop stop-color="#44c0c4"/><stop offset="1" stop-color="#007398"/></linearGradient><linearGradient id="g2" x2="1" href="#P" gradientTransform="matrix(592.107,759.949,-1560.762,1216.053,1059.37,369.781)"><stop stop-color="#f9a546"/><stop offset="1" stop-color="#ed2f24"/></linearGradient><linearGradient id="g3" x2="1" href="#P" gradientTransform="matrix(89.253,521.572,-745.244,127.529,870.043,237.374)"><stop stop-color="#ec147f"/><stop offset="1" stop-color="#5e1045"/></linearGradient><linearGradient id="g4" x2="1" href="#P" gradientTransform="matrix(-1232.822,1618.75,-1657.451,-1262.296,1616.94,34.117)"><stop stop-color="#44c0c4"/><stop offset="1" stop-color="#007398"/></linearGradient><radialGradient id="g5" cx="0" cy="0" r="1" href="#P" gradientTransform="matrix(440.794,0,0,440.794,554.363,565.389)"><stop stop-color="#fff"/><stop offset="1" stop-color="#f9a546"/></radialGradient><radialGradient id="g6" cx="0" cy="0" r="1" href="#P" gradientTransform="matrix(658.318,0,0,658.318,500.905,1274.885)"><stop stop-color="#fff"/><stop offset="1" stop-color="#007398"/></radialGradient><radialGradient id="g7" cx="0" cy="0" r="1" href="#P" gradientTransform="matrix(617.098,0,0,617.098,876.675,866.998)"><stop stop-color="#fff"/><stop offset="1" stop-color="#007398"/></radialGradient></defs><style>.a{fill:url(#g1)}.b{fill:url(#g2)}.c{fill:url(#g3)}.d{fill:url(#g4)}.e{fill:#ce2420}.f{fill:#660c46}.g{fill:url(#g5)}.h{fill:url(#g6)}.i{fill:url(#g7)}</style><path class="a" d="m1138.9 1339.2c11.2 57.2-18 94.7-52.4 118.5-42 28.9-99.7 16.8-127.3-26l-95.3-147.6 127.3-44.8c12.7-4.4 15.9-20.5 5.4-27.2l-256.9-164.6c65.4-72.3 122.1-148.2 169.4-226.1 47.2-77.9 85.1-157.8 112.8-237.9z"/><path class="b" d="m995.4 412.5l26.5 171c-55.4 160.3-151.4 319.5-282.2 464l-165.7-106.2c-14.8-9.5-35.8 4-33.4 21.3l33.8 243.6c-71 59.5-148.6 114.9-232.4 164.8-76.5 45.7-154.5 84.7-233 117.1-61.6-19.2-103.2-81.3-92.7-148.9l97.1-626.8c186.9 17.8 401.3-20.5 607.7-120.6 103-50 195.1-111 274.3-179.3z"/><path fill-rule="evenodd" class="c" d="m994.2 405.2l1.2 7.3c-79.2 68.3-171.3 129.3-274.3 179.3-206.4 100.1-420.8 138.4-607.7 120.6l47.6-307.2c5-32.2 32.7-56 65.4-56h135.3c8.8-186.2 102.1-332.7 215.9-332.7 113.8 0 207.1 146.5 215.9 332.7h135.4c32.6 0 60.3 23.8 65.3 56zm-582.2-56h331.2c-1.7-34.5-6.7-67.9-14.7-99.7-9.7-38.3-23.5-72.4-40.8-101.4-16.1-26.7-35-48.3-54.8-62.2-18-12.7-36.6-19.2-55.3-19.2-18.7 0-37.3 6.5-55.3 19.2-19.8 13.9-38.7 35.5-54.8 62.2-17.3 29-31 63.1-40.7 101.4-8.1 31.8-13.1 65.2-14.8 99.7z"/><path class="d" d="m770.1 1430.9c17.6 27.3-2 63.3-34.5 63.3h-586.4c-14.1 0-27.6-2.1-40.2-6.1 78.5-32.4 156.5-71.4 233-117.1 83.8-49.9 161.4-105.3 232.4-164.8l35.2 253.7c1.7 12.3 17.6 16.1 26.9 6.4l94-96.8z"/><path class="e" d="m739.7 1047.5c130.8-144.5 226.8-303.7 282.2-464l-3.9-25c-56.8 168.8-166.8 329.7-305.1 471.8z"/><path class="e" d="m109 1488.1c78.5-32.4 156.5-71.4 233-117.1 83.8-49.9 161.4-105.3 232.4-164.8l-5.9-42.4c-153.2 128-326.3 233.9-494.6 307.4 10.6 7.2 22.5 13 35.1 16.9z"/><path class="f" d="m118.8 677.6l-5.4 34.8c126.1 12 264.7-1.5 404.9-42.3 67.6-19.7 135.6-45.7 202.8-78.3 103-50 195.1-111 274.3-179.3l-1.2-7.3c-0.6-4.2-1.7-8.3-3.1-12.2-319.6 268.2-677.5 303.5-872.3 284.6z"/><path class="g" d="m113.4 712.4l29.8 1.7c2.5 0.1 4.9 0.3 7.4 0.3l7.5 0.2 14.9 0.3 7.5 0.2 3.7 0.1c1.2 0 2.5 0 3.7 0l14.9-0.3 14.9-0.2h3.8l3.7-0.2 7.4-0.4 14.9-0.7c5-0.3 10-0.4 14.9-0.9l29.7-2.4c1.2-0.1 2.5-0.2 3.7-0.3l3.7-0.5 7.4-0.8 14.8-1.7 7.4-0.9 3.7-0.4 3.7-0.5 14.7-2.2c19.7-2.7 39.2-6.6 58.7-10.1l29.1-6.3 7.3-1.6c2.4-0.5 4.8-1.1 7.2-1.7l14.5-3.6c19.3-4.6 38.3-10.3 57.4-15.7l28.4-9 7.1-2.2c1.2-0.4 2.4-0.8 3.5-1.2l3.5-1.2 14.1-5 14-4.9 7-2.5 7-2.7 27.8-10.7c4.6-1.7 9.1-3.8 13.7-5.7l13.7-5.8 13.7-5.9c2.3-0.9 4.5-2 6.8-3l6.8-3.1 27-12.5c8.9-4.4 17.9-8.6 26.7-13.2 17.8-8.9 35.2-18.4 52.6-28 17.3-9.7 34.4-20 51.3-30.4 16.9-10.4 33.5-21.4 49.9-32.5q24.6-16.9 48.5-34.8c7.9-6.1 15.8-12.1 23.6-18.3 7.9-6.1 15.5-12.4 23.3-18.7-7.5 6.6-14.9 13.2-22.5 19.6-7.6 6.5-15.4 12.8-23.1 19.1q-23.3 18.7-47.5 36.3c-16.2 11.7-32.6 23-49.3 33.9-4.2 2.7-8.4 5.3-12.7 8l-6.3 4-6.4 3.9-12.7 7.8-12.9 7.6c-4.3 2.6-8.7 5-13 7.5-4.4 2.4-8.7 4.9-13.1 7.3l-13.1 7.1c-4.4 2.4-8.9 4.7-13.3 7-8.8 4.7-17.8 9-26.7 13.5l-27.1 12.8c-4.5 2.1-9 4.3-13.6 6.3l-13.8 5.9-13.7 5.9c-4.6 1.9-9.2 4-13.9 5.8l-27.9 10.9-6.9 2.7-7.1 2.5-14.1 5-14.2 5-3.5 1.2c-1.2 0.4-2.4 0.8-3.6 1.1l-7.1 2.3-28.6 9-28.9 8-7.2 2.1c-1.2 0.3-2.4 0.6-3.6 0.9l-3.6 0.9-14.6 3.6-14.5 3.5c-2.5 0.5-4.9 1.2-7.3 1.7l-7.4 1.5-29.3 6c-19.7 3.4-39.4 7-59.2 9.4l-14.8 1.9-3.7 0.5-3.8 0.4-7.4 0.7-14.9 1.5-7.5 0.7-3.7 0.4c-1.2 0.1-2.5 0.1-3.7 0.2l-29.9 1.8c-5 0.4-10 0.4-15 0.5l-14.9 0.4-7.5 0.1-3.8 0.1h-3.7l-15-0.3-14.9-0.2c-1.3-0.1-2.5 0-3.8-0.1l-3.7-0.2-7.5-0.4-14.9-0.8c-5-0.3-9.9-0.5-14.9-1z"/><path class="h" d="m109 1488.1l31.1-14q15.5-7.2 30.9-14.6c20.5-9.8 40.8-20 61-30.4 20.1-10.6 40.2-21.3 60-32.5 19.8-11.1 39.4-22.5 58.8-34.3 19.5-11.7 38.7-23.8 57.8-36.3 19-12.3 37.8-25.1 56.5-38.1 18.6-13 37-26.3 55.2-40l13.7-10.2 13.5-10.4 26.9-21.1-12.9 11.3-13 11-13.2 10.9-13.2 10.8c-17.8 14.2-36 28-54.4 41.4-18.4 13.5-37.2 26.4-56.1 39.1-19 12.5-38.3 24.7-57.7 36.6-19.6 11.7-39.3 23.2-59.3 34.2-20 10.9-40.1 21.5-60.6 31.6-20.4 10.1-41 19.8-61.8 29q-15.7 6.8-31.5 13.4l-15.8 6.4z"/><path class="i" d="m739.7 1047.5q11.1-13 22.1-26.1 10.9-13.2 21.6-26.5c14.2-17.7 28.1-35.8 41.7-54 13.5-18.3 26.7-36.8 39.4-55.7 12.8-18.8 25.2-37.8 37.1-57.2 12-19.3 23.4-39 34.4-58.9 11.1-19.8 21.6-40 31.7-60.4 10-20.4 19.6-41 28.6-61.9 4.5-10.4 8.9-20.9 13.2-31.5q6.3-15.9 12.4-31.8l-5.3 16.2c-1.9 5.4-3.7 10.8-5.7 16.2-3.8 10.7-7.8 21.4-12 32-8.4 21.2-17.4 42.2-27.1 62.8-9.7 20.7-20.1 41-30.9 61.1-10.9 20.1-22.4 39.8-34.3 59.3-12.1 19.4-24.5 38.5-37.5 57.3-13 18.7-26.4 37.2-40.4 55.2-13.9 18.1-28.3 35.8-43.2 53.1q-11.1 13-22.6 25.7l-11.5 12.6z"/></svg>